<svg id="Layer_1" data-name="Layer 1" xmlns="http://www.w3.org/2000/svg" xmlns:xlink="http://www.w3.org/1999/xlink" viewBox="0 0 512 512"><defs><style>.cls-1{fill:#fff;}.cls-2{fill:url(#linear-gradient);}</style><linearGradient id="linear-gradient" x1="17.08492" y1="295.7669" x2="375.50397" y2="295.7669" gradientUnits="userSpaceOnUse"><stop offset="0" stop-color="#34d8b7"/><stop offset="0.2551" stop-color="#2ed5ba"/><stop offset="0.58884" stop-color="#1ecbc3"/><stop offset="0.96476" stop-color="#03bcd2"/><stop offset="1" stop-color="#00bad4"/></linearGradient></defs><path class="cls-1" d="M512,259.02337c-2.41863,8.99689-5.0854,17.82056-11.29008,25.18841-10.38274,12.32906-23.47939,18.72784-39.59261,18.96621-2.49513.03692-4.99032.08754-7.48414.17154-.28929.00971-.56992.27517-1.428.71795,0,1.49515,0,3.27926,0,5.06337q-.00018,37.73449.01944,75.469c.008,4.78838.13661,9.59086-5.336,11.75113-5.69518,2.24813-8.996-1.504-12.31838-5.16921q-18.62842-20.55054-37.31022-41.0527c-1.21321-1.3334-2.48472-2.61377-4.04676-4.25172-1.02466,4.95523-1.61287,9.52334-2.92854,13.87135-6.57429,21.72656-23.85369,35.50994-46.53132,36.51151-14.80261.65374-29.64633.43219-44.4721.49514q-46.9802.19955-93.96075.20883a10.35477,10.35477,0,0,0-8.58808,3.72173q-37.82821,41.93124-75.91334,83.63063a33.89919,33.89919,0,0,1-4.58761,4.56646c-5.64457,4.19679-12.36374,1.4473-13.54956-5.49894a32.81527,32.81527,0,0,1-.27451-5.47435q-.02436-37.23471-.01107-74.46937v-6.38462c-2.35508,0-4.14251.00033-5.93-.00006-15.327-.00357-30.65541.12358-45.98073-.03952A50.56423,50.56423,0,0,1,.14415,346.76332Q-.14838,256.30152.14371,165.83821c.08316-26.56721,20.94965-48.77166,47.44014-49.88632,21.789-.91685,43.63637-.44936,65.45789-.59217,1.94961-.01276,3.89936-.00169,6.45006-.00169,0-6.37055-.02678-12.14982.006-17.92875.05393-9.49376-.27752-19.01332.30321-28.476,1.66549-27.13853,23.45614-47.847,50.64883-47.82147q144.94015.13633,289.87973.68081c25.55.09471,44.63208,15.69355,50.671,40.55383A23.46152,23.46152,0,0,0,512,65.05094ZM119.49864,458.79979l1.185.65552c1.00852-1.22422,1.96791-2.493,3.03276-3.66611,21.04915-23.18808,42.18618-46.29719,63.10124-69.60549a17.15269,17.15269,0,0,1,13.86073-6.27114q68.7172-.03612,137.43262-.645c6.15915-.06378,12.83274-1.01008,18.33986-3.5558,13.891-6.42121,19.08411-18.42759,19.053-33.37108q-.18033-86.45919-.05568-172.919c-.00025-1.66372-.03512-3.33236-.16239-4.99039-1.48649-19.36287-15.00465-32.37382-34.36292-32.35283q-144.1823.15645-288.36408.62943c-21.68856.07638-35.42319,14.28537-35.43958,35.96715q-.06631,87.7089.00268,175.41788c.01892,21.81477,14.17819,35.85889,36.05384,35.91628,17.99145.04721,35.98313.00379,53.97471.013,9.80775.005,12.33208,2.54224,12.34189,12.49215q.03007,30.4858.00632,60.97159Q119.49865,456.14294,119.49864,458.79979Zm17.1187-343.80117c2.20059.10472,3.82333.24817,5.44611.24844,10.49712.00176,20.99424-.03283,31.49136-.046q83.22732-.10468,166.45456-.2418c11.90806-.03254,22.71555,3.09824,32.16519,10.31148,14.28154,10.90159,20.47036,25.64985,20.4368,43.43127-.09151,48.4866.01135,96.97356-.10857,145.46a13.09935,13.09935,0,0,0,3.83423,9.73327c11.802,12.68521,23.39368,25.56646,35.01215,38.42139A23.65116,23.65116,0,0,1,433.6315,365.99l1.49234-1.03623q0-2.67287,0-5.34576c.00034-20.82764-.03927-41.6554.02188-62.48285.02276-7.74481,3.24536-10.89326,10.96148-11.0043,3.99809-.05755,7.99765-.00525,11.99656-.01233,23.14323-.04088,36.85639-13.81712,36.86119-37.08419.01187-57.65092-.29711-115.30421.15677-172.95156.17405-22.10473-15.20487-37.48665-37.34683-37.43539-90.14073.20866-180.283-.279-270.42475-.508-5.49847-.014-10.9999-.1297-16.49494.00536-19.15791.47088-32.71793,13.18642-33.98066,32.248-.52761,7.96439-.21693,15.98552-.2512,23.981C136.59428,101.14391,136.61734,107.9243,136.61734,114.99862Z"/><path class="cls-2" d="M119.49864,458.79979q0-2.65689,0-5.31376-.00018-30.48579-.00632-60.97159c-.00981-9.94991-2.53414-12.48711-12.34189-12.49215-17.99158-.00924-35.98326.03418-53.97471-.013-21.87565-.05739-36.03492-14.10151-36.05384-35.91628q-.07608-87.70888-.00268-175.41788c.01639-21.68178,13.751-35.89077,35.43958-35.96715q144.18141-.50784,288.36408-.62943c19.35827-.021,32.87643,12.99,34.36292,32.35283.12727,1.658.16214,3.32667.16239,4.99039q.01212,86.45955.05568,172.919c.03116,14.94349-5.162,26.94987-19.053,33.37108-5.50712,2.54572-12.18071,3.492-18.33986,3.5558q-68.71275.71177-137.43262.645a17.15269,17.15269,0,0,0-13.86073,6.27114c-20.91506,23.3083-42.05209,46.41741-63.10124,69.60549-1.06485,1.17308-2.02424,2.44189-3.03276,3.66611ZM196.57986,268.528q53.19152,0,106.383-.00384c8.5752-.00223,12.71786-2.81433,12.69922-8.54871-.01871-5.73835-4.18224-8.56215-12.7282-8.56287q-106.63275-.00888-213.26551.016a31.22336,31.22336,0,0,0-5.94616.4755c-4.3672.85321-6.63563,3.768-6.63347,8.09982.00217,4.33666,2.29159,7.25458,6.65315,8.08045a35.00046,35.00046,0,0,0,6.45494.42661Q143.38833,268.5469,196.57986,268.528Zm-.12658,51.26234q53.19048,0,106.381-.01919a28.95594,28.95594,0,0,0,5.93922-.47384,8.26584,8.26584,0,0,0-.72975-16.38817,26.56175,26.56175,0,0,0-3.48608-.18467q-108.37875-.01162-216.7575.01031c-6.99462.0026-10.69992,2.98292-10.76854,8.3401-.06838,5.3385,3.77061,8.51661,10.54362,8.70622,1.33083.03728,2.66353.00912,3.99538.00912Q144.01195,319.79054,196.45328,319.79034ZM140.50571,217.24978c18.14221,0,36.28465.05276,54.42648-.02971,6.03457-.02744,9.78371-3.36144,9.85974-8.31952.07487-4.88132-3.73332-8.31823-9.64859-8.68567-.82923-.0515-1.66395-.0184-2.49612-.01841q-51.93-.00069-103.86.03445a20.29831,20.29831,0,0,0-6.37594.83929,8.15718,8.15718,0,0,0-4.503,11.46467c2.03119,4.00816,5.61127,4.748,9.66878,4.73805C105.21986,217.22968,122.86281,217.25438,140.50571,217.24978Z"/><path class="cls-1" d="M196.57986,268.528q-53.19151,0-106.383-.017a35.00046,35.00046,0,0,1-6.45494-.42661c-4.36156-.82587-6.651-3.74379-6.65315-8.08045-.00216-4.33185,2.26627-7.24661,6.63347-8.09982a31.22336,31.22336,0,0,1,5.94616-.4755q106.63273-.03439,213.26551-.016c8.546.00072,12.70949,2.82452,12.7282,8.56287.01864,5.73438-4.124,8.54648-12.69922,8.54871Q249.77139,268.538,196.57986,268.528Z"/><path class="cls-1" d="M196.45328,319.79037q-52.44135,0-104.88267-.00015c-1.33185,0-2.66455.02816-3.99538-.00912-6.773-.18961-10.612-3.36772-10.54362-8.70622.06862-5.35718,3.77392-8.3375,10.76854-8.3401q108.37873-.04032,216.7575-.01031a26.56175,26.56175,0,0,1,3.48608.18467,8.26584,8.26584,0,0,1,.72975,16.38817,28.95594,28.95594,0,0,1-5.93922.47384Q249.64378,319.81074,196.45328,319.79037Z"/><path class="cls-1" d="M140.50571,217.25209c-17.6429.00229-35.28585-.02241-52.92864.02084-4.05751.01-7.63759-.72989-9.66878-4.73805a8.15718,8.15718,0,0,1,4.503-11.46467,20.29831,20.29831,0,0,1,6.37594-.83929q51.92991-.07335,103.86-.03445c.83217,0,1.66689-.03309,2.49612.01841,5.91527.36744,9.72346,3.80435,9.64859,8.68567-.076,4.95808-3.82517,8.29208-9.85974,8.31952C176.79036,217.30254,158.64792,217.24978,140.50571,217.25209Z"/></svg>