<svg id="Layer_1" data-name="Layer 1" xmlns="http://www.w3.org/2000/svg" xmlns:xlink="http://www.w3.org/1999/xlink" viewBox="0 0 512 512"><defs><style>.cls-1{fill:url(#linear-gradient);}.cls-2{fill:#fff;}</style><linearGradient id="linear-gradient" x1="0.01602" y1="256" x2="511.98398" y2="256" gradientUnits="userSpaceOnUse"><stop offset="0" stop-color="#34d8b7"/><stop offset="0.2551" stop-color="#2ed5ba"/><stop offset="0.58884" stop-color="#1ecbc3"/><stop offset="0.96476" stop-color="#03bcd2"/><stop offset="1" stop-color="#00bad4"/></linearGradient></defs><path class="cls-1" d="M80.006,161.15012C129.801,112.22369,187.63366,85.53739,256.25028,85.53c68.57864-.00738,126.31743,26.84162,175.88816,75.57484v-6.72727c0-22.07072-.08838-44.14213.082-66.21153.03036-3.93571-.89269-6.2383-4.62422-8.287a42.085,42.085,0,0,1-19.79347-51.33158c6.659-18.89817,26.53044-31.0954,45.73268-28.071,21.51443,3.38855,36.84967,20.0418,37.1048,41.335.20043,16.72905-7.29664,29.69561-21.95351,37.98034-3.5901,2.02929-4.84879,4.11115-4.82934,8.201.17061,35.81206.02273,71.62569.22534,107.4374a19.696,19.696,0,0,0,2.8822,9.83962c30.06877,47.981,44.82088,100.40333,45.01845,156.83488.1132,32.33561-15.483,57.71488-38.34995,79.07573-29.09908,27.18254-64.19777,43.579-101.94578,54.57188C310.943,513.44217,249.242,516.29036,186.87141,506.22667c-41.87-6.75587-81.653-19.47632-117.9632-41.85A179.37025,179.37025,0,0,1,27.37279,429.6741C6.73011,406.01084-1.80243,378.80939.336,347.33531c3.51274-51.70207,17.889-99.623,45.7653-143.42542a14.94754,14.94754,0,0,0,1.99983-7.62266c.1262-36.43706-.00421-72.87522.207-109.31152.02483-4.28268-2.22226-5.59138-5.23011-7.30083A42.25474,42.25474,0,0,1,22.96256,31.57774a42.54741,42.54741,0,0,1,82.30774.3424A41.90969,41.90969,0,0,1,84.76355,79.78727c-3.59908,1.98237-4.90531,4.02644-4.86383,8.1458.2243,22.27668.10625,44.5568.10623,66.83574ZM256.2941,469.33055c44.68258-.45426,88.372-6.56749,130.03889-23.50531,25.695-10.44523,49.4872-23.92684,67.59369-45.64646,9.29623-11.15118,15.67218-23.72225,15.44131-38.58731-.95936-61.77724-20.20215-116.8451-61.44433-163.427-78.06195-88.16888-205.63031-94.108-290.91583-13.01713-48.23,45.8579-71.06542,103.39409-74.21308,169.40639-.82007,17.19847,4.19832,31.91484,14.8941,45.02441,14.67687,17.989,33.61288,30.3066,54.28585,40.10278C157.63608,461.31814,206.264,468.81985,256.2941,469.33055Z"/><path class="cls-2" d="M416.16421,357.144c-.93886-22.53073-3.385-44.7989-9.13314-66.61378-5.14872-19.5391-12.29407-38.29582-23.02558-55.70966q-128.127,42.39937-255.60781.0221a17.568,17.568,0,0,0-1.35791,1.73054c-1.24872,2.15885-2.50982,4.31373-3.66749,6.52187-18.74854,35.76566-26.03445,74.22415-27.38749,114.21248-.324,9.56678,3.26524,16.51653,11.10679,20.6371,9.50444,4.99423,19.38152,9.69606,29.62017,12.79842,32.87879,9.96239,66.82861,13.1852,101.02419,14.10351,43.40166,1.16562,86.6274-.65353,128.84046-11.67877,13.11624-3.4257,25.74316-9.20232,38.06508-15.02248C412.85432,374.2659,416.57353,366.97445,416.16421,357.144Zm-239.968,5.328a26.50857,26.50857,0,1,1,26.38807-26.62876A26.18995,26.18995,0,0,1,176.19618,362.472Zm159.44944,0a26.51146,26.51146,0,1,1,26.92292-26.10342A26.19172,26.19172,0,0,1,335.64562,362.472Z"/></svg>