<svg id="Layer_1" data-name="Layer 1" xmlns="http://www.w3.org/2000/svg" xmlns:xlink="http://www.w3.org/1999/xlink" viewBox="0 0 512 512"><defs><style>.cls-1{fill:#fff;}.cls-2{fill:url(#linear-gradient);}</style><linearGradient id="linear-gradient" x1="0.00025" y1="421.62473" x2="511.99975" y2="421.62473" gradientUnits="userSpaceOnUse"><stop offset="0" stop-color="#34d8b7"/><stop offset="0.2551" stop-color="#2ed5ba"/><stop offset="0.58884" stop-color="#1ecbc3"/><stop offset="0.96476" stop-color="#03bcd2"/><stop offset="1" stop-color="#00bad4"/></linearGradient></defs><path class="cls-1" d="M0,216.1039V196.14077a16.46394,16.46394,0,0,0,.9232-2.73494c6.5855-42.45608,29.93562-71.61858,70.0372-87.03434,5.50158-2.1149,7.30893-4.57273,8.02419-10.26266,5.28552-42.04693,27.66312-72.07459,66.96513-87.58745,38.75792-15.29809,75.161-8.559,107.72132,17.55439,2.4861,1.99388,4.1494,2.08272,6.92729.59764,22.69662-12.13384,46.96249-17.022,72.42178-13.18606,51.27448,7.7256,85.00748,36.74823,101.55744,85.64734,1.31408,3.88262,3.07315,5.8644,6.8948,7.28911,29.657,11.056,50.84818,31.212,62.537,60.56684,3.819,9.591,5.391,20.0735,7.99066,30.14828v18.965c-.35425,1.59377-.81818,3.17214-1.04544,4.78377-1.92291,13.63608-5.97006,26.6222-13.13034,38.38631-21.53406,35.37983-53.16132,53.50938-94.68005,53.69084-50.2963.21987-100.59424.06558-150.89148.04947-49.63063-.01587-99.26667.3794-148.89025-.22724-43.00659-.5257-81.95949-28.8658-96.41864-69.32016C3.79053,234.64456,2.27162,225.2402,0,216.1039Z"/><path d="M511.15075,377.4829c-4.96826-25.04-24.52209-43.483-48.33191-45.556-25.661-2.23419-47.74841,11.52436-57.25952,35.94513-1.20422,3.09265-2.80456,3.83911-5.86364,3.81012-14.66-.13885-29.3219-.05432-43.98316-.07507-1.44653-.00214-2.89306-.18-4.84924-.31036V343.3731H321.282a10.55846,10.55846,0,0,0-.2417,1.39466q-.02929,18.95783-.03784,37.91564c0,13.587,5.36926,18.877,19.16931,18.88306,19.65943.00824,39.32007.11414,58.97766-.09521,3.79517-.04029,5.45166,1.1679,6.82923,4.661,7.55615,19.1687,21.79626,30.9552,41.96594,34.32342,21.46545,3.5849,39.26208-3.87329,52.90588-20.93567,6.06262-7.5824,8.74573-16.59668,11.14929-25.744v-13.9743A15.55175,15.55175,0,0,1,511.15075,377.4829Z"/><path d="M190.99878,350.75408c.00854-2.442.00122-4.884.00122-7.43652H160.76379v28.30261c-16.34887,0-32.157-.14953-47.95837.1059-3.891.06317-5.45166-1.35376-6.73462-4.78028-8.00354-21.383-28.22632-35.13153-51.39526-35.20812A54.49035,54.49035,0,0,0,3.93946,366.49444c-1.66016,4.30206-2.644,8.86475-3.93921,13.30719v13.9743a11.80791,11.80791,0,0,1,.90393,2.21955C5.657,421.1856,25.212,438.80859,51.13794,441.23016c23.38013,2.18414,46.32507-12.536,55.083-35.55481,1.19141-3.13294,2.699-4.29779,6.13159-4.19739,9.15527.26733,18.324.10529,27.48718.0882C197.09253,401.459,190.812,407.15484,190.99878,350.75408Z"/><path d="M274.5437,404.86236c-1.192-.45807-2.33765-1.03607-3.76526-1.67481v-59.8468H240.9469v60.12574c-1.64551.66162-3.03345,1.20819-4.41223,1.77581-19.56421,8.05085-31.61316,22.35627-34.68994,43.30719-3.21045,21.85913,4.93957,39.33777,22.442,52.59278,8.18909,6.20178,17.84668,8.60961,27.713,10.41625h8.00048a23.62035,23.62035,0,0,1,2.86377-.80993c26.40869-4.09027,45.257-23.45795,47.94129-49.292C313.32788,437.1759,298.52319,414.07958,274.5437,404.86236Z"/><path class="cls-2" d="M511.15075,377.4829c-4.96826-25.04-24.52209-43.483-48.33191-45.556-25.661-2.23419-47.74841,11.52436-57.25952,35.94513-1.20422,3.09265-2.80456,3.83911-5.86364,3.81012-14.66-.13885-29.3219-.05432-43.98316-.07507-1.44653-.00214-2.89306-.18-4.84924-.31036V343.3731H321.282a10.55846,10.55846,0,0,0-.2417,1.39466q-.02929,18.95783-.03784,37.91564c0,13.587,5.36926,18.877,19.16931,18.88306,19.65943.00824,39.32007.11414,58.97766-.09521,3.79517-.04029,5.45166,1.1679,6.82923,4.661,7.55615,19.1687,21.79626,30.9552,41.96594,34.32342,21.46545,3.5849,39.26208-3.87329,52.90588-20.93567,6.06262-7.5824,8.74573-16.59668,11.14929-25.744v-13.9743A15.55175,15.55175,0,0,1,511.15075,377.4829Z"/><path class="cls-2" d="M190.99878,350.75408c.00854-2.442.00122-4.884.00122-7.43652H160.76379v28.30261c-16.34887,0-32.157-.14953-47.95837.1059-3.891.06317-5.45166-1.35376-6.73462-4.78028-8.00354-21.383-28.22632-35.13153-51.39526-35.20812A54.49035,54.49035,0,0,0,3.93946,366.49444c-1.66016,4.30206-2.644,8.86475-3.93921,13.30719v13.9743a11.80791,11.80791,0,0,1,.90393,2.21955C5.657,421.1856,25.212,438.80859,51.13794,441.23016c23.38013,2.18414,46.32507-12.536,55.083-35.55481,1.19141-3.13294,2.699-4.29779,6.13159-4.19739,9.15527.26733,18.324.10529,27.48718.0882C197.09253,401.459,190.812,407.15484,190.99878,350.75408Z"/><path class="cls-2" d="M274.5437,404.86236c-1.192-.45807-2.33765-1.03607-3.76526-1.67481v-59.8468H240.9469v60.12574c-1.64551.66162-3.03345,1.20819-4.41223,1.77581-19.56421,8.05085-31.61316,22.35627-34.68994,43.30719-3.21045,21.85913,4.93957,39.33777,22.442,52.59278,8.18909,6.20178,17.84668,8.60961,27.713,10.41625h8.00048a23.62035,23.62035,0,0,1,2.86377-.80993c26.40869-4.09027,45.257-23.45795,47.94129-49.292C313.32788,437.1759,298.52319,414.07958,274.5437,404.86236Z"/></svg>