<?xml version="1.0" encoding="utf-8"?>
<!-- Generator: Adobe Illustrator 25.2.0, SVG Export Plug-In . SVG Version: 6.00 Build 0)  -->
<svg version="1.1" id="Layer_1" xmlns="http://www.w3.org/2000/svg" xmlns:xlink="http://www.w3.org/1999/xlink" x="0px" y="0px"
	 viewBox="0 0 512 512" style="enable-background:new 0 0 512 512;" xml:space="preserve">
<style type="text/css">
	.st0{fill:url(#SVGID_1_);}
	.st1{fill:#FFFFFF;}
</style>
<linearGradient id="SVGID_1_" gradientUnits="userSpaceOnUse" x1="-1.453072e-07" y1="256" x2="512" y2="256">
	<stop  offset="0" style="stop-color:#34D8B7"/>
	<stop  offset="0.2551" style="stop-color:#2ED5BA"/>
	<stop  offset="0.5888" style="stop-color:#1ECBC3"/>
	<stop  offset="0.9648" style="stop-color:#03BCD2"/>
	<stop  offset="1" style="stop-color:#00BAD4"/>
</linearGradient>
<path class="st0" d="M256,0L256,0C114.6,0,0,114.6,0,256v0c0,141.4,114.6,256,256,256h0c141.4,0,256-114.6,256-256v0
	C512,114.6,397.4,0,256,0z"/>
<g>
	<path class="st1" d="M386.4,169.6c-6.9-24.2-29.5-43.3-54.4-46.1c-0.6-0.1-1.1-0.3-1.7-0.5c-3.8,0-7.6,0-11.4,0
		c-0.4,0.1-0.8,0.3-1.2,0.4c-15.7,1.7-28.7,8.7-39.8,19.9c-15.5,15.7-31.2,31.2-46.8,46.9c-0.7,0.7-1.4,1.5-2.1,2.2
		c0.3,0.2,0.5,0.3,0.6,0.3c0.9,0,1.7-0.1,2.6-0.2c12.2-1.2,24,0.4,35.4,4.8c2,0.8,3.2,0.4,4.7-1.1c10.5-10.6,20.9-21.2,31.7-31.5
		c10.4-9.9,27-10.5,38.5-2c15.6,11.5,17.1,33.1,3.2,47.2c-10.8,10.9-21.7,21.7-32.5,32.5c-6.7,6.7-13.3,13.4-20.1,19.9
		c-5.7,5.5-12.8,8.1-20.7,8.1c-8.8,0-16-3.5-22.4-9.4c-5.6-5.1-13.6-5.8-19.2-1c-4.7,4-8.6,8.9-13.1,13.6c0-0.1,0.1,0.3,0.4,0.6
		c24.6,36.7,71.8,38.7,99.1,11.3c17.7-17.8,35.5-35.5,53.3-53.3c8-8,13.5-17.5,16.4-28.4c0.9-3.6,1.5-7.3,2.2-10.9
		c0-3.6,0-7.3,0-10.9C388.1,178,387.5,173.7,386.4,169.6z"/>
	<path class="st1" d="M279.6,319.5c-12,1.2-23.7-0.4-34.9-4.7c-2.3-0.9-3.5-0.5-5.1,1.2c-10.4,10.5-20.7,21-31.3,31.2
		c-8.9,8.5-22.4,10.4-33.4,5.3c-19.7-9.2-24.2-34.2-9-50c4.9-5,9.9-9.9,14.9-14.9c12.1-12.1,24.3-24.2,36.4-36.4
		c6.7-6.7,14.8-10.2,24.3-9.7c7.9,0.4,14.6,3.8,20.4,9.2c6.5,6,15.2,5.7,21.5-0.4c3.4-3.3,6.7-6.8,10.1-10.1c1.1-1.1,1.2-1.9,0.2-3
		c-2.5-3.1-4.8-6.4-7.6-9.2c-25.1-26.3-64.9-27.3-90.9-1.9c-18.2,17.8-36.1,35.9-54,54c-8.2,8.2-13.6,18-16.4,29.3
		c-0.8,3.2-1.2,6.4-1.8,9.6c0,3.8,0,7.6,0,11.4c1,4.4,1.5,8.9,3,13c9.2,25.7,27.1,41,54.3,45.2c0.5,0.1,1,0.3,1.4,0.5
		c3.8,0,7.6,0,11.4,0c0.4-0.1,0.8-0.3,1.2-0.4c15.6-1.7,28.6-8.5,39.6-19.7c15.6-15.8,31.3-31.4,47-47c0.7-0.7,1.4-1.5,2.1-2.2
		c-0.3-0.2-0.5-0.3-0.6-0.3C281.5,319.4,280.5,319.4,279.6,319.5z"/>
</g>
</svg>
