<?xml version="1.0" encoding="utf-8"?>
<!-- Generator: Adobe Illustrator 25.2.0, SVG Export Plug-In . SVG Version: 6.00 Build 0)  -->
<svg version="1.1" id="Layer_1" xmlns="http://www.w3.org/2000/svg" xmlns:xlink="http://www.w3.org/1999/xlink" x="0px" y="0px"
	 viewBox="0 0 512 512" style="enable-background:new 0 0 512 512;" xml:space="preserve">
<style type="text/css">
	.st0{fill:url(#SVGID_1_);}
	.st1{fill:#FFFFFF;}
</style>
<linearGradient id="SVGID_1_" gradientUnits="userSpaceOnUse" x1="-1.453072e-07" y1="256" x2="512" y2="256">
	<stop  offset="0" style="stop-color:#34D8B7"/>
	<stop  offset="0.2551" style="stop-color:#2ED5BA"/>
	<stop  offset="0.5888" style="stop-color:#1ECBC3"/>
	<stop  offset="0.9648" style="stop-color:#03BCD2"/>
	<stop  offset="1" style="stop-color:#00BAD4"/>
</linearGradient>
<path class="st0" d="M256,0L256,0C114.6,0,0,114.6,0,256v0c0,141.4,114.6,256,256,256h0c141.4,0,256-114.6,256-256v0
	C512,114.6,397.4,0,256,0z"/>
<g>
	<path class="st1" d="M398,244.7c-1.1-7.3-1.6-14.8-3.6-21.9c-2.7-9.6-6.4-18.9-10-28.2c-1.3-3.4-4.6-4.4-7.6-2.9
		c-2.8,1.4-3.8,4.4-2.4,7.6c0.3,0.7,0.6,1.3,0.9,2c12.8,28.3,15.6,57.5,7.7,87.5c-14,53.4-58.7,91.8-113.7,97.5
		c-32.7,3.4-62.7-4.8-89.7-23.7c-1.8-1.3-2.5-2.3-1.7-4.7c2.3-7.3-1-15-7.6-18.8c-6.5-3.7-14.7-2.7-20,2.5
		c-5.4,5.3-6.6,13.6-2.8,20.2c3.8,6.6,11.6,9.9,18.8,7.7c2.1-0.6,3.5-0.4,5.2,0.9c17.9,13.2,37.8,21.7,59.7,25.5
		c5.4,0.9,10.8,1.5,16.2,2.2c5.8,0,11.5,0,17.3,0c5.2-0.7,10.5-1.3,15.6-2.2c29.8-5.2,55.4-18.7,76.7-40.2
		c22.3-22.5,35.5-49.5,40-80.9c0.5-3.4,0.8-6.8,1.3-10.1c0-5.9,0-11.9,0-17.8C398.3,246.3,398.1,245.5,398,244.7z"/>
	<path class="st1" d="M135.6,308.4c-12.8-29.8-14.6-60.2-5.1-91.1C155,138,246.4,101.2,319.2,141.1c4.7,2.6,9.1,5.6,12.9,7.9
		c-0.6,3.9-1.6,7.1-1.5,10.2c0.1,9.4,8.4,16.4,18.2,15.6c8.8-0.7,15.9-9.2,14.9-17.9c-1.1-9.7-9.4-16.5-18.7-15
		c-2.4,0.4-4.1-0.1-6.1-1.5c-30.7-21.7-64.9-30.3-102.1-25.4c-28.6,3.7-53.8,15.4-75.4,34.7c-24.5,21.9-39.9,49.1-45.7,81.5
		c-1,5.3-1.5,10.6-2.2,15.9c0,5.9,0,11.9,0,17.8c0.2,0.8,0.4,1.6,0.5,2.4c0.8,11.4,3.1,22.5,6.8,33.4c1.6,4.8,3.6,9.5,5.6,14.2
		c1.2,2.8,4,3.9,6.7,3c2.7-0.9,4.4-3.5,3.8-6.3C136.6,310.5,136.1,309.4,135.6,308.4z"/>
	<path class="st1" d="M256.3,150.4c-58.4-0.3-105.9,46.8-106.1,105.3c-0.2,58,47.1,105.6,105.4,105.8c58.3,0.3,106-47.1,106.1-105.3
		C361.9,198.1,314.6,150.7,256.3,150.4z M247,163.6c0.8-0.6,2-0.8,3.3-1.2c0,18.3,0,36.3,0,54.6c-11.6,0-23,0-35,0
		c1.9-6.3,3.6-12.4,5.7-18.4c3.4-9.6,7.8-18.9,15-26.3C239.2,168.9,243.3,166.4,247,163.6z M225.3,166.9
		c-11.3,14.9-17.2,32-21.2,50.1c-11.3,0-22.6,0-34.4,0C181.6,192.5,199.9,175.9,225.3,166.9z M165.5,228.4c12.2,0,24.3,0,36.7,0
		c-2.5,18.5-2.5,36.8,0,55.3c-12.3,0-24.3,0-36.7,0C160,265.2,160,246.8,165.5,228.4z M169.8,295c11.7,0,23,0,34.4,0
		c3.9,18,9.8,35.2,21.2,50.1C200,336.2,181.6,319.5,169.8,295z M250.2,349.5c-4.7-1.2-8.3-3.8-11.6-6.9
		c-8.2-7.8-13.3-17.5-17.1-27.9c-2.3-6.4-4.1-12.9-6.3-19.7c12.1,0,23.4,0,35,0C250.2,313.1,250.2,331.2,250.2,349.5z M250.3,283.6
		c-12.3,0-24.4,0-36.7,0c-2.8-18.4-2.8-36.8,0-55.3c12.3,0,24.4,0,36.8,0C250.3,246.9,250.3,265.2,250.3,283.6z M261.7,162.5
		c4.7,1.1,8.4,3.8,11.6,6.9c8.2,7.8,13.3,17.5,17.1,27.9c2.3,6.4,4.1,12.9,6.3,19.7c-12.1,0-23.5,0-35,0
		C261.7,198.9,261.7,180.8,261.7,162.5z M298.4,228.3c2.8,18.4,2.8,36.8,0,55.3c-12.3,0-24.4,0-36.7,0c0-18.3,0-36.7,0-55.3
		C274,228.3,286.1,228.3,298.4,228.3z M261.6,349.6c0-18.4,0-36.3,0-54.5c11.4,0,22.9,0,34.9,0c-1.4,4.9-2.6,9.8-4.2,14.5
		c-3.7,11.1-8.5,21.7-16.5,30.5C272,344.4,267.6,347.8,261.6,349.6z M286.6,345.1c5.6-7.4,10.2-15.2,13.3-23.8
		c3.1-8.6,5.7-17.4,8.6-26.3c10.7,0,22,0,33.8,0C330.4,319.5,312,336.2,286.6,345.1z M346.5,283.6c-12.1,0-24.2,0-36.7,0
		c2.4-18.4,2.5-36.7,0-55.3c12.4,0,24.5,0,36.7,0C352,246.7,352,265.1,346.5,283.6z M307.9,217c-4-18-9.8-35.2-21.5-50
		c17.9,2.2,48.5,29.6,55.5,50C330.5,217,319.3,217,307.9,217z"/>
</g>
</svg>
