<?xml version="1.0" encoding="utf-8"?>
<!-- Generator: Adobe Illustrator 25.2.0, SVG Export Plug-In . SVG Version: 6.00 Build 0)  -->
<svg version="1.1" id="Layer_1" xmlns="http://www.w3.org/2000/svg" xmlns:xlink="http://www.w3.org/1999/xlink" x="0px" y="0px"
	 viewBox="0 0 512 512" style="enable-background:new 0 0 512 512;" xml:space="preserve">
<style type="text/css">
	.st0{fill:url(#SVGID_1_);}
	.st1{fill:#FFFFFF;}
</style>
<linearGradient id="SVGID_1_" gradientUnits="userSpaceOnUse" x1="-1.453072e-07" y1="256" x2="512" y2="256">
	<stop  offset="0" style="stop-color:#34D8B7"/>
	<stop  offset="0.2551" style="stop-color:#2ED5BA"/>
	<stop  offset="0.5888" style="stop-color:#1ECBC3"/>
	<stop  offset="0.9648" style="stop-color:#03BCD2"/>
	<stop  offset="1" style="stop-color:#00BAD4"/>
</linearGradient>
<path class="st0" d="M256,0L256,0C114.6,0,0,114.6,0,256v0c0,141.4,114.6,256,256,256h0c141.4,0,256-114.6,256-256v0
	C512,114.6,397.4,0,256,0z"/>
<g>
	<path class="st1" d="M386.3,255.8c0-8.2-5.6-15.2-13.6-17.2c-2.4-0.6-5-0.6-7.6-0.7c-4.5-0.1-9,0-13.7,0c0-1.4,0-2.5,0-3.6
		c0-27.4,0-54.8,0-82.3c0-2,0-4.1-0.4-6.1c-1.9-8.7-9.2-14.3-18.3-14.3c-37.4,0-74.9,0-112.3,0c-0.6,0-1.2,0-1.8,0
		c-2.6,0.3-4.4,2.4-4.4,5.1c0,3.3,2.3,5.1,6.5,5.1c36.9,0,73.9,0,110.8,0c6.8,0,9.7,2.9,9.7,9.8c0,19.8,0,39.6,0,59.3
		c0,0.8-0.1,1.6-0.1,2.8c-1-0.7-1.7-1.1-2.4-1.6c-7.8-5.6-15.6-11.1-23.4-16.7c-3.3-2.4-5-2.3-8.2,0.1c-3,2.2-5.9,4.5-8.9,6.8
		c-6.6,5-13.2,10-19.9,15.1c-0.9-0.7-1.6-1.3-2.3-1.9c-14.7-12.3-29.5-24.6-44.2-36.8c-3.4-2.9-5.3-2.8-8.7,0
		c-15.4,12.5-30.7,24.9-46.1,37.4c-3.4,2.7-6.8,5.5-10.4,8.4c-0.1-0.8-0.2-1.1-0.2-1.4c0-24.4,0-48.7,0-73.1c0-4.4,3.1-7.6,7.6-8.1
		c3.6-0.4,5.7-2.4,5.5-5.4c-0.2-3.1-2.7-5-6.3-4.8c-9.2,0.4-17,8.4-17,17.8c-0.1,32.9,0,65.7,0,98.6c0,4.6,1.7,8.6,4.8,12
		c4.1,4.4,9.2,6,15.1,6c18,0,36,0,54,0c1,0,1.9,0,2.9,0c0,5.1,0,9.7,0,14.6c-1.2,0-2.3,0-3.4,0c-28.2,0-56.4,0-84.6,0
		c-8.2,0-14.3,3.5-17.9,11.1c-0.7,1.4-1,3-1.5,4.5c0,22.9,0,45.8,0,68.8c0.3,0.9,0.7,1.9,1,2.8c2.5,7.3,9.2,12.4,16.9,12.4
		c32.6,0.1,65.2,0,97.8,0c3.8,0,7.2-1.2,10.2-3.4c4.9-3.6,7.5-8.5,7.6-14.6c0.1-6,0-12,0-18.2c1.2,0,2.1,0,3.1,0
		c6.8,0,13.6,0,20.4,0c13.1,0,26.1,0,39.2,0c3.6,0,6-2.2,5.9-5.3c-0.1-3-2.4-4.9-5.9-4.9c-0.8,0-1.5,0-2.3,0c-19,0-38,0-57,0
		c-1,0-2,0-3.3,0c0-1.2,0-2.1,0-3c0-10.7,0.1-21.4,0-32.1c-0.1-7.8-5.2-14.7-12.5-17.2c-1-0.3-2.1-0.6-3.3-0.9c0-7.8,0-15.5,0-23.2
		c0-6.1,3.1-9.3,9.2-9.3c5.2,0,10.4,0,15.5,0c32.6,0,65.2,0,97.8,0c7.5,0,10.4,2.8,10.4,10.2c0,22.2,0,44.3,0,66.5
		c0,5.5-3,8.7-8.5,9.1c-3.5,0.2-5.6,2.3-5.4,5.4c0.2,2.9,2.4,4.8,5.8,4.8c9.9,0,18.2-8,18.2-17.9
		C386.5,302.7,386.4,279.3,386.3,255.8z M248.9,300.6c0,20,0,40,0,60.1c0,6.4-3.1,9.5-9.5,9.5c-15.7,0-31.4,0-47.1,0
		c-15.8,0-31.6,0-47.3,0c-5.9,0-9.2-3.2-9.2-9.1c0-20.4,0-40.7,0-61.1c0-5.9,3.2-9.1,9.1-9.1c31.5,0,63,0,94.4,0
		C246,290.8,248.9,293.9,248.9,300.6z M283.3,237.9c-9.4,0-18.9,0.3-28.3-0.1c-11.6-0.5-20.4,5.5-22.1,18c-1,0-1.8,0-2.7,0
		c-18.1,0-36.2,0-54.2,0c-6.7,0-9.3-3-9.8-9.6c-0.5-6.1,1.5-9.9,6.4-13.8c18.4-14.3,36.4-29.3,54.7-44.1
		c19.6,16.3,39.2,32.6,59.3,49.4C285,237.8,284.2,237.9,283.3,237.9z M341.2,237.6c-0.6,0.1-0.9,0.2-1.3,0.2c-12,0-23.9,0-35.9,0
		c-0.8,0-1.7-0.3-2.3-0.8c-5.1-4.2-10.2-8.4-15.5-12.9c8.4-6.4,16.7-12.7,25.1-19c4.1,2.9,8.2,5.8,12.2,8.7
		c5.4,3.8,10.8,7.6,16.1,11.6c0.8,0.6,1.4,1.9,1.5,2.8C341.3,231.4,341.2,234.5,341.2,237.6z"/>
	<path class="st1" d="M349,276.7c-0.5-0.2-1.1-1.2-1.1-1.8c-0.1-3.9,0-7.8-0.1-11.7c-0.1-4-2.5-6.1-6.5-5.5
		c-5.7,0.9-11.4,1.9-17.1,2.7c-14.3,2-28.5,5.5-43.1,4.9c-5.6-0.3-10.2,4.8-10.4,10.5c-0.1,4.6-0.1,9.2,0,13.7
		c0.1,6.7,4.7,11.3,11.4,11.4c2.5,0,5,0,7.7,0c0.1,1.1,0.1,1.9,0.1,2.7c0,5,0,10,0,15c0,3.9,1.8,5.7,5.8,5.8c4.1,0.1,8.1,0,12.2,0
		c4.4,0,5.6-0.9,7-5.1c1.5-4.7,3-9.5,4.6-14.4c7.1,1.1,14,2.2,21,3.3c4.9,0.8,7.2-1.1,7.2-6.1c0-4.9,0-9.8,0-14.7
		c0.4-0.3,0.5-0.4,0.5-0.4c3.9-0.9,5.4-2.2,5.5-4.9C354,279.3,352.8,278,349,276.7z M289.8,290.5c-8.9,0.9-8.9,0.9-8.9-7.6
		c0-0.6,0-1.2,0-1.8c0-5.8,0-5.8,5.9-5.8c0.9,0,1.9,0,3,0C289.8,280.4,289.8,285.4,289.8,290.5z M306.1,313.3
		c-0.2,0.4-1.2,0.7-1.8,0.8c-1.2,0.1-2.5,0-3.9,0c0-4.2,0-8.1,0-12.4c3,0.5,5.8,0.9,9,1.4C308.3,306.7,307.3,310.1,306.1,313.3z
		 M337.5,297.3c-7.2-1.1-14.2-2.2-21.2-3.3c-4.8-0.8-9.5-1.5-14.3-2.3c-0.6-0.1-1.6-0.8-1.7-1.3c-0.1-5.2-0.1-10.5-0.1-15.8
		c12.5-2,24.8-3.9,37.3-5.9C337.5,278.2,337.5,287.6,337.5,297.3z"/>
	<path class="st1" d="M295.5,170.4c0.1-9.6-7.8-17.5-17.4-17.5c-9.6-0.1-17.5,7.7-17.5,17.4c0,9.7,7.7,17.5,17.4,17.5
		C287.6,187.8,295.5,180.1,295.5,170.4z M270.8,170.2c0.1-4,3.3-7.2,7.4-7.1c4,0.1,7.2,3.4,7.1,7.4c-0.1,4-3.4,7.2-7.4,7.1
		C273.9,177.5,270.7,174.2,270.8,170.2z"/>
	<path class="st1" d="M197.3,141.9c2.8,0,5.2-2.5,5.1-5.3c-0.1-2.8-2.5-5-5.2-4.9c-2.9,0.1-4.9,2.3-4.9,5.1
		C192.3,139.6,194.5,141.9,197.3,141.9z"/>
	<path class="st1" d="M344.9,333.9c-2.8,0-5.1,2.1-5.2,4.9c-0.1,2.8,2.3,5.2,5.1,5.2c2.8,0,5-2.2,5-5
		C349.8,336,347.7,333.9,344.9,333.9z"/>
	<path class="st1" d="M211.4,323.9c-9.5-5.1-19.1-10.3-28.7-15.4c-4.8-2.6-8.5-0.4-8.6,5c0,5.5,0,11,0,16.5c0,5.5,0,11,0,16.5
		c0,2.4,0.4,4.6,2.8,5.8c2.2,1.2,4.2,0.5,6.2-0.8c9.5-5.8,19.1-11.6,28.6-17.4C216.9,331.1,216.8,326.8,211.4,323.9z M184.5,338.9
		c0-6.1,0-11.8,0-17.8c5.3,2.8,10.3,5.5,15.6,8.4C194.6,332.8,189.7,335.8,184.5,338.9z"/>
</g>
</svg>
