<?xml version="1.0" encoding="utf-8"?>
<!-- Generator: Adobe Illustrator 25.2.0, SVG Export Plug-In . SVG Version: 6.00 Build 0)  -->
<svg version="1.1" id="Layer_1" xmlns="http://www.w3.org/2000/svg" xmlns:xlink="http://www.w3.org/1999/xlink" x="0px" y="0px"
	 viewBox="0 0 512 512" style="enable-background:new 0 0 512 512;" xml:space="preserve">
<style type="text/css">
	.st0{fill:url(#SVGID_1_);}
	.st1{fill:#FFFFFF;}
</style>
<linearGradient id="SVGID_1_" gradientUnits="userSpaceOnUse" x1="-1.453072e-07" y1="256" x2="512" y2="256">
	<stop  offset="0" style="stop-color:#34D8B7"/>
	<stop  offset="0.2551" style="stop-color:#2ED5BA"/>
	<stop  offset="0.5888" style="stop-color:#1ECBC3"/>
	<stop  offset="0.9648" style="stop-color:#03BCD2"/>
	<stop  offset="1" style="stop-color:#00BAD4"/>
</linearGradient>
<path class="st0" d="M256,0L256,0C114.6,0,0,114.6,0,256v0c0,141.4,114.6,256,256,256h0c141.4,0,256-114.6,256-256v0
	C512,114.6,397.4,0,256,0z"/>
<path class="st1" d="M212.7,142c0.6-0.1,0.9-0.3,1.3-0.3c16.7,0.1,33.4-0.6,50,0.5c30.9,2.1,54.2,17.2,70.1,43.6
	c8,13.2,11.5,27.8,11.6,43.2c0.1,14.8,0,29.5,0,44.3c0,0.5-0.1,1-0.1,1.8c-3.4,0-6.8,0-10.5,0c0,43.2,0,86.1,0,129.1
	c-23.6,0-46.9,0-70.4,0c0-42.9,0-85.7,0-128.9c-3.6,0-6.9,0-10.6,0c0-13.9,0-27.4,0-41.4c-13.9,0-27.6,0-41.5,0c0-3.9,0-7.4,0-11.2
	c-43.1,0-86,0-129,0c0-23.5,0-46.7,0-70.4c42.9,0,85.8,0,129,0C212.7,148.7,212.7,145.4,212.7,142z M329.5,258.3c0-1.1,0-2,0-2.9
	c0-8,0.3-16.1-0.1-24.1c-0.3-6.1-0.7-12.2-2-18.2c-6.7-29.8-33.3-52.5-63.8-54.3c-11-0.6-22-0.3-33-0.4c-0.3,0-0.6,0.2-0.9,0.3
	c0,19.4,0,38.8,0,58.4c1.1,0,2,0,3,0c7.5,0,15,0,22.5,0c11.1,0,15.7,4.6,15.7,15.8c0,7.5,0,15,0,22.5c0,0.9,0,1.9,0,2.9
	C290.5,258.3,309.8,258.3,329.5,258.3z M100.4,205.9c37.5,0,74.8,0,112.1,0c0-12.2,0-24.3,0-36.5c-37.5,0-74.8,0-112.1,0
	C100.4,181.6,100.4,193.7,100.4,205.9z M282.1,275.4c0,37.4,0,74.7,0,112.1c12.3,0,24.3,0,36.5,0c0-37.4,0-74.7,0-112.1
	C306.4,275.4,294.3,275.4,282.1,275.4z"/>
</svg>
