<?xml version="1.0" encoding="utf-8"?>
<!-- Generator: Adobe Illustrator 25.2.0, SVG Export Plug-In . SVG Version: 6.00 Build 0)  -->
<svg version="1.1" id="Layer_1" xmlns="http://www.w3.org/2000/svg" xmlns:xlink="http://www.w3.org/1999/xlink" x="0px" y="0px"
	 viewBox="0 0 512 512" style="enable-background:new 0 0 512 512;" xml:space="preserve">
<style type="text/css">
	.st0{fill:url(#SVGID_1_);}
	.st1{fill:#FFFFFF;}
</style>
<linearGradient id="SVGID_1_" gradientUnits="userSpaceOnUse" x1="-1.453072e-07" y1="256" x2="512" y2="256">
	<stop  offset="0" style="stop-color:#34D8B7"/>
	<stop  offset="0.2551" style="stop-color:#2ED5BA"/>
	<stop  offset="0.5888" style="stop-color:#1ECBC3"/>
	<stop  offset="0.9648" style="stop-color:#03BCD2"/>
	<stop  offset="1" style="stop-color:#00BAD4"/>
</linearGradient>
<path class="st0" d="M256,0L256,0C114.6,0,0,114.6,0,256v0c0,141.4,114.6,256,256,256h0c141.4,0,256-114.6,256-256v0
	C512,114.6,397.4,0,256,0z"/>
<g>
	<path class="st1" d="M392.7,349.3c-4.5-23-9-46-13.7-68.9c-1.5-7.4-8.4-11.9-16-10.4c-22.7,4.5-45.4,9-68.1,13.6
		c-8,1.6-12.8,8.7-11.2,16.3c1.6,7.6,8.8,12.1,16.8,10.5c12.9-2.5,25.7-5.1,39.3-7.8c-0.7,1.3-1.1,2.1-1.5,2.8
		c-24.4,40.7-75.3,57.5-119,39.2c-24.5-10.3-41.8-27.9-52.2-52.3c-3.2-7.6-11-10.8-18.2-7.8c-7,3-10.2,10.8-7.2,18.2
		c21.4,52.5,76.1,84.7,134.7,75c34.5-5.7,61.7-23.6,81.7-52.3c0.4-0.5,0.8-1,1.5-1.8c0.3,1.2,0.5,2,0.7,2.9
		c1.9,9.4,3.7,18.9,5.7,28.2c1.7,7.7,8.7,12.3,16,10.8C389.4,363.9,394.2,357,392.7,349.3z"/>
	<path class="st1" d="M148.6,242c11.8-2.2,23.5-4.6,35.2-6.9c11.2-2.2,22.5-4.4,33.7-6.8c7.6-1.6,12.2-8.8,10.6-16.2
		c-1.6-7.5-8.7-12.1-16.5-10.6c-5,1-10,2-15,3c-8,1.6-16.1,3.2-24.5,4.9c0.6-1.2,1-2,1.4-2.7c23.7-40,74.1-57.3,117.3-40.1
		c25.3,10.1,43.2,27.9,54,52.9c3.3,7.8,11.1,11,18.4,7.9c7.1-3.1,10-10.9,6.9-18.6C337.5,129.5,234.5,107,172,165.7
		c-7.2,6.7-13.3,14.6-19.8,21.9c-0.1-0.3-0.3-1-0.4-1.8c-1.9-9.3-3.6-18.7-5.6-28c-1.7-7.9-8.7-12.7-16-11.2
		c-7.8,1.6-12.4,8.4-10.8,16.5c4.4,22.8,9,45.6,13.6,68.4C134.4,238.8,141.3,243.3,148.6,242z"/>
</g>
</svg>
