<?xml version="1.0" encoding="utf-8"?>
<!-- Generator: Adobe Illustrator 25.2.0, SVG Export Plug-In . SVG Version: 6.00 Build 0)  -->
<svg version="1.1" id="Layer_1" xmlns="http://www.w3.org/2000/svg" xmlns:xlink="http://www.w3.org/1999/xlink" x="0px" y="0px"
	 viewBox="0 0 512 512" style="enable-background:new 0 0 512 512;" xml:space="preserve">
<style type="text/css">
	.st0{fill:url(#SVGID_1_);}
	.st1{fill:#FFFFFF;}
</style>
<linearGradient id="SVGID_1_" gradientUnits="userSpaceOnUse" x1="-1.453072e-07" y1="256" x2="512" y2="256">
	<stop  offset="0" style="stop-color:#34D8B7"/>
	<stop  offset="0.2551" style="stop-color:#2ED5BA"/>
	<stop  offset="0.5888" style="stop-color:#1ECBC3"/>
	<stop  offset="0.9648" style="stop-color:#03BCD2"/>
	<stop  offset="1" style="stop-color:#00BAD4"/>
</linearGradient>
<path class="st0" d="M256,0L256,0C114.6,0,0,114.6,0,256v0c0,141.4,114.6,256,256,256h0c141.4,0,256-114.6,256-256v0
	C512,114.6,397.4,0,256,0z"/>
<path class="st1" d="M261.8,264.5c-12.6,12.6-25,25.2-37.7,37.6c-12,11.8-26.4,18.3-43.3,18c-29.8-0.5-51.3-27.8-45.5-57.5
	c2.4-12.4,8.1-23.3,17.1-32.3c24.8-24.8,49.5-49.6,74.3-74.3c1.4-1.4,1.8-2.4,1-4.4c-5.2-12.8-0.9-27,10.6-35.4
	c11-8.1,25.8-7.6,36.6,1.1c10.2,8.3,14.1,21.1,10.2,33c-4,12.1-15.2,20.8-27.7,21c-4.2,0.1-8.4-1.3-12.5-2.3
	c-1.3-0.3-2.1-0.5-3.1,0.5c-25.1,25.2-50.3,50.3-75.4,75.6c-5.8,5.8-9.3,13-11.1,20.9c-4.6,21.4,14.7,38.8,35.8,32.3
	c7.6-2.3,14.3-6.3,20-12c25.5-25.6,51.1-51.2,76.7-76.7c11.9-11.9,26.4-18.4,43.3-18.1c29.7,0.4,51.2,27.5,45.6,57.1
	c-2.4,12.6-8,23.5-17.1,32.5c-24.9,25-49.9,49.9-74.8,74.8c-0.8,0.8-1.6,1.4-1,3c5.6,13.9,1.5,28-10.3,36.5
	c-11.4,8.2-25.8,7.5-37.1-1.7c-10.6-8.6-14-23.3-8.2-35.7c5.9-12.7,19.4-19.9,32.7-17.4c1.7,0.3,3.5,0.6,5,1.4
	c2.4,1.4,3.8,0.5,5.6-1.3c24.3-24.4,48.7-48.8,73.1-73.2c6.8-6.8,11.1-15,12.5-24.5c2.6-18-13-33.6-31-31
	c-9.5,1.4-17.6,5.7-24.4,12.4C288.3,237.8,275.1,251.2,261.8,264.5z M248.8,134c-4.3,4.3-4.3,10.1,0,14.4c4.3,4.2,10.1,4.2,14.4,0
	c4.2-4.2,4.2-10.1,0-14.4C258.9,129.7,253.1,129.7,248.8,134z M263.1,378c4.3-4.3,4.4-10.1,0.1-14.4c-4.2-4.3-10.1-4.3-14.4-0.1
	c-4.3,4.2-4.3,10.1-0.1,14.4C253,382.2,258.8,382.3,263.1,378z"/>
</svg>
