<svg id="Layer_1" data-name="Layer 1" xmlns="http://www.w3.org/2000/svg" xmlns:xlink="http://www.w3.org/1999/xlink" viewBox="0 0 512 512"><defs><style>.cls-1{fill:#34d8b7;}.cls-2{fill:url(#linear-gradient);}</style><linearGradient id="linear-gradient" x1="-19.60739" y1="415.12309" x2="531.60866" y2="96.87835" gradientUnits="userSpaceOnUse"><stop offset="0" stop-color="#34d8b7"/><stop offset="0.2551" stop-color="#2ed5ba"/><stop offset="0.58884" stop-color="#1ecbc3"/><stop offset="0.96476" stop-color="#03bcd2"/><stop offset="1" stop-color="#00bad4"/></linearGradient></defs><path class="cls-1" d="M161.17871,0H81.2852A77.97484,77.97484,0,0,0,3.3887,77.884v79.91224a77.97484,77.97484,0,0,0,77.8965,77.884h79.89351a77.97484,77.97484,0,0,0,77.8965-77.884V77.884A77.97484,77.97484,0,0,0,161.17871,0ZM214.699,157.79625a53.56749,53.56749,0,0,1-53.5203,53.50157H81.2852a53.56749,53.56749,0,0,1-53.5203-53.50157V77.884A53.56348,53.56348,0,0,1,81.2852,24.38244h79.89351A53.56348,53.56348,0,0,1,214.699,77.884Z"/><path class="cls-1" d="M430.72729,0H350.80881a77.96953,77.96953,0,0,0-77.87153,77.884v79.91224a77.96953,77.96953,0,0,0,77.87153,77.884h79.91848a77.97218,77.97218,0,0,0,77.884-77.884V77.884A77.97218,77.97218,0,0,0,430.72729,0ZM484.2351,157.79625a53.56484,53.56484,0,0,1-53.50781,53.50157H350.80881a53.56219,53.56219,0,0,1-53.49534-53.50157V77.884a53.55818,53.55818,0,0,1,53.49534-53.50157h79.91848A53.56083,53.56083,0,0,1,484.2351,77.884Z"/><path class="cls-1" d="M161.17871,276.31974H81.2852a77.97484,77.97484,0,0,0-77.8965,77.884V434.116A77.97484,77.97484,0,0,0,81.2852,512h79.89351a77.97484,77.97484,0,0,0,77.8965-77.884V354.20375A77.97484,77.97484,0,0,0,161.17871,276.31974ZM214.699,434.116a53.56348,53.56348,0,0,1-53.5203,53.50157H81.2852A53.56348,53.56348,0,0,1,27.7649,434.116V354.20375a53.56749,53.56749,0,0,1,53.5203-53.50157h79.89351a53.56749,53.56749,0,0,1,53.5203,53.50157Z"/><path class="cls-1" d="M430.72729,276.31974H350.80881a77.96953,77.96953,0,0,0-77.87153,77.884V434.116A77.96953,77.96953,0,0,0,350.80881,512h79.91848a77.97218,77.97218,0,0,0,77.884-77.884V354.20375A77.97218,77.97218,0,0,0,430.72729,276.31974ZM484.2351,434.116a53.56083,53.56083,0,0,1-53.50781,53.50157H350.80881A53.55818,53.55818,0,0,1,297.31347,434.116V354.20375a53.56219,53.56219,0,0,1,53.49534-53.50157h79.91848a53.56484,53.56484,0,0,1,53.50781,53.50157Z"/><path class="cls-2" d="M161.17871,0H81.2852A77.97484,77.97484,0,0,0,3.3887,77.884v79.91224a77.97484,77.97484,0,0,0,77.8965,77.884h79.89351a77.97484,77.97484,0,0,0,77.8965-77.884V77.884A77.97484,77.97484,0,0,0,161.17871,0ZM214.699,157.79625a53.56749,53.56749,0,0,1-53.5203,53.50157H81.2852a53.56749,53.56749,0,0,1-53.5203-53.50157V77.884A53.56348,53.56348,0,0,1,81.2852,24.38244h79.89351A53.56348,53.56348,0,0,1,214.699,77.884Z"/><path class="cls-2" d="M430.72729,0H350.80881a77.96953,77.96953,0,0,0-77.87153,77.884v79.91224a77.96953,77.96953,0,0,0,77.87153,77.884h79.91848a77.97218,77.97218,0,0,0,77.884-77.884V77.884A77.97218,77.97218,0,0,0,430.72729,0ZM484.2351,157.79625a53.56484,53.56484,0,0,1-53.50781,53.50157H350.80881a53.56219,53.56219,0,0,1-53.49534-53.50157V77.884a53.55818,53.55818,0,0,1,53.49534-53.50157h79.91848A53.56083,53.56083,0,0,1,484.2351,77.884Z"/><path class="cls-2" d="M161.17871,276.31974H81.2852a77.97484,77.97484,0,0,0-77.8965,77.884V434.116A77.97484,77.97484,0,0,0,81.2852,512h79.89351a77.97484,77.97484,0,0,0,77.8965-77.884V354.20375A77.97484,77.97484,0,0,0,161.17871,276.31974ZM214.699,434.116a53.56348,53.56348,0,0,1-53.5203,53.50157H81.2852A53.56348,53.56348,0,0,1,27.7649,434.116V354.20375a53.56749,53.56749,0,0,1,53.5203-53.50157h79.89351a53.56749,53.56749,0,0,1,53.5203,53.50157Z"/><path class="cls-2" d="M430.72729,276.31974H350.80881a77.96953,77.96953,0,0,0-77.87153,77.884V434.116A77.96953,77.96953,0,0,0,350.80881,512h79.91848a77.97218,77.97218,0,0,0,77.884-77.884V354.20375A77.97218,77.97218,0,0,0,430.72729,276.31974ZM484.2351,434.116a53.56083,53.56083,0,0,1-53.50781,53.50157H350.80881A53.55818,53.55818,0,0,1,297.31347,434.116V354.20375a53.56219,53.56219,0,0,1,53.49534-53.50157h79.91848a53.56484,53.56484,0,0,1,53.50781,53.50157Z"/></svg>