<?xml version="1.0" encoding="utf-8"?>
<!-- Generator: Adobe Illustrator 24.3.0, SVG Export Plug-In . SVG Version: 6.00 Build 0)  -->
<svg version="1.1" id="Layer_1" xmlns="http://www.w3.org/2000/svg" xmlns:xlink="http://www.w3.org/1999/xlink" x="0px" y="0px"
	 viewBox="0 0 512 72.6" style="enable-background:new 0 0 512 72.6;" xml:space="preserve">
<style type="text/css">
	.st0{fill:#FFFFFF;}
	.st1{fill:#34D8B7;}
</style>
<g>
	<path class="st0" d="M84,1.9h17L81,70.6H63.6L50.6,29l-13,41.6H20.2L0,1.9h18.7l11.8,42.2L43,1.9h16.8l12.5,42.3L84,1.9z"/>
	<path class="st0" d="M186.1,1.9h-20.5l24.1,33.6l-25.2,35.1H185l14.9-20.8l14.9,20.8h20.5L186.1,1.9z"/>
	<path class="st0" d="M265.1,72.6c-10.4,0-19-3.5-25.9-10.4c-6.9-7-10.4-15.6-10.4-25.8c0-10.3,3.5-18.9,10.4-25.8
		c6.9-7,15.6-10.4,25.9-10.4c6.7,0,12.8,1.6,18.3,4.8c5.5,3.2,9.7,7.5,12.5,12.9l-15.3,8.9c-1.4-2.8-3.5-5.1-6.3-6.7
		c-2.8-1.6-5.9-2.5-9.4-2.5c-5.3,0-9.7,1.8-13.2,5.3c-3.5,3.5-5.2,8-5.2,13.5c0,5.4,1.7,9.9,5.2,13.4c3.5,3.5,7.9,5.3,13.2,5.3
		c3.6,0,6.8-0.8,9.6-2.4c2.8-1.6,4.9-3.8,6.3-6.7l15.4,8.8c-3,5.4-7.3,9.7-12.8,13C277.9,70.9,271.8,72.6,265.1,72.6z"/>
	<path class="st0" d="M356.1,62.1c-7.1,7-15.7,10.5-25.8,10.5c-10.2,0-18.8-3.5-25.8-10.5c-7-7-10.5-15.6-10.5-25.8
		c0-10.2,3.5-18.8,10.5-25.8c7-7,15.6-10.5,25.8-10.5c10.2,0,18.8,3.5,25.8,10.5c7.1,7,10.6,15.6,10.6,25.8
		C366.7,46.5,363.2,55,356.1,62.1z M317,49.9c3.5,3.6,7.9,5.4,13.3,5.4c5.3,0,9.8-1.8,13.3-5.4s5.4-8.1,5.4-13.6
		c0-5.5-1.8-10-5.4-13.6s-8-5.4-13.3-5.4c-5.3,0-9.7,1.8-13.3,5.4c-3.5,3.6-5.3,8.1-5.3,13.6C311.7,41.8,313.5,46.3,317,49.9z"/>
	<path class="st0" d="M448.3,0c7.9,0,14.2,2.6,18.9,7.7c4.7,5.1,7.1,12,7.1,20.6v42.3h-17.7V29.5c0-4.1-1-7.3-3-9.6
		c-2-2.3-4.9-3.4-8.5-3.4c-4,0-7.2,1.3-9.4,4c-2.2,2.7-3.4,6.5-3.4,11.5v38.6h-17.7V29.5c0-4.1-1-7.3-3-9.6c-2-2.3-4.9-3.4-8.5-3.4
		c-3.9,0-7.1,1.3-9.4,4c-2.3,2.7-3.5,6.5-3.5,11.5v38.6h-17.7V1.9h17.7v7.3c4.1-6.1,10.5-9.2,19.1-9.2c8.4,0,14.7,3.3,18.7,9.9
		C432.4,3.3,439.3,0,448.3,0z"/>
	<path class="st0" d="M168.9,41.6h-51.4c0.4,5.1,2.2,9.1,5.3,11.9c3.1,2.9,7,4.3,11.5,4.3c6.6,0,11.3-2.8,14.1-8.5h19.2
		c-2,6.8-5.9,12.3-11.7,16.7c-5.8,4.4-12.8,6.5-21.2,6.5c-6.8,0-12.8-1.5-18.2-4.5c-5.4-3-9.6-7.3-12.6-12.8c-3-5.5-4.5-11.8-4.5-19
		c0-7.3,1.5-13.7,4.4-19.2c3-5.5,7.1-9.7,12.4-12.7c5.3-3,11.5-4.4,18.4-4.4c6.7,0,12.7,1.4,18,4.3c5.3,2.9,9.4,7,12.3,12.2
		c2.9,5.3,4.4,11.4,4.4,18.2C169.4,37.3,169.2,39.6,168.9,41.6z M151,29.7c-0.1-4.6-1.7-8.2-4.9-11c-3.2-2.7-7.1-4.1-11.8-4.1
		c-4.4,0-8.1,1.3-11.1,4c-3,2.7-4.8,6.4-5.5,11.1H151z"/>
	<polygon class="st1" points="234.2,1.9 193.9,1.9 214.4,32 	"/>
	<circle class="st1" cx="496.2" cy="54.9" r="15.8"/>
</g>
</svg>
