<svg id="Layer_1" data-name="Layer 1" xmlns="http://www.w3.org/2000/svg" viewBox="0 0 512 512"><defs><style>.cls-1,.cls-2{fill:#383838;}.cls-2{fill-rule:evenodd;}</style></defs><path class="cls-1" d="M144.2866,214.1097a51.52239,51.52239,0,0,0,1.87315,15.15544,91.14852,91.14852,0,0,0,5.44914,12.26057,7.407,7.407,0,0,1,1.192,3.91658c0,1.70286-1.02171,3.40572-3.23543,5.10858l-10.728,7.152a8.16455,8.16455,0,0,1-4.42743,1.53258,7.83542,7.83542,0,0,1-5.10858-2.384,52.68116,52.68116,0,0,1-6.13027-8.00342c-1.70286-2.89486-3.40571-6.13029-5.27886-10.04687q-19.92344,23.49943-50.064,23.49945c-14.304,0-25.71316-4.08686-34.05716-12.26057S21.17,230.968,21.17,217.34513c0-14.47429,5.10858-26.224,15.496-35.07887S60.84656,168.984,78.386,168.984a134.82447,134.82447,0,0,1,18.0503,1.36228c6.30058.85143,12.77144,2.21372,19.58287,3.74629V161.66168c0-12.94172-2.72457-21.96687-8.00343-27.24573-5.44914-5.27886-14.64457-7.83315-27.75658-7.83315a77.47765,77.47765,0,0,0-18.39087,2.21371,135.6862,135.6862,0,0,0-18.39086,5.78972,48.86122,48.86122,0,0,1-5.96,2.21372,10.44488,10.44488,0,0,1-2.72457.51085c-2.384,0-3.576-1.70286-3.576-5.27886v-8.344c0-2.72458.34057-4.768,1.192-5.96a12.75075,12.75075,0,0,1,4.768-3.576,98.036,98.036,0,0,1,21.456-7.66286,103.24026,103.24026,0,0,1,26.56458-3.23543c20.264,0,35.07888,4.59772,44.61489,13.79315,9.36572,9.19543,14.13373,23.15887,14.13373,41.89031v55.1726Zm-69.136,25.88344A55.1877,55.1877,0,0,0,92.69,236.928a37.9459,37.9459,0,0,0,16.17715-10.8983,27.02885,27.02885,0,0,0,5.78972-10.89829,61.13324,61.13324,0,0,0,1.70286-14.81487v-7.152a142.20522,142.20522,0,0,0-15.6663-2.89486A128.31118,128.31118,0,0,0,84.68657,189.248c-11.40915,0-19.75315,2.21372-25.37259,6.81144S50.97,207.128,50.97,215.64225c0,8.00343,2.04343,13.96343,6.30057,18.05029C61.35741,237.94971,67.31742,239.99314,75.15056,239.99314ZM211.89007,258.384c-3.06515,0-5.10858-.51086-6.47087-1.70286-1.36229-1.02171-2.55429-3.40571-3.576-6.64115L161.826,118.40907a29.8287,29.8287,0,0,1-1.53258-6.81143c0-2.72457,1.36229-4.25715,4.08686-4.25715h16.688c3.23543,0,5.44914.51086,6.64115,1.70286,1.36229,1.02172,2.384,3.40572,3.40571,6.64115l28.608,112.7292,26.5646-112.7292c.85143-3.40572,1.87315-5.61944,3.23542-6.64115s3.74628-1.70286,6.81143-1.70286h13.62286c3.23542,0,5.44915.51086,6.81144,1.70286,1.36229,1.02171,2.55428,3.40572,3.23542,6.64115L306.90954,229.776,336.369,115.6845c1.02173-3.40572,2.21372-5.61944,3.40572-6.64115,1.36229-1.02172,3.576-1.70286,6.64113-1.70286h15.83659c2.72458,0,4.25714,1.36229,4.25714,4.25715a16.98142,16.98142,0,0,1-.34056,2.72457,24.22948,24.22948,0,0,1-1.192,4.25714L323.93812,250.21029q-1.53258,5.10857-3.576,6.64114a10.89415,10.89415,0,0,1-6.47087,1.70286H299.24665c-3.23542,0-5.44914-.51086-6.81143-1.70286s-2.55429-3.40571-3.23542-6.81143L262.80553,140.20565l-26.224,109.66407c-.85143,3.40572-1.87315,5.61944-3.23542,6.81143s-3.74628,1.70286-6.81143,1.70286Zm218.81728,4.59771a112.686,112.686,0,0,1-26.224-3.06515c-8.51429-2.04342-15.15543-4.25714-19.58287-6.81143-2.72458-1.53258-4.59771-3.23543-5.27887-4.768a12.01986,12.01986,0,0,1-1.02172-4.768v-8.68457c0-3.576,1.36229-5.27886,3.91658-5.27886a9.64261,9.64261,0,0,1,3.06515.51086c1.02172.34057,2.55428,1.02172,4.25714,1.70286a92.62525,92.62525,0,0,0,18.73144,5.96,102.26336,102.26336,0,0,0,20.264,2.04342c10.728,0,19.072-1.87314,24.86174-5.61944a18.3374,18.3374,0,0,0,8.85488-16.17715,16.58347,16.58347,0,0,0-4.59774-11.92c-3.06512-3.23544-8.85488-6.13029-17.19887-8.85487l-24.69145-7.66284c-12.43086-3.91657-21.62629-9.70629-27.24572-17.36915a40.57073,40.57073,0,0,1-8.5143-24.69145,37.89786,37.89786,0,0,1,4.59772-18.90172A43.78417,43.78417,0,0,1,397.161,114.66278a54.04657,54.04657,0,0,1,17.70971-8.85486,74.2179,74.2179,0,0,1,21.456-2.89486,85.4862,85.4862,0,0,1,11.40917.68114c3.91655.51086,7.49256,1.192,11.06857,1.87315,3.40572.85143,6.64114,1.70286,9.70632,2.72457a37.16558,37.16558,0,0,1,7.152,3.06515,14.72519,14.72519,0,0,1,5.10857,4.25714,9.17663,9.17663,0,0,1,1.53257,5.61943v8.00344c0,3.576-1.36227,5.44914-3.91656,5.44914-1.36226,0-3.576-.68114-6.47084-2.04343q-14.55947-6.64114-32.69489-6.64114c-9.70629,0-17.36915,1.53257-22.648,4.768s-8.00343,8.17372-8.00343,15.15544a16.07984,16.07984,0,0,0,5.10858,12.09029c3.40571,3.23543,9.70628,6.47085,18.73144,9.36571l24.1806,7.66287c12.2606,3.91657,21.11543,9.36572,26.3943,16.34744a38.53313,38.53313,0,0,1,7.83316,23.84,43.77645,43.77645,0,0,1-4.42744,19.75315A45.79708,45.79708,0,0,1,473.96,249.86972a54.89083,54.89083,0,0,1-18.90173,9.536A80.97479,80.97479,0,0,1,430.70735,262.98172Z"/><path class="cls-2" d="M462.89135,345.74062c-56.024,41.37946-137.42064,63.34632-207.40812,63.34632-98.08462,0-186.463-36.27088-253.215-96.55205-5.27886-4.768-.51086-11.23886,5.78971-7.49258,72.20119,41.89031,161.26066,67.26288,253.38528,67.26288,62.15432,0,130.43892-12.94173,193.27442-39.5063C464.08337,328.54177,472.08678,338.92919,462.89135,345.74062Z"/><path class="cls-2" d="M486.22053,319.176c-7.152-9.19543-47.33943-4.42743-65.56-2.21372-5.44914.68115-6.30057-4.08686-1.36229-7.66286,32.01374-22.47772,84.632-16.00687,90.76234-8.51429,6.1303,7.66286-1.70286,60.28119-31.67317,85.48347-4.59774,3.91658-9.02513,1.87316-6.98173-3.23542C478.21708,366.17492,493.3725,328.20118,486.22053,319.176Z"/></svg>