<svg id="Layer_1" data-name="Layer 1" xmlns="http://www.w3.org/2000/svg" viewBox="0 0 512 512"><defs><style>.cls-1{fill:#383838;}</style></defs><path class="cls-1" d="M330.99581,82.04835C348.85878,59.94665,360.66654,30.2761,357.63893,0c-25.73469,1.21112-57.5246,16.95473-75.69026,39.05625-16.65186,19.07391-30.88166,49.95557-27.2485,79.02055C283.76516,120.49886,312.83015,103.54431,330.99581,82.04835Z"/><path class="cls-1" d="M395.78674,272.18225c-.60555-64.79094,52.98319-95.67242,55.40524-97.48909-30.27611-44.8086-77.50675-49.65289-93.85592-50.86382-42.08368-2.422-78.11231,23.918-98.09447,23.918-20.285,0-50.864-22.70708-84.16772-22.10152-43.29479.60556-83.562,25.12913-105.66349,64.18538C23.99623,267.94352,57.60263,383.59827,101.503,447.17809,122.99912,478.66531,148.73381,513.18,182.6429,511.969c32.09278-1.21111,44.80878-20.89058,83.56216-20.89058,39.05606,0,50.25826,20.89058,84.16753,20.285,35.12021-.60556,57.22191-31.48723,78.71787-62.97426a276.15663,276.15663,0,0,0,35.12039-72.36C463.60529,375.42369,396.3923,349.689,395.78674,272.18225Z"/></svg>