<svg id="Layer_1" data-name="Layer 1" xmlns="http://www.w3.org/2000/svg" viewBox="0 0 512 512"><defs><style>.cls-1{fill:#383838;}</style></defs><path class="cls-1" d="M0,281.48007c0,36.89228,25.96132,55.74387,56.95893,55.74387A80.649,80.649,0,0,0,88.091,331.29361v-28.433A63.72061,63.72061,0,0,1,66.27657,306.746c-13.40722,0-29.17224-7.867-29.17224-24.56791,0-19.07936,14.94822-26.29216,29.76685-26.29216A80.79889,80.79889,0,0,1,88.091,259.81548V229.70993a111.98975,111.98975,0,0,0-28.21047-4.6171C26.87171,225.09283,0,245.21152,0,281.48007Z"/><path class="cls-1" d="M435.32566,225.34612A140.55,140.55,0,0,0,391.324,233.8594v27.04711a115.42376,115.42376,0,0,1,37.85895-6.63882c14.46717,0,21.40084,6.35215,21.40084,17.44019v1.758a82.75723,82.75723,0,0,0-25.7545-4.16223c-25.14975,0-42.00581,11.48892-42.00581,33.68365v.393c-.01047,21.38807,15.66162,33.09165,36.06468,33.09165a40.40615,40.40615,0,0,0,31.50419-13.472v11.09851h36.38537V272.48869c0-15.04607-2.51815-26.14228-10.641-34.08419C467.61065,229.88828,454.53428,225.30456,435.32566,225.34612ZM432.3474,312.889a11.80984,11.80984,0,0,1-13.26781-11.69082v-.3927c0-7.919,6.34429-13.26781,17.218-13.26781A37.13287,37.13287,0,0,1,450.9768,290.927C450.9768,304.67028,443.25742,312.889,432.3474,312.889Z"/><path class="cls-1" d="M338.46543,225.50647a38.8788,38.8788,0,0,0-31.42139,17.112l-1.49944,1.90522V228.37608H269.568V334.05719H305.5446V276.18557h.01047c0-12.10413,7.04231-18.86992,16.66462-18.86992,9.48781,0,15.89428,6.83026,15.89428,18.86992v57.87162h35.97174V264.10206C374.08538,240.11828,360.71416,225.50647,338.46543,225.50647Z"/><path class="cls-1" d="M211.15049,306.2705a119.81413,119.81413,0,0,0,33.67088-33.05009c13.07114-20.871,4.53463-51.29465-31.42663-51.29465-31.68516,0-55.67679,27.735-56.1886,58.75059a59.36079,59.36079,0,0,0,5.55825,26.54807c-20.93058,6.11948-24.96878-3.97079-25.68741-22.88489-.84789-22.735-1.01871-54.95783-1.01871-54.95783h-33.469v66.17284c0,13.6916,3.34542,34.97626,27.06282,39.21114,14.77249,2.64708,29.2498-.32856,48.56183-9.04342a60.37186,60.37186,0,0,0,35.02011,10.93849,81.64244,81.64244,0,0,0,45.42879-15.8092v-20.9561C244.55728,308.96962,223.94249,315.62152,211.15049,306.2705Zm.32594-53.94173h-.00033c11.01343-2.59571,20.81147,6.64929,8.53651,22.23858a86.9203,86.9203,0,0,1-20.977,18.06293C186.849,270.31971,201.84365,254.60378,211.47643,252.32877Z"/><path class="cls-1" d="M119.65283,214.61969h.0252A19.92365,19.92365,0,1,0,99.76092,194.6895v.00032A19.91078,19.91078,0,0,0,119.65283,214.61969Z"/><path class="cls-1" d="M505.43623,320.9674l-.05465.00065a6.51341,6.51341,0,1,0,.05465-.00065Zm.11127,12.15518c-.05531.00131-.11061.00164-.16592.00131a5.60777,5.60777,0,1,1,5.553-5.662v.01832A5.51626,5.51626,0,0,1,505.5475,333.12258Z"/><path class="cls-1" d="M508.38242,326.08583q.00049-.0589-.002-.1178c0-1.53576-.85837-2.19255-2.67818-2.19255h-2.78681v7.62416h1.05994v-3.29372h1.36494l2.0888,3.28095h1.12213l-2.16145-3.366A1.96433,1.96433,0,0,0,508.38242,326.08583Zm-3.09377,1.04555h-1.30277V324.7065h1.6287c.82728,0,1.737.13678,1.737,1.18659C507.3516,327.08982,506.33812,327.13138,505.28865,327.13138Z"/></svg>