<svg id="Layer_1" data-name="Layer 1" xmlns="http://www.w3.org/2000/svg" viewBox="0 0 512 512"><defs><style>.cls-1{fill:#383838;}</style></defs><path class="cls-1" d="M166.63536,281.50289l-.09354,22.43729,1.63977.28177a138.49334,138.49334,0,0,0,15.57187,2.00184,94.48677,94.48677,0,0,0,13.76428.26864,57.60778,57.60778,0,0,0,12.9169-2.43631,35.74267,35.74267,0,0,0,13.398-7.14407,27.0299,27.0299,0,0,0,7.80427-11.18661,30.79224,30.79224,0,0,0-.15573-22.5226,25.2623,25.2623,0,0,0-6.99959-9.6933,28.99747,28.99747,0,0,0-10.26286-5.97732L197.299,241.25388a9.07271,9.07271,0,0,1-4.62234-4.40161,5.76521,5.76521,0,0,1,.18928-5.134,6.706,6.706,0,0,1,1.12811-1.51977,9.1421,9.1421,0,0,1,1.72924-1.37019q.37686-.232.768-.43333a17.93024,17.93024,0,0,1,6.03221-1.7558,35.19548,35.19548,0,0,1,10.793.11395,91.823,91.823,0,0,1,12.512,2.23893l.87478.19427V208.48652l-1.61737-.34687a110.03606,110.03606,0,0,0-12.72566-2.26632,65.34291,65.34291,0,0,0-16.73362-.07125,36.17809,36.17809,0,0,0-19.26545,7.74729,25.563,25.563,0,0,0-8.22947,11.34421,31.168,31.168,0,0,0-.01927,21.09148,23.65743,23.65743,0,0,0,5.91721,8.92727,33.88087,33.88087,0,0,0,7.65676,5.549,52.7053,52.7053,0,0,0,11.64338,4.5715q2.005.59967,3.98755,1.26748l2.00393.73551c.19229.07625.38249.15354.57375.23292a14.98288,14.98288,0,0,1,5.29981,3.27037,9.38127,9.38127,0,0,1,2.3732,3.55526,7.79216,7.79216,0,0,1,.01427,3.76786,7.99941,7.99941,0,0,1-3.8737,4.64473,19.23772,19.23772,0,0,1-6.45334,2.01716,46.85224,46.85224,0,0,1-10.00455.50458,114.34773,114.34773,0,0,1-13.05211-1.74258q-3.38446-.69266-6.72708-1.57363l-.83615-.20958"/><path class="cls-1" d="M74.64249,303.1253V277.07389l-.51072.22271a48.19847,48.19847,0,0,1-18.77817,4.76681A27.62309,27.62309,0,0,1,36.45126,276.492a24.18719,24.18719,0,0,1-8.22947-11.687,28.09844,28.09844,0,0,1-.55332-15.62686,23.95755,23.95755,0,0,1,8.38-13.3645,25.11632,25.11632,0,0,1,13.16409-5.67919,43.3928,43.3928,0,0,1,24.8684,4.66806l.56155.28895V208.89141l-1.19019-.31832a66.588,66.588,0,0,0-23.70675-3.10267,54.84231,54.84231,0,0,0-21.17283,4.84107A48.386,48.386,0,0,0,11.238,223.7085a52.15539,52.15539,0,0,0-.95113,63.44108A49.71878,49.71878,0,0,0,37.85,304.873a64.62283,64.62283,0,0,0,34.87806-1.22175l1.91444-.52593"/><polyline class="cls-1" points="133.234 304.848 133.234 207.134 108.598 207.134 108.598 304.848 133.234 304.848"/><polyline class="cls-1" points="497.883 293.498 497.883 292.021 487.456 292.021 487.456 293.498 491.793 293.498 491.793 304.848 493.546 304.848 493.546 293.498 497.883 293.498"/><polyline class="cls-1" points="498.897 304.848 500.558 304.848 500.558 294.605 500.78 294.605 504.526 304.848 506.198 304.848 510.247 294.111 510.247 304.848 512 304.848 512 292.021 509.293 292.021 505.495 302.585 501.645 292.021 498.897 292.021 498.897 304.848"/><path class="cls-1" d="M332.07293,303.1253V277.07389l-.51072.22271a48.19851,48.19851,0,0,1-18.77816,4.76681,27.62224,27.62224,0,0,1-18.90027-5.57034,24.19,24.19,0,0,1-8.23051-11.68807,28.108,28.108,0,0,1-.55436-15.62686,23.95413,23.95413,0,0,1,8.381-13.3645,25.11276,25.11276,0,0,1,13.16409-5.67919,43.40233,43.40233,0,0,1,24.87038,4.66806l.55853.28895V208.89141l-1.18913-.31832a66.59094,66.59094,0,0,0-23.70677-3.10267,54.85119,54.85119,0,0,0-21.17281,4.84,48.42,48.42,0,0,0-17.33477,13.398,52.15688,52.15688,0,0,0-.95009,63.44108,49.71535,49.71535,0,0,0,27.56305,17.7234,64.61969,64.61969,0,0,0,34.87711-1.22175l1.91341-.52593"/><path class="cls-1" d="M358.03288,256.03231a51.41286,51.41286,0,0,0,62.51736,49.40118,50.14945,50.14945,0,0,0,16.43965-92.33474,51.74194,51.74194,0,0,0-78.957,42.93356M393.8,235.98864a25.69441,25.69441,0,1,1-9.501,17.21778,25.6976,25.6976,0,0,1,9.501-17.21778"/></svg>