<svg id="Layer_1" data-name="Layer 1" xmlns="http://www.w3.org/2000/svg" viewBox="0 0 512 512"><defs><style>.cls-1{fill:#383838;}</style></defs><path class="cls-1" d="M155.5995,263.04045l5.762-9.47532c1.53652-2.49689,1.1524-4.54558-.83228-4.54558H131.91117c-1.98468,0-4.86569,2.04869-6.40225,4.54558l-5.762,9.47532c-1.53656,2.49689-1.1524,4.54562.83228,4.54562h28.61807C151.18193,267.58607,154.06294,265.53734,155.5995,263.04045Z"/><path class="cls-1" d="M251.95336,234.42239c6.40225.57621,27.72173-1.92064,33.61181-11.71611,6.14615-10.81978-6.33824-19.0787-16.83791-18.11836-4.92974.32011-11.71611,2.17678-16.32574,8.38693a35.92744,35.92744,0,0,0-5.762,16.70989C246.57545,232.94988,249.90463,234.23033,251.95336,234.42239Z"/><path class="cls-1" d="M393.7632,297.35649a19.538,19.538,0,0,1-4.73768-.57617c-1.79263-1.47251-2.11274-2.36884-2.11274-6.21019V246.97082c.06405-10.2436-3.32918-19.14274-14.59712-19.39881-12.67645-.32011-22.66394,5.89008-32.52342,10.05154-.70427.25607-2.04873,1.02434-2.04873-.57622v-8.32292c.128-1.08839-.1921-4.67364-3.45723-3.20113-11.90817,6.2742-19.975,7.23454-33.93193,9.34731-.89629.128-1.47251.57618-1.79262,1.79262l-2.36884,5.05776c-.32011,1.47255.32011,1.79266,1.47251,1.79266,2.5609,0,5.95409-.44817,5.95409,3.26513v45.456c-.25607,3.96941-1.21641,4.67364-2.62491,4.73765-.38412,0-.70423.57621-.83229.89633l-3.00906,7.7467a1.64191,1.64191,0,0,0,1.47251,1.79266h42.31885a3.10484,3.10484,0,0,0,2.881-1.60056l2.17678-5.506c1.47255-3.58524-.64023-3.26513-3.58525-3.26513-4.48157-.32011-3.9694-2.49689-4.09745-4.16146V257.91865c0-11.46,13.89289-10.81978,13.89289-2.30479v41.48657c-.128,3.39318,2.5609,10.05154,11.46,10.37165h25.609a2.89843,2.89843,0,0,0,2.689-1.47255l2.689-6.85037C394.97964,298.25283,394.97964,297.35649,393.7632,297.35649Z"/><path class="cls-1" d="M510.98838,297.22848c-5.31386-.32011-9.9875-.57622-15.1093-4.16146L472.767,269.37869c-3.13712-3.00906-3.96941-4.80168-.44817-9.02719l16.83791-18.8866a3.7674,3.7674,0,0,1,2.36884-.89633h1.60056c1.98472,0,2.30484-.64023,2.689-1.1524l4.16146-5.634c.57622-.76828.2561-1.47255-.32011-1.47255H466.8769c-2.36884,0-6.21019.38416-7.81075,2.36884l-15.04529,19.0787c-.51217.70427-2.24079,2.30483-2.5609-.064v-43.5353c0-2.689-1.4085-4.16146-3.84135-3.77734a3.72271,3.72271,0,0,1-1.40858.12805,181.53409,181.53409,0,0,1-31.81919,8.32293c-1.40851.2561-2.689.38412-3.39319,1.60056l-3.71329,6.21019c-.70424,1.28045-.38412,2.62491,1.4085,2.36884l6.01813-.83232c1.53655-.19206,2.04873.64022,2.04873,2.817v64.0225c-.064,4.8657-1.28045,5.95409-4.54559,6.14615-1.98468.128-2.3688.44816-2.945,1.79266l-2.62491,6.97843c-.32011.89633.64022,1.34449,2.11273,1.34449h47.37665a2.6574,2.6574,0,0,0,2.62491-1.79266l2.17678-5.634c.57618-1.47251,1.28045-2.817-1.21644-2.945-6.53027-.32011-8.38693-1.47255-8.38693-5.95412v-9.92349c0-1.1524,1.15239-1.79262,2.5609-.44813,8.13086,7.6827,13.38071,16.32574,21.70364,23.17611a24.92691,24.92691,0,0,0,12.42038,3.58529h22.92c1.47251,0,4.09741-.57622,4.67363-1.47251l5.95409-6.85042C512.07677,298.44489,512.39688,297.29249,510.98838,297.22848Z"/><path class="cls-1" d="M293.24787,297.6126c-3.52124-.38412-4.80169-1.34446-5.57-5.31386V235.89493c.32011-3.26517-1.47251-4.41756-2.945-3.84135-9.92349,5.762-22.40788,8.89911-34.95627,9.85945,0,0-1.15244,0-2.04873,1.79262l-3.26517,6.21019a1.28958,1.28958,0,0,0,.89633,1.79262c6.5303-.64022,7.42659-.89629,7.42659,4.73768V290.186c0,5.95408-.25606,6.5303-4.73764,7.7467-1.47255.25611-1.66461,1.02439-2.04873,1.79266l-2.17678,5.634c-.38412,1.28045.06405,2.04872,1.21645,2.11273h44.11148c2.11277,0,2.68895-.32011,3.58528-2.11273l2.30479-5.95409C295.68072,297.67665,293.24787,297.6126,293.24787,297.6126Z"/><path class="cls-1" d="M94.394,217.13631c-8.00281-7.36255-15.49345-8.00277-27.97784-8.00277H13.14944c-2.24079,0-4.73768.57618-5.634,2.11273l-3.84135,7.10648c-.57621,2.94506,2.945,3.26517,2.945,3.26517h5.44192c1.47251,0,1.79262,1.1524,1.79262,2.36881V289.9299c0,2.94506-3.32918,4.73768-6.01809,5.31386-1.21645.32011-2.94506.64023-3.84135,2.11277l-3.84135,7.4266a1.93854,1.93854,0,0,0,1.79262,2.68895c20.93536,0,39.11773.064,60.1171-.064,9.60338.128,21.19147.64022,31.94725-7.74671,7.6827-5.05779,16.902-25.545,20.23113-33.99593,1.66457-4.41757,2.11273-10.2436,0-14.66117C108.41491,237.81561,99.96393,223.09043,94.394,217.13631ZM79.86089,261.95206,61.74253,292.55485c-2.17678,3.009-3.20113,2.43284-5.95412,2.6249H48.55387V224.30684c0-1.79262.32011-2.68892,2.04873-2.945h5.18581c1.85666,0,4.54562-.38412,6.21019,2.5609l17.86229,31.179C81.3334,258.36682,80.88523,259.71127,79.86089,261.95206Z"/><path class="cls-1" d="M240.1092,270.5951c-.32012-2.04869-1.47251-2.04869-2.689-2.04869l-9.34727,3.26513c-1.79262.89633-2.11273,1.79262-2.689,3.26513-2.3688,9.47536-2.11273,20.35919-12.67644,20.4872h-6.46626c-3.26517-.128-4.41757-2.3688-4.41757-5.05775v-62.614c.25611-5.3779,2.36884-5.3779,5.05779-5.3779h.44817c4.16146,0,4.73764-1.79263,4.73764-1.79263l4.73768-8.643c.44813-.89633-.38416-2.24079-2.68895-2.24079v-.06405H161.16946a3.10077,3.10077,0,0,0-3.26513,1.98472l-4.16146,7.74671c-.70427,1.66461.89629,2.689,3.84135,2.689h4.54558c3.9054,0,4.80169,2.36884,4.80169,6.21019v58.51655c.064,9.0912-3.64929,9.15524-9.60338,9.47536a3.88362,3.88362,0,0,0-3.58528,1.79262l-2.945,6.5303c-.64022,1.79262,0,2.68892,2.945,2.68892h80.41228c3.58525.32011,6.2742-2.36881,5.95409-5.31386Z"/></svg>