<svg id="Layer_1" data-name="Layer 1" xmlns="http://www.w3.org/2000/svg" viewBox="0 0 512 512"><defs><style>.cls-1{fill:#383838;}</style></defs><path class="cls-1" d="M110.81479,242.23369a23.33491,23.33491,0,0,0-32.24263,0,23.16523,23.16523,0,0,0,0,32.35671,23.29682,23.29682,0,0,0,32.24263,0h-.0381a23.11745,23.11745,0,0,0,.0381-32.35671Zm-7.11845,25.99963q-.27672.29555-.57272.57249a12.33364,12.33364,0,0,1-17.433-.57249h-.03787a14.5679,14.5679,0,0,1-.0381-19.68043q.183-.191.37406-.3743a12.524,12.524,0,0,1,17.70763.3743,14.62174,14.62174,0,0,1,0,19.68043Z"/><path class="cls-1" d="M128.13511,242.23369a23.16521,23.16521,0,0,0,0,32.35671,23.29682,23.29682,0,0,0,32.24263,0,23.16521,23.16521,0,0,0,0-32.35671A23.29682,23.29682,0,0,0,128.13511,242.23369Zm25.12417,25.99963q-.27706.29555-.57272.57249a12.33364,12.33364,0,0,1-17.433-.57249h-.0381a14.56825,14.56825,0,0,1-.03787-19.68043q.183-.191.37407-.3743a12.524,12.524,0,0,1,17.70762.3743,14.62174,14.62174,0,0,1,0,19.68043Z"/><path class="cls-1" d="M214.5085,237.247H205.068v3.61638h-.3427a14.08514,14.08514,0,0,0-4.94863-3.61638,16.36768,16.36768,0,0,0-7.00438-1.56064,20.63117,20.63117,0,0,0-15.22669,6.66168,22.11634,22.11634,0,0,0-6.50926,16.064,21.88891,21.88891,0,0,0,6.50926,15.95,20.671,20.671,0,0,0,15.22669,6.62357,14.50275,14.50275,0,0,0,11.9149-5.13891h.3427v3.27368a13.89383,13.89383,0,0,1-3.1596,9.89725,11.41938,11.41938,0,0,1-8.86961,3.4261,10.8499,10.8499,0,0,1-7.11846-2.39822,14.61939,14.61939,0,0,1-4.30156-5.67191L172.9016,287.99a23.3353,23.3353,0,0,0,7.385,9.36426,19.94556,19.94556,0,0,0,12.67628,4.03507A21.31745,21.31745,0,0,0,208.456,295.489a23.6396,23.6396,0,0,0,6.05248-17.70088ZM202.25113,268.3474a11.07669,11.07669,0,0,1-8.60312,3.80667,11.801,11.801,0,0,1-8.90771-3.88264,13.62887,13.62887,0,0,1-3.80667-9.74507,13.89494,13.89494,0,0,1,3.80667-9.85939,11.76246,11.76246,0,0,1,8.90771-3.80667,11.04028,11.04028,0,0,1,8.60312,3.80667,14.38914,14.38914,0,0,1,3.464,9.93536A14.08519,14.08519,0,0,1,202.25113,268.3474Z"/><rect class="cls-1" x="221.36046" y="213.15066" width="9.93536" height="66.54078"/><path class="cls-1" d="M277.014,250.11353a27.22345,27.22345,0,0,0-2.24581-4.45374,26.64945,26.64945,0,0,0-3.80667-4.60616,17.92838,17.92838,0,0,0-5.82432-3.80667,19.22825,19.22825,0,0,0-7.61334-1.48466,20.40431,20.40431,0,0,0-15.22669,6.35731,22.30671,22.30671,0,0,0-6.2049,16.29243,22.0407,22.0407,0,0,0,6.43329,16.14026,21.62255,21.62255,0,0,0,16.02617,6.50949,20.708,20.708,0,0,0,11.45789-3.19771,25.08656,25.08656,0,0,0,7.309-6.92817l-7.61335-5.13891a12.98128,12.98128,0,0,1-11.15352,6.2811,11.41969,11.41969,0,0,1-10.96323-6.8522L278.04186,252.702Zm-31.17666,7.61334a12.06685,12.06685,0,0,1,3.6926-9.59289,11.76331,11.76331,0,0,1,8.1842-3.61638,10.31717,10.31717,0,0,1,5.21512,1.33247,7.003,7.003,0,0,1,3.15961,3.464Z"/><path class="cls-1" d="M35.78521,242.72857v9.74508h22.84a20.25068,20.25068,0,0,1-5.21512,11.83869,25.54263,25.54263,0,0,1-35.6304-.41868,25.64352,25.64352,0,0,1,0-35.935,24.13367,24.13367,0,0,1,17.89141-7.61334,24.40064,24.40064,0,0,1,17.32031,6.852l6.77575-6.89007a33.65065,33.65065,0,0,0-24.09606-9.707A34.67919,34.67919,0,0,0,10.547,221.10671a34.48243,34.48243,0,0,0,0,49.63891,34.67829,34.67829,0,0,0,25.12417,10.31617A32.39442,32.39442,0,0,0,60.148,271.12643,30.45387,30.45387,0,0,0,68.48462,248.667a30.90982,30.90982,0,0,0-.3808-5.9384Z"/><path class="cls-1" d="M330.11711,273.48655a23.25949,23.25949,0,0,1-16.93974-6.776,26.2805,26.2805,0,0,1,0-35.47821,23.25927,23.25927,0,0,1,16.93974-6.77575,20.70809,20.70809,0,0,1,17.05381,7.80363l5.48162-5.32944A28.39778,28.39778,0,0,0,330.079,216.88136q-.63464-.01116-1.26928.00371a31.36711,31.36711,0,0,0-30.63065,32.0865q-.01464.63463-.00371,1.26928A31.367,31.367,0,0,0,330.079,281.06179a32.27975,32.27975,0,0,0,14.00853-2.96932,29.9167,29.9167,0,0,0,10.54455-8.032l-5.48161-5.48162A24.21093,24.21093,0,0,1,330.11711,273.48655Z"/><rect class="cls-1" x="361.48405" y="218.2136" width="7.87984" height="61.47784"/><path class="cls-1" d="M382.23045,242.69047a24.03,24.03,0,0,0,0,31.97614,22.041,22.041,0,0,0,31.06258,0,24.03,24.03,0,0,0,0-31.97614A22.041,22.041,0,0,0,382.23045,242.69047Zm25.162,27.02751q-.252.26626-.51859.51859a13.28542,13.28542,0,0,1-18.78127-.51859l.03811-.0381a16.88508,16.88508,0,0,1-.03811-22.04078q.25233-.26627.51882-.51859a13.28512,13.28512,0,0,1,18.781.51859,16.99658,16.99658,0,0,1,0,22.07888Z"/><path class="cls-1" d="M455.16618,260.96245a14.35,14.35,0,0,1-3.08339,9.098,9.66889,9.66889,0,0,1-7.99392,3.80667q-10.39225,0-10.39214-11.76248v-24.439h-7.87984V263.551a19.03238,19.03238,0,0,0,4.07317,12.86657,14.80758,14.80758,0,0,0,11.95277,4.79644,15.53244,15.53244,0,0,0,7.80387-2.09362,14.65541,14.65541,0,0,0,5.55759-5.25323h.22839v5.82432H463.046v-42.0258h-7.87984Z"/><path class="cls-1" d="M504.12016,218.2136v19.452l.34247,5.82432h-.34247a14.58268,14.58268,0,0,0-5.71-5.13915,17.85568,17.85568,0,0,0-8.60311-2.05552,18.50078,18.50078,0,0,0-14.08473,6.43328,24.50849,24.50849,0,0,0,0,31.89993,18.50076,18.50076,0,0,0,14.08473,6.43329,17.85191,17.85191,0,0,0,8.52691-2.05552,14.58108,14.58108,0,0,0,5.71-5.13915h.34271v5.82432H512V218.2136ZM500.58,269.75585a12.98862,12.98862,0,0,1-19.03336-.076,17.91033,17.91033,0,0,1,0-22.07865q.40812-.44889.85734-.85757a12.86673,12.86673,0,0,1,18.176.85757,18.02064,18.02064,0,0,1,0,22.15462Z"/></svg>