<svg id="Layer_1" data-name="Layer 1" xmlns="http://www.w3.org/2000/svg" viewBox="0 0 512 512"><defs><style>.cls-1{fill:#383838;}</style></defs><g id="g3017"><g id="g3061"><g id="g3021"><path id="path3023" class="cls-1" d="M512,256C512,114.60959,397.39043,0,256,0q-5.78256,0-11.5067.27258L192.129,144.1941h45.60824c27.13131,0,41.7532,20.8912,32.46607,46.40651l-64.5914,177.50708-54.23342-.00974,69.31284-190.25988h-40.7797L110.59877,368.098H56.34591l81.501-223.90386h.00973L186.88187,9.45265C79.077,39.61152,0,138.5673,0,256,0,376.91782,83.84712,478.24893,196.56813,505.04925L244.0747,374.49383h.03894l83.80818-230.29972h99.89032c27.16051,0,41.77267,20.8912,32.48553,46.40651L403.54291,346.50584c-4.32232,11.87664-18.19462,21.59212-30.83059,21.59212H300.71263L248.397,511.88318c2.52136.06814,5.06218.11681,7.603.11681,141.39043,0,256-114.6193,256-256"/></g><g id="g3025"><path id="path3027" class="cls-1" d="M410.90244,177.70211H370.14221L313.05646,334.32773H353.8167l57.08574-156.62562"/></g></g></g></svg>