<svg id="Layer_1" data-name="Layer 1" xmlns="http://www.w3.org/2000/svg" viewBox="0 0 512 512"><defs><style>.cls-1{fill:#383838;}</style></defs><path class="cls-1" d="M239.57511,262.93907l-12.432-28.87852-12.36721,28.87852-.86332,1.96409h26.4612Zm-4.10082-50.18127L273.094,298.37888H254.7482l-7.74842-17.91415H207.41594l-.56119,1.23027-7.27357,16.68395H181.73177l37.9867-86.11753h15.25944Zm122.05377,58.81461L337.952,212.283H323.66379l-19.576,59.28945L285.116,212.283H266.53275l30.044,86.11753H311.016l19.5761-56.56993,19.57611,56.56993h14.59036l29.9793-86.11753h-18.1516Zm68.57026-10.16574h31.83543V245.6724H426.09839V227.97406h46.1668V212.34771H408.87486v86.05278h65.07376V282.70942H426.09839v-21.3675Zm68.635-49.05893v85.988H512V212.283ZM56.93687,246.989H17.48252V212.283H0v86.18227H17.48252V263.43551H56.93687V298.4653H74.41939V212.283H56.93687v34.706Zm98.4848-34.72759h17.46092v48.62727c0,24.69135-13.59748,38.85-37.296,38.85s-36.9291-13.92128-36.9291-38.15933V212.32614H116.14v48.692c0,14.39612,7.07936,22.10132,19.70557,22.10132s19.5761-7.511,19.5761-21.58334V212.26136Z"/></svg>