<svg id="Layer_1" data-name="Layer 1" xmlns="http://www.w3.org/2000/svg" viewBox="0 0 512 512"><defs><style>.cls-1{fill:#383838;}</style></defs><path class="cls-1" d="M230.65674,256.28987c0,19.38014-11.84341,28.57328-26.66839,28.57328h-9.0275V273.18538h8.36494c8.94468,0,14.90778-4.80363,14.90778-16.97833,0-12.00906-5.63182-17.97218-15.15626-17.97218-9.19315,0-15.736,5.63184-15.736,17.72372v48.6988H174.91815V228.1307h12.34034v6.62569h1.73925a20.04194,20.04194,0,0,1,16.56421-8.03365C219.22743,226.72274,230.65674,236.66128,230.65674,256.28987Zm-81.16466-5.05208-8.19929-.82821c-6.46-.57975-9.8557-2.319-9.8557-6.12877,0-4.47234,4.38952-7.03979,10.6011-7.03979,6.46005,0,10.6011,3.06438,10.93238,7.37108H164.814c-.49693-11.098-9.02749-17.88936-22.693-17.88936-13.74831,0-23.02427,7.28826-23.02427,17.97218,0,8.94468,5.63184,14.74216,18.46911,15.98447l8.36493.82821c5.05209.49693,8.44775,1.49079,8.44775,6.37723,0,4.38952-3.1472,7.53671-11.51213,7.53671-7.70236,0-11.51212-3.47848-12.83727-8.19929H117.19187c1.24232,10.68393,10.26982,18.966,25.67454,18.966,14.4937,0,23.85248-7.61954,23.85248-18.966C166.636,257.36655,160.09318,252.23164,149.49208,251.23779Zm128.95244,16.06729c-1.90488,4.47234-6.54287,7.78518-13.16855,7.78518-9.0275,0-15.736-5.88029-15.736-18.55192,0-12.09188,6.21158-18.80039,15.90166-18.80039,8.61339,0,13.49983,5.13491,13.99676,12.92009h-22.196v8.94468h34.37075v-5.88029c0-16.31576-10.84957-26.91686-26.2543-26.91686-14.328,0-28.07634,9.77289-28.07634,29.73277s13.7483,29.73278,28.07634,29.73278c13.08573,0,22.52735-8.11647,25.42609-18.966ZM83.73213,226.72274c-13.49984,0-23.604,7.0398-24.84633,17.88936H72.13717c.911-3.97541,4.55516-6.957,11.51214-6.957,8.94468,0,11.84342,4.7208,11.84342,10.43545v19.38014c-5.05209,5.79748-10.93239,8.44775-16.81269,8.44775-6.12876,0-10.35264-2.98156-10.35264-8.19929,0-5.05209,3.31285-8.19929,9.60725-8.19929h9.85571V250.658H77.52054c-14.07958,0-22.0304,7.03979-22.0304,17.88936,0,10.10417,7.61953,17.72371,20.20834,17.72371a30.60683,30.60683,0,0,0,17.88936-6.21158h1.73924v4.80363h12.34034V247.01391C107.9987,233.01715,98.47428,226.72274,83.73213,226.72274ZM0,284.86315H12.34034V207.25979H0ZM51.846,228.1307H36.77257L18.80039,251.81754v7.37107l18.4691,25.67454H52.5914L30.89227,255.46166Zm446.48851,0-10.10418,22.44452c-2.48464,5.38337-4.80362,10.68392-5.549,14.24523h-1.73922c-.74541-3.56131-3.14719-8.69622-5.63182-14.07959L465.20608,228.1307H451.5406l23.76967,50.935-11.76061,25.67454h13.16857L512,228.1307Zm-49.527,0H433.73407l-17.97219,23.604v7.37107L434.231,284.78033h15.32191l-21.61629-29.40149Zm-77.35493,23.10709-8.19928-.82821c-6.46-.57975-9.8557-2.319-9.8557-6.12877,0-4.47234,4.3895-7.03979,10.60109-7.03979,6.46,0,10.60109,3.06438,10.93239,7.37108H386.7745c-.49694-11.098-9.0275-17.88936-22.693-17.88936-13.7483,0-23.02425,7.28826-23.02425,17.97218,0,8.94468,5.63182,14.74216,18.46909,15.98447l8.36494.82821c5.05209.49693,8.44776,1.49079,8.44776,6.37723,0,4.38952-3.14719,7.53671-11.51213,7.53671-7.70235,0-11.51212-3.47848-12.83727-8.19929H339.15239c1.24232,10.68393,10.26981,18.966,25.67454,18.966,14.49369,0,23.85247-7.61954,23.85247-18.966C388.6794,257.36655,382.05371,252.23164,371.45259,251.23779Zm25.50892,33.62536h12.34033V207.25979H396.96151Zm-81.49595-50.10676h-1.73925V228.1307H301.386v56.73245h12.34034v-29.65c0-10.10417,4.638-15.98447,13.91393-15.98447h7.78518v-12.506h-4.55516C322.3397,226.72274,318.69557,229.95277,315.46556,234.75639Z"/></svg>