<svg id="Layer_1" data-name="Layer 1" xmlns="http://www.w3.org/2000/svg" viewBox="0 0 512 512"><defs><style>.cls-1{fill:#383838;}</style></defs><path class="cls-1" d="M307.431,224.13528l-.05479,32.73287-.05478,32.73321-.492,2.20336a33.543,33.543,0,0,1-8.55108,16.39383,24.74566,24.74566,0,0,1-12.68914,6.88961,44.38814,44.38814,0,0,1-11.19659-.00211,20.77381,20.77381,0,0,1-11.6728-6.1177c-3.84727-4.03164-6.10682-9.64785-7.24186-17.99981-.2799-2.058-.31712-5.488-.37612-34.74166l-.06568-32.45824H238.36279l.07656,33.5571c.079,34.67213.08183,34.81085.85409,40.15173,2.90328,20.07674,13.85895,30.80273,32.69564,32.01047v.00035c8.70421.55839,15.07512-.68482,21.42741-4.18125a34.24064,34.24064,0,0,0,13.03857-13.05192,6.70894,6.70894,0,0,1,.96156-1.47077c.12888-.04285.18964,2.55384.18964,8.10086v8.16443h16.84721V224.13528H307.431Z"/><path class="cls-1" d="M511.93154,266.89387c-.46286-13.49617-4.08678-24.45606-10.68-32.29985a39.2488,39.2488,0,0,0-26.45572-13.591,59.82778,59.82778,0,0,0-14.92446.8706,44.92175,44.92175,0,0,0-18.40368,8.78462,60.98572,60.98572,0,0,0-7.211,7.21095c-6.222,7.79287-10.59149,18.70851-11.9397,29.82784a88.69273,88.69273,0,0,0,.2065,18.69938c2.08992,16.92412,9.22642,29.222,21.288,36.683a44.166,44.166,0,0,0,19.3733,6.32561,140.3984,140.3984,0,0,0,15.45651-.23,60.38991,60.38991,0,0,0,24.45044-8.47593l1.72433-1.06621.00562-7.74616c.00492-6.2343-.03968-7.71737-.22757-7.59937-.12853.08042-.853.61072-1.6102,1.17859a51.22626,51.22626,0,0,1-22.78615,9.40026,72.129,72.129,0,0,1-12.0858.46427,32.6229,32.6229,0,0,1-18.4985-7.821c-2.53207-2.18895-5.62428-6.71191-7.421-10.85418a40.35173,40.35173,0,0,1-3.28853-15.40558v-1.62811l36.48707-.046,36.48672-.04636.09306-4.39477C512.0218,272.71728,512.00424,269.00908,511.93154,266.89387Zm-16.99225-1.3735H439.06486l.11941-.86954a46.35928,46.35928,0,0,1,1.74575-7.10665,37.18179,37.18179,0,0,1,9.03046-14.456,26.138,26.138,0,0,1,13.64613-7.2531,38.08151,38.08151,0,0,1,9.999-.28306,23.22138,23.22138,0,0,1,12.88334,6.24729c4.95141,4.74948,8.4503,13.97274,8.4503,22.27553Z"/><path class="cls-1" d="M72.63417,182.38354l-8.82185.0007-8.82185.00036L27.53491,254.48814C12.43486,294.14328.04458,326.69143.00138,326.82c-.0611.18121,1.88378.22827,9.32687.22546l9.40447-.00316,6.94932-19.545c3.822-10.74952,7.06907-19.85373,7.21516-20.23161l.26585-.68657,30.5994.00035,30.59905.00035,7.59971,20.233,7.59937,20.233,9.38516.0021c5.16177.0007,9.38481-.03687,9.38481-.08393,0-.07094-52.72778-136.96735-54.9645-142.70331ZM88.77655,271.139c0,.032-11.24822.0583-24.99619.0583-13.74762,0-24.99583-.07059-24.99583-.15663,0-.0864,5.01637-13.82735,11.14777-30.53549,6.1314-16.70849,11.39747-31.16165,11.7023-32.11863a50.51648,50.51648,0,0,0,1.59545-6.95845c.25707-2.17351.47621-2.10748.90958.27463.924,5.07994,1.57789,6.98373,13.27211,38.62616C83.66219,257.24216,88.77655,271.10708,88.77655,271.139Z"/><path class="cls-1" d="M139.6799,223.76864l.04776,7.00445.04812,7.00445,27.602.09166,27.602.09131-30.48632,41.90907-30.486,41.90907v5.27029h84.785V312.94872H188.66893c-16.56766,0-30.12319-.039-30.12319-.08674,0-.04741,13.72023-19.04846,30.48948-42.22409l30.48983-42.13769v-4.73156H139.6799Z"/><path class="cls-1" d="M403.28719,221.80444a27.26818,27.26818,0,0,0-5.49364.19983,24.12553,24.12553,0,0,0-13.16465,6.5451,36.711,36.711,0,0,0-9.30754,14.33656,9.45965,9.45965,0,0,1-.90115,2.125c-.08675,0-.15769-4.77967-.15769-10.62134v-10.621H357.59828v51.51828c0,28.33494.05514,51.57308.12222,51.64015s3.81566.12187,8.33018.12187H374.259l.04741-29.07033c.03231-19.67533.11273-29.65575.2497-30.88105a49.81774,49.81774,0,0,1,6.969-20.03846,20.85732,20.85732,0,0,1,10.50018-8.575,19.975,19.975,0,0,1,6.59216-1.28991,21.028,21.028,0,0,1,11.03329,2.2153l1.96841.98543V223.09787l-.68658-.22476A24.3444,24.3444,0,0,0,403.28719,221.80444Z"/></svg>