<svg id="Layer_1" data-name="Layer 1" xmlns="http://www.w3.org/2000/svg" viewBox="0 0 512 512"><defs><style>.cls-1{fill:#383838;}</style></defs><path class="cls-1" d="M98.03345,213.16646v90.68645H82.2893V232.68923h-.20986L53.94988,303.85294H43.45379L14.69446,232.68923H14.4846v71.16371H0V213.16646H22.67165L48.702,280.34161h.41992l27.49978-67.17516Zm13.01519,6.92744a7.98278,7.98278,0,0,1,2.72895-6.29767,9.38666,9.38666,0,0,1,6.50759-2.51907,9.18941,9.18941,0,0,1,6.71746,2.51907,8.726,8.726,0,0,1,2.729,6.29767,7.98281,7.98281,0,0,1-2.729,6.29766,9.53442,9.53442,0,0,1-6.71746,2.51908,8.69753,8.69753,0,0,1-6.50759-2.51908,9.50633,9.50633,0,0,1-2.72914-6.29766Zm17.00368,18.6831v65.07592H112.72791V238.777Zm46.3928,53.95a17.6857,17.6857,0,0,0,7.55728-1.67928,33.16531,33.16531,0,0,0,7.55728-4.19845V301.124a26.78408,26.78408,0,0,1-8.39692,3.14881,51.65527,51.65527,0,0,1-10.28623,1.04963,30.83675,30.83675,0,0,1-23.30142-9.02666,31.32458,31.32458,0,0,1-9.02669-23.09148A37.04231,37.04231,0,0,1,147.785,247.3839c6.08768-6.71751,14.69464-10.07629,26.03038-10.07629a38.63639,38.63639,0,0,1,8.60677,1.04963,28.60293,28.60293,0,0,1,6.92751,2.51907v14.69447a30.49582,30.49582,0,0,0-7.13737-3.98852,24.11749,24.11749,0,0,0-7.55728-1.46945,19.14507,19.14507,0,0,0-14.69465,5.87782,22.02094,22.02094,0,0,0-5.4579,15.9541,21.00442,21.00442,0,0,0,5.4579,15.32433,19.63411,19.63411,0,0,0,14.4846,5.458Zm58.56835-54.99965a16.96781,16.96781,0,0,1,3.35872.20992,21.79048,21.79048,0,0,1,2.5191.62978v15.53425a9.42238,9.42238,0,0,0-3.56878-1.67928,21.53726,21.53726,0,0,0-5.668-.8397,11.73753,11.73753,0,0,0-9.4466,4.82821,23.18132,23.18132,0,0,0-3.9885,14.69456v32.74779H200.89522V238.777h15.32442v10.28619h.20986a19.77379,19.77379,0,0,1,6.29773-8.39689,18.49653,18.49653,0,0,1,10.28605-2.93892Zm6.71745,34.63721a36.26127,36.26127,0,0,1,9.02669-25.61055,33.39884,33.39884,0,0,1,25.19074-9.44652c10.07618,0,18.05337,2.93893,23.72114,9.02667a34.661,34.661,0,0,1,8.60678,24.56092,35.55086,35.55086,0,0,1-9.02669,25.19069,32.74206,32.74206,0,0,1-24.77083,9.44652,32.33663,32.33663,0,0,1-23.93119-8.81674A33.68739,33.68739,0,0,1,239.73092,272.36459Zm15.95419-.62978a22.89081,22.89081,0,0,0,4.61828,15.53411,16.77892,16.77892,0,0,0,13.22505,5.458,15.28027,15.28027,0,0,0,12.80532-5.458,24.51856,24.51856,0,0,0,4.40842-15.95411,25.31647,25.31647,0,0,0-4.40842-15.95408,17.52059,17.52059,0,0,0-24.76951-.64486q-.43509.41286-.841.85476a22.996,22.996,0,0,0-5.03837,16.16417ZM329.158,255.99064a6.66244,6.66244,0,0,0,2.09918,5.24807,35.90833,35.90833,0,0,0,9.23655,4.61829,32.0097,32.0097,0,0,1,12.80532,8.187,17.0077,17.0077,0,0,1,3.77864,11.12588,17.625,17.625,0,0,1-7.13718,14.69456,29.547,29.547,0,0,1-19.10287,5.458,49.73325,49.73325,0,0,1-9.02668-1.04963,36.32385,36.32385,0,0,1-8.39692-2.51907v-15.1144a36.6812,36.6812,0,0,0,9.02669,4.61829,28.296,28.296,0,0,0,8.81682,1.67929,14.10979,14.10979,0,0,0,7.55728-1.46945,5.15157,5.15157,0,0,0,2.5191-4.82822,7.39063,7.39063,0,0,0-2.5191-5.458,38.763,38.763,0,0,0-9.65646-5.03815,28.87032,28.87032,0,0,1-11.9655-7.97708,19.07716,19.07716,0,0,1,3.35891-25.82044,27.72949,27.72949,0,0,1,18.05338-5.66792,33.285,33.285,0,0,1,7.55709.83969c2.72895.62978,5.24805,1.25953,7.13718,1.8893v14.90451a45.20833,45.20833,0,0,0-7.13718-3.5687,22.21576,22.21576,0,0,0-7.977-1.46945,11.70515,11.70515,0,0,0-6.71746,1.67929,6.705,6.705,0,0,0-2.31,5.03834Zm34.42729,16.374a36.263,36.263,0,0,1,9.02668-25.61055,33.399,33.399,0,0,1,25.19056-9.44652c10.07637,0,18.05337,2.93893,23.72114,9.02667a34.66116,34.66116,0,0,1,8.607,24.56092,35.551,35.551,0,0,1-9.02669,25.19069,32.7422,32.7422,0,0,1-24.77083,9.44652,32.337,32.337,0,0,1-23.931-8.81674,34.59921,34.59921,0,0,1-8.8172-24.351Zm15.954-.62978a22.89183,22.89183,0,0,0,4.61846,15.53411,16.77893,16.77893,0,0,0,13.22505,5.458,15.28051,15.28051,0,0,0,12.80533-5.458,24.51752,24.51752,0,0,0,4.4086-15.95411,25.31888,25.31888,0,0,0-4.4086-15.95408,17.52078,17.52078,0,0,0-24.7697-.645q-.43509.41292-.841.85487A24.038,24.038,0,0,0,379.53926,271.73481Zm101.60241-20.36247H458.26v52.48057H442.7257V251.37233H431.80988V238.777H442.7257v-9.02666A22.63861,22.63861,0,0,1,464.66489,206.433q.891-.02712,1.78195.01591c1.88913,0,3.56878.20993,5.03819.20993a10.02654,10.02654,0,0,1,3.77864.8397v13.22511a25.7279,25.7279,0,0,0-2.729-1.04963,13.955,13.955,0,0,0-4.4086-.62974,9.47426,9.47426,0,0,0-7.34741,2.93889,13.38277,13.38277,0,0,0-2.5191,8.81674V238.567h22.8817v-14.6945l15.32442-4.61829v19.31288H512v12.5952H496.46572v30.43886a13.97306,13.97306,0,0,0,2.09937,8.39689,8.73947,8.73947,0,0,0,6.92732,2.51907,10.36,10.36,0,0,0,3.14867-.62978,10.97349,10.97349,0,0,0,3.14868-1.46944v12.59533a14.63947,14.63947,0,0,1-4.82832,1.46945,36.37793,36.37793,0,0,1-6.71746.62977,18.96438,18.96438,0,0,1-14.48459-5.03815A22.19309,22.19309,0,0,1,480.93106,284.54l.20987-33.16773Z"/></svg>