<svg id="Layer_1" data-name="Layer 1" xmlns="http://www.w3.org/2000/svg" viewBox="0 0 512 512"><defs><style>.cls-1{fill:#383838;}</style></defs><path class="cls-1" d="M3,290.52954V221.55182H21.72251l31.5327,42.37178V221.55208H71.97772V290.5298H53.25521l-31.5327-42.67971v42.67945Zm91.14891,0V221.55182h45.821V236.8254H112.87142v11.5785h26.1129v15.02744h-26.1129v11.82438h27.09846v15.27382Zm96.07619,0H171.00981V236.8254H152.78008V221.55182h55.67475V236.8254h-18.23ZM254.02941,252.099h36.95174c0,26.4371-13.901,40.46881-36.48235,40.46881-21.85463,0-38.2592-13.34747-38.2592-35.73733,0-23.10716,14.8825-37.39823,37.82871-37.39823,25.94128,0,33.03087,19.31445,33.03087,19.31445L269.32282,245.82s-4.16421-10.88714-15.86959-10.88714c-8.57,0-17.65356,6.46867-17.65356,21.59019,0,12.66067,8.12244,21.40532,18.57606,21.40532,9.34956,0,13.96-5.34148,14.68086-12.0339H254.02914Zm135.73767-30.541-25.25041,68.978H383.855l4.31092-12.81019h25.00454l4.31093,12.81019h19.46168l-25.49709-68.978Zm10.83959,17.86053,8.25264,24.75814H392.53867Zm47.79158-17.86053v68.978h18.72252V263.93022h1.47807l17.24445,26.60568H509L487.25979,262.175c7.50915-1.18186,15.7356-6.91873,15.7356-19.24606,0-12.10891-7.62915-21.37074-26.20547-21.37074Zm18.72252,13.79574h4.927c9.69766,0,12.071,3.53692,12.071,8.62235,0,6.12133-3.91273,8.62208-12.071,8.62208h-4.927ZM307.48692,290.52954V221.55182h45.82072V236.8254H326.20941v11.5785h26.1129v15.02744h-26.1129V275.256H353.3076v15.27357Z"/></svg>