<svg id="Layer_1" data-name="Layer 1" xmlns="http://www.w3.org/2000/svg" viewBox="0 0 512 512"><defs><style>.cls-1{fill:#383838;}</style></defs><path class="cls-1" d="M232.92008,221.53976,209.9654,280.22l-22.96433-58.68028H173.95314L201.397,286.86744l1.06676,2.48407,1.521,3.69431a20.66069,20.66069,0,0,1-3.87185,7.53631,1.7157,1.7157,0,0,0-.40964.48892.4996.4996,0,0,0-.03467.05426,13.287,13.287,0,0,1-6.28207,4.76076,8.13087,8.13087,0,0,1-4.50394.08892,17.07118,17.07118,0,0,1-6.01531-3.23493l-6.61273,8.54881c5.398,4.25225,10.38089,5.66474,14.42063,5.77326a18.2739,18.2739,0,0,0,5.84741-.81476c4.61759-1.40255,8.76615-4.56845,12.29226-9.31927a3.67526,3.67526,0,0,0,.52358-.67158,19.91183,19.91183,0,0,0,1.13066-1.66449,13.6607,13.6607,0,0,0,.8446-1.40254c.35056-.68636.74573-1.31363,1.03209-2.0247a3.71954,3.71954,0,0,0,.3804-.70142,8.47851,8.47851,0,0,1,.42954-.93835l.48409-1.32839,2.06931-4.76076,30.25377-71.89611Z"/><path class="cls-1" d="M39.32586,194.93147H0v96.45076H12.57861V252.91545H39.32586c16.05046,0,30.22423-11.71412,30.22423-28.91061C69.55009,206.49758,55.09,194.93147,39.32586,194.93147Zm0,46.85252-26.74725.13535V206.06292H39.32586c8.24256,0,17.20614,7.813,17.20614,17.94192C56.532,234.26245,47.56842,241.932,39.32586,241.784Z"/><path class="cls-1" d="M107.644,219.52109c-20.53451,0-35.42447,16.6283-35.42447,36.862,0,20.39645,14.89,36.87645,35.42447,36.87645,20.67317,0,35.41965-16.48,35.41965-36.87645C143.06366,236.14939,128.31718,219.52109,107.644,219.52109Zm0,64.1922c-14.31695,0-23.4237-12.28743-23.4237-27.33021,0-15.03314,9.10675-27.18222,23.4237-27.18222,14.4553,0,23.424,12.14908,23.424,27.18222C131.068,271.569,122.09931,283.71329,107.644,283.71329Z"/><polygon class="cls-1" points="154.29 194.931 154.433 291.382 166.004 291.382 165.856 194.931 154.29 194.931"/><path class="cls-1" d="M280.273,229.69611c7.52154,0,13.30444,2.60284,19.80867,9.82808l7.6599-7.5116c-10.26244-10.55391-18.78653-12.00107-27.46857-12.00107-20.52969,0-35.42448,16.6283-35.42448,36.8668,0,20.39134,14.89479,36.87646,35.42448,36.87646,8.682,0,17.20613-1.58521,27.46857-12.0056l-7.6599-7.65989c-6.50423,7.37354-12.28713,10.12407-19.80867,10.12407-14.31213,0-23.42371-12.292-23.42371-27.335C256.84927,241.84036,265.96085,229.69611,280.273,229.69611Z"/><path class="cls-1" d="M347.87252,219.52109c-20.53451,0-35.42447,16.6283-35.42447,36.862,0,20.39645,14.89,36.87645,35.42447,36.87645,20.67317,0,35.41965-16.48,35.41965-36.87645C383.29217,236.14939,368.54569,219.52109,347.87252,219.52109Zm0,64.1922c-14.31694,0-23.4237-12.28743-23.4237-27.33021,0-15.03314,9.10676-27.18222,23.4237-27.18222,14.4553,0,23.4237,12.14908,23.4237,27.18222C371.29622,271.569,362.32782,283.71329,347.87252,283.71329Z"/><path class="cls-1" d="M467.88565,219.51537c-11.42293,0-18.07516,7.23006-22.2632,13.15644-2.89914-8.534-9.40306-13.15644-19.52232-13.15644-11.27975,0-17.06778,6.7954-20.24333,10.70191v-8.67722H394.28074v69.84187H405.8568V239.61039C409.75819,234.988,415.255,229.2,422.77146,229.2c8.534,0,13.29962,5.34855,13.29962,16.63312v45.54885h11.57606V239.61039C451.40535,234.988,457.04055,229.2,464.4138,229.2c8.682,0,13.29962,5.34855,13.29962,16.63312v45.54885h11.57606V245.83308C489.28948,229.04683,482.05459,219.51537,467.88565,219.51537Z"/><path class="cls-1" d="M507.25913,226.24415a3.02638,3.02638,0,0,0-3.16077-3.01247h-4.0497v9.92664h1.33352v-3.95113H503.16l2.56817,3.95113h1.679l-2.66674-4.00026A2.83366,2.83366,0,0,0,507.25913,226.24415Zm-5.877,1.77783v-3.60509h2.71618a1.80271,1.80271,0,0,1,0,3.60509Z"/><path class="cls-1" d="M503.35744,219.52773A8.64256,8.64256,0,1,0,512,228.17028,8.58929,8.58929,0,0,0,503.35744,219.52773Zm0,16.05046a7.40791,7.40791,0,0,1,0-14.81581,7.40807,7.40807,0,0,1,0,14.81581Z"/></svg>