<svg id="Layer_1" data-name="Layer 1" xmlns="http://www.w3.org/2000/svg" viewBox="0 0 512 512"><defs><style>.cls-1{fill:#383838;}</style></defs><path class="cls-1" d="M99.27351,252.54809V252.31a.90228.90228,0,0,1-.23808-.47616v-.59517c.119-.47609-.23808-.83317-.23808-1.19033,0-1.07125-.47609-2.14258-.47609-3.21383-.35715-.35716-.11907-.83324-.23808-1.19033a13.00324,13.00324,0,0,1-.59516-2.02357,15.07677,15.07677,0,0,0-.71424-2.14258,33.86892,33.86892,0,0,0-2.38066-6.07073,30.354,30.354,0,0,0-3.571-5.95164c-.71417-.83325-1.30933-1.9045-2.0235-2.73775a17.22088,17.22088,0,0,0-2.49974-2.61874,25.71507,25.71507,0,0,0-3.2139-2.97582c-.83318-.59517-1.54742-1.19033-2.38066-1.78549-1.19033-.83325-2.38066-1.54742-3.571-2.26159-1.07125-.71424-2.26158-1.07132-3.33291-1.78549-.71417,0-1.19033-.47616-1.78549-.71424a5.61156,5.61156,0,0,1-1.7855-.71417,24.92042,24.92042,0,0,0-2.73774-.95232,28.671,28.671,0,0,0-4.40423-.83318,5.97657,5.97657,0,0,1-1.42841-.23808,2.14559,2.14559,0,0,0-1.19033-.11907c-.35709-.119-.83318-.119-1.19033-.238a6.94182,6.94182,0,0,1-2.73775-.23808,60.1523,60.1523,0,0,0-6.54681.23808c-.47616.35708-1.07133.119-1.54741.238a20.71359,20.71359,0,0,1-2.61874.59516c-.83325.23808-1.7855.59517-2.61874.83325-.83318.23808-1.54742.59516-2.26159.83324-.71424.35709-1.54748.71417-2.38065,1.07126-.47617.23808-1.07133.59516-1.54749.83324-.35709.23808-.71417.35708-1.07125.59517a43.0587,43.0587,0,0,0-3.80907,2.61873,15.11944,15.11944,0,0,1-1.42841,1.19033,14.26967,14.26967,0,0,0-1.42834,1.30934l-.11908.11907a9.59724,9.59724,0,0,1-1.42841,1.66642,2.13647,2.13647,0,0,0-.59516.83325,12.65433,12.65433,0,0,1-1.07125,1.3094h-.23808c-.119,0-.119-.11907-.119-.23808v-7.97522a3.4763,3.4763,0,0,0-.23808-1.07125,4.59284,4.59284,0,0,0-1.30933-2.02358,3.919,3.919,0,0,0-2.26166-.71424H3.69a3.3758,3.3758,0,0,0-1.54741.47616,5.11608,5.11608,0,0,0-1.19033,1.07126c-.119.23808-.23808.59516-.47616.59516C0,215.76688.47609,216.362,0,216.362V333.25242c.47609.119.119.47608.35708.71416a2.135,2.135,0,0,1,.59517.83325,3.37592,3.37592,0,0,0,1.19033,1.07133,3.66527,3.66527,0,0,0,1.54741.35708H24.40176a9.91954,9.91954,0,0,0,1.78549-.47616,6.26312,6.26312,0,0,0,1.42841-1.66642,4.85071,4.85071,0,0,0,.59516-2.14258V295.4a.11655.11655,0,0,1,.119-.119.1166.1166,0,0,0,.119-.11908h.11908a.11657.11657,0,0,1,.119.11908,9.38749,9.38749,0,0,0,1.42841,1.78549,28.17735,28.17735,0,0,0,3.33291,3.21383,26.59722,26.59722,0,0,0,3.571,2.38066,35.66694,35.66694,0,0,0,4.88039,2.14265,20.01626,20.01626,0,0,0,3.809,1.07126,22.73414,22.73414,0,0,0,3.92815.71424,8.19372,8.19372,0,0,1,1.54741.238,6.02883,6.02883,0,0,0,1.54741.23808c.47616,0,.95225.23808,1.54742.23808h3.92814a14.54989,14.54989,0,0,0,3.92808-.23808c.59516-.119,1.19033.11907,1.66641-.23808a9.28213,9.28213,0,0,0,2.61874-.35709,12.55453,12.55453,0,0,0,2.85682-.71417,24.40627,24.40627,0,0,0,4.88033-1.90457c1.42841-.71417,2.73774-1.42841,4.16615-2.26158.83324-.59517,1.78549-1.19033,2.61874-1.7855a34.25881,34.25881,0,0,0,3.2139-2.61873,30.30753,30.30753,0,0,0,4.16616-4.52324c.59516-.83325,1.30933-1.54749,1.78549-2.26166a53.29555,53.29555,0,0,0,3.33291-5.59456,42.1152,42.1152,0,0,0,1.9045-4.04708c.23808-.71424.59516-1.42841.83324-2.14258a29.38231,29.38231,0,0,0,1.19033-3.452,14.58907,14.58907,0,0,0,.83325-3.80907c.59516-1.19033.47608-2.49966.83324-3.809a29.51178,29.51178,0,0,0,.35709-3.2139c.119-.83325.119-1.78549.23808-2.61874,0-1.54749,0-3.0949-.11908-4.64231C99.51152,255.52391,99.39252,253.97643,99.27351,252.54809Zm-28.09182,8.09422a25.04933,25.04933,0,0,1-.23808,2.97583c-.238,1.07125-.35708,2.14258-.59516,3.2139a10.12707,10.12707,0,0,1-.71417,2.0235,20.45833,20.45833,0,0,1-4.28523,6.7849q-.53563.53562-1.07126,1.07132a14.96038,14.96038,0,0,1-4.52323,3.21383c-1.07133.47617-2.26166.95233-3.452,1.42841a4.27763,4.27763,0,0,1-1.30933.23808q-.89276.17852-1.7855.35709h-.35715c-.71417.11908-1.54742.11908-2.26159.23808H46.77994a2.90227,2.90227,0,0,1-1.42841,0c-.47609-.23808-1.07126,0-1.54742-.23808-.35708-.23808-.95225.11908-1.30933-.35709a10.39919,10.39919,0,0,1-2.61874-.59516,21.88564,21.88564,0,0,1-4.76132-2.26166,20.857,20.857,0,0,1-7.261-9.04647c-.23808-.71424-.47616-1.30941-.71424-2.02358a13.0047,13.0047,0,0,0-.59517-2.02357,9.19084,9.19084,0,0,1-.23808-1.78549c-.119-.47609-.119-.95225-.238-1.54742-.11908-.47609.119-.95225-.23808-1.42841-.119-.119,0-.35708,0-.47609a24.601,24.601,0,0,1,.23808-5.1184,20.18766,20.18766,0,0,1,.71416-3.69006,17.76635,17.76635,0,0,1,1.7855-4.76132,20.08567,20.08567,0,0,1,2.49966-3.69c.47616-.47617.83325-1.07133,1.30941-1.54749a18.97611,18.97611,0,0,1,3.92807-2.97582,20.14489,20.14489,0,0,1,3.69-1.54742,15.863,15.863,0,0,1,2.26166-.59516l.95225-.23808c.35715,0,.59516.11907.83324-.238h.23808a23.12066,23.12066,0,0,0,2.85675-.23808h2.97582c.35716,0,.71425.35708,1.19033.23808a2.028,2.028,0,0,1,1.19041,0c.47608.238.83317.119,1.19033.238,1.54741.47616,3.21383.83324,4.76131,1.42841a19.46433,19.46433,0,0,1,4.76132,2.85682,22.94142,22.94142,0,0,1,3.21383,3.571c.59517.83318,1.19033,1.9045,1.7855,2.73775a6.06107,6.06107,0,0,1,.83324,2.02357c.23808.71417.47616,1.30934.71424,2.0235a14.37839,14.37839,0,0,0,.59517,2.14266,5.97571,5.97571,0,0,1,.238,1.42833,16.87136,16.87136,0,0,1,.59516,4.52331Z"/><path class="cls-1" d="M365.66925,271.35528c.23808-.47609,0-1.19033.23808-1.66642.23808-.47616,0-1.19033.35708-1.78549a25.365,25.365,0,0,0,.35709-2.97583,27.16447,27.16447,0,0,0,.23808-3.2139v-4.16615a8.76548,8.76548,0,0,0,.119-3.92815,29.25136,29.25136,0,0,0-.23808-3.33291.43733.43733,0,0,0-.119-.35708q-.17862-.71424-.35709-1.42841c0-.95225-.47616-1.9045-.47616-2.85675a14.39509,14.39509,0,0,1-.59516-2.14265c-.23809-.71417-.35709-1.42834-.59517-2.14258-.47609-1.54741-1.07125-2.97582-1.66642-4.52324a69.74681,69.74681,0,0,0-3.571-6.54681,28.75955,28.75955,0,0,0-3.2139-4.28523,46.09756,46.09756,0,0,0-4.88039-4.76132c-.83325-.71417-1.9045-1.42833-2.85675-2.14258a39.06484,39.06484,0,0,0-6.9039-3.80906c-1.66649-.71417-3.452-1.42834-5.23748-2.02351-1.9045-.47616-3.80907-.95232-5.71357-1.3094a23.406,23.406,0,0,1-2.85674-.35709h-1.7855c-.59516,0-1.19033-.23808-1.66649-.23808-1.42841,0-2.97582,0-4.40423.11908-1.07125.119-2.26158.238-3.45191.47609s-2.49974.47616-3.69007.83324a34.56367,34.56367,0,0,0-4.88032,1.9045,32.82418,32.82418,0,0,0-5.23748,2.97582c-.83324.59517-1.54741,1.07133-2.26158,1.6665a68600.76815,68600.76815,0,0,0-3.09483,2.61873,10.73322,10.73322,0,0,1-1.07133,1.19033,12.02163,12.02163,0,0,0-1.54741,1.9045c-.119.11908-.23808.35716-.47609.47616-.11907,0-.23808.119-.23808,0l-.11907-.11907v-8.09423a3.29483,3.29483,0,0,0-.35709-1.54741,3.61722,3.61722,0,0,0-1.42841-1.54742,4.01216,4.01216,0,0,0-2.02357-.59516h-18.331a4.28033,4.28033,0,0,0-1.30941.238,3.96268,3.96268,0,0,0-1.19033.71424,5.28617,5.28617,0,0,0-.95225,1.30933,3.66538,3.66538,0,0,0-.35708,1.54749v115.1048a2.98064,2.98064,0,0,0,.95225,2.14258,5.50081,5.50081,0,0,1,.83324.83325,1.02884,1.02884,0,0,0,.71424.35708,6.96313,6.96313,0,0,0,1.54742.23808H292.226a3.66484,3.66484,0,0,0,1.54742-.35708,2.37663,2.37663,0,0,0,1.19033-.95225,4.26527,4.26527,0,0,0,1.07132-2.85675V295.281a.4155.4155,0,0,1,.119-.23808c.11908,0,.23809,0,.23809.119a4.91123,4.91123,0,0,0,1.19032,1.54749,33.1998,33.1998,0,0,0,5.23748,4.76132,19.44338,19.44338,0,0,0,4.04708,2.26158,23.297,23.297,0,0,0,4.04715,1.42841,14.38581,14.38581,0,0,1,2.14258.59516c.71417.23808,1.54741.35709,2.26158.59517a22.402,22.402,0,0,0,3.92807.59516,27.32157,27.32157,0,0,0,4.40424.23808c1.42841-.11907,2.97582,0,4.40423,0,.23808,0,.47616.119.59517,0,.83324-.47616,1.66649,0,2.49973-.35715a5.24283,5.24283,0,0,0,1.9045-.238,5.064,5.064,0,0,0,1.30941-.23808c.83324-.35709,1.78549-.47616,2.73774-.83325a31.58952,31.58952,0,0,0,3.571-1.30933c1.9045-.95232,3.80907-2.02358,5.71357-3.0949a42.51706,42.51706,0,0,0,4.52323-3.571,44.36008,44.36008,0,0,0,4.04708-4.16615,45.36077,45.36077,0,0,0,2.85682-3.80907,38.77174,38.77174,0,0,0,2.85675-4.76132c.59516-1.07125,1.07132-2.26158,1.66649-3.45191q.71413-1.7855,1.42841-3.571c.35708-.95225.59516-2.02358.95225-2.97583S365.31216,272.54561,365.66925,271.35528Zm-26.78242-9.64171c-.23808,1.19033-.35708,2.38066-.59516,3.69006a31.92144,31.92144,0,0,1-.83325,3.21391,22.22443,22.22443,0,0,1-1.78549,3.809,29.474,29.474,0,0,1-2.26166,3.0949,14.57357,14.57357,0,0,1-4.04707,3.571,18.22363,18.22363,0,0,1-4.8804,2.26158,26.98175,26.98175,0,0,1-2.97582.71425,7.02208,7.02208,0,0,0-1.66642.23808,3.82269,3.82269,0,0,1-1.66649.119h-3.33291a27.07169,27.07169,0,0,1-3.09483-.23808,9.18321,9.18321,0,0,1-3.0949-.83317,7.327,7.327,0,0,1-2.73774-.83325,11.20012,11.20012,0,0,1-2.61874-1.42841,19.578,19.578,0,0,1-7.38006-8.92747,20.54356,20.54356,0,0,1-1.30933-3.80907c-.11908-.83317-.35709-1.66642-.47616-2.49966a10.47987,10.47987,0,0,0-.23808-2.02358,11.07616,11.07616,0,0,1-.119-3.45191,23.121,23.121,0,0,0,.23808-2.85682c.47609-.47609.119-1.19033.35709-1.78549a9.34083,9.34083,0,0,0,.23808-1.66642,18.50646,18.50646,0,0,1,.95225-2.73782,13.22905,13.22905,0,0,0,.83324-1.90449,17.88719,17.88719,0,0,1,2.73775-3.92808c.35708-.47616.71416-.83324,1.07125-1.3094a19.209,19.209,0,0,1,6.18973-4.04708,15.83778,15.83778,0,0,1,4.04715-1.19033,27.80867,27.80867,0,0,0,3.09482-.47616,27.23234,27.23234,0,0,1,4.40424-.119,8.19337,8.19337,0,0,1,1.54741.238,2.37974,2.37974,0,0,1,1.54742.23808,14.04748,14.04748,0,0,1,4.40423,1.07133,30.3443,30.3443,0,0,1,3.452,1.54741,17.22854,17.22854,0,0,1,4.76132,4.04708,17.97272,17.97272,0,0,1,2.14258,3.0949q.53564,1.07125,1.07125,2.14258c.23808.71424.59517,1.42841.83325,2.14258a9.91932,9.91932,0,0,1,.47616,1.78549q.1785.89275.35708,1.7855a10.41564,10.41564,0,0,0,.23808,1.90457,4.53739,4.53739,0,0,1,.119,1.78549v2.02358A6.52407,6.52407,0,0,1,338.88683,261.71357Z"/><path class="cls-1" d="M492.91543,260.64231v-2.85682a22.92616,22.92616,0,0,1-.119-2.85674c0-1.19033-.35709-2.38066-.23809-3.571v-.23808c-.35708-.35709-.11907-.83325-.23808-1.19033-.11907-.35709-.11907-.83325-.23808-1.19033a9.19017,9.19017,0,0,0-.23808-1.7855,9.48546,9.48546,0,0,1-.35708-1.78549,9.91932,9.91932,0,0,0-.47616-1.78549c-.23808-.83325-.47609-1.7855-.71417-2.73775s-.59517-1.78549-.83325-2.61874A36.36441,36.36441,0,0,0,487.916,234.217c-.83324-1.78549-1.90457-3.45191-2.85682-5.1184a66.21841,66.21841,0,0,0-4.9994-6.42773,5.49718,5.49718,0,0,0-.83324-.83325,6.60375,6.60375,0,0,1-.95225-.71424,24.33581,24.33581,0,0,0-3.92808-2.97582,33.60824,33.60824,0,0,0-3.45191-2.14258c-.83324-.35709-1.66649-.83325-2.61874-1.19033-.83324-.35709-2.02357-.71417-2.97582-1.19033a49.71958,49.71958,0,0,0-6.9039-1.9045,6.9677,6.9677,0,0,1-1.54741-.23808,6.03189,6.03189,0,0,1-1.54742-.23808,3.93392,3.93392,0,0,0-1.66649,0,7.02251,7.02251,0,0,1-1.66641-.23808h-3.0949c-1.07126,0-2.02358.23808-3.09483.23808a14.62531,14.62531,0,0,0-3.21391.23808,6.0284,6.0284,0,0,0-1.54741.23808c-.47616.35708-1.07133,0-1.54741.35708-.47616.35709-1.19033.119-1.66649.23808a6.2824,6.2824,0,0,1-1.42841.35709l-2.61874.71417a35.77964,35.77964,0,0,0-3.80907,1.3094c-.95225.35709-2.02358.83325-2.97583,1.19033s-1.78549.83325-2.61874,1.19033a11.201,11.201,0,0,0-2.61873,1.42841c-1.19033.83318-2.38066,1.54742-3.571,2.38066a37.68331,37.68331,0,0,0-4.16616,3.45191,27.07047,27.07047,0,0,0-3.571,3.80907,26.134,26.134,0,0,0-1.66641,2.14258,36.12543,36.12543,0,0,0-3.452,5.23748,19.36491,19.36491,0,0,0-1.30933,2.73774,29.06218,29.06218,0,0,0-1.19033,2.85675,31.79278,31.79278,0,0,0-1.54741,4.76132,27.61885,27.61885,0,0,0-.83325,4.52331,7.02625,7.02625,0,0,1-.23808,1.66642,3.2958,3.2958,0,0,0-.11908,1.54741c-.119.47616-.119.95232-.23808,1.54749v4.88032a22.38037,22.38037,0,0,0,.23808,4.88039,19.469,19.469,0,0,0,.23808,2.61867c.23808.83325.35709,1.90457.59517,2.85682.11907.95225.59516,2.02358.83324,3.09483.23808.83324.47616,1.54749.71424,2.38066a38.13266,38.13266,0,0,0,1.9045,4.64231,12.98669,12.98669,0,0,1,.71424,1.30934,4.91358,4.91358,0,0,0,.83325,1.3094c.35708.59517.59516,1.19033.95225,1.7855a44.26209,44.26209,0,0,0,3.92807,5.35648c.71417.83324,1.54742,1.66642,2.26158,2.49966a20.71625,20.71625,0,0,0,1.66649,1.42841,22.85668,22.85668,0,0,0,1.7855,1.66649,37.53786,37.53786,0,0,0,3.45191,2.61867q1.96411,1.24986,3.92807,2.49973c1.19033.59517,2.38066,1.07126,3.571,1.66642a31.79317,31.79317,0,0,0,4.28523,1.66649,10.45334,10.45334,0,0,0,2.73775.83325c1.42841.238,2.61874.83317,4.04707.83317a12.21638,12.21638,0,0,0,2.85682.59516,5.972,5.972,0,0,0,1.42841.23809,2.3798,2.3798,0,0,1,1.54742.23808,25.04917,25.04917,0,0,1,2.97582.23808h4.04708a15.43622,15.43622,0,0,0,4.04715-.23808,25.04917,25.04917,0,0,1,2.97582-.23808,8.1885,8.1885,0,0,0,1.54741-.23809,9.49843,9.49843,0,0,1,1.7855-.35708,9.9182,9.9182,0,0,0,1.78549-.47609c.95225-.23808,1.9045-.47616,2.73775-.71424a55.71243,55.71243,0,0,0,5.71356-2.14258,32.07824,32.07824,0,0,0,4.52324-2.26165,47.07056,47.07056,0,0,0,4.04708-2.61867,38.52875,38.52875,0,0,0,4.04715-3.452c.23808-.23808.59516-.47609.95225-.83325.119-.119.35708-.238.47608-.35708a3.721,3.721,0,0,1,1.07133-1.30934,2.14115,2.14115,0,0,0,.71417-1.07132,4.27775,4.27775,0,0,0,.23808-1.30934,3.6652,3.6652,0,0,0-.35709-1.54748,4.66277,4.66277,0,0,0-.95224-1.19033c-.95225-.71417-2.02358-1.42834-2.97583-2.14258-.71417-.47609-1.30933-.95225-2.02357-1.42841l-2.61874-2.0235c-.83325-.71424-1.7855-1.30941-2.73775-2.02358-.95224-.71424-1.90449-1.3094-2.73774-2.02357a4.21529,4.21529,0,0,0-3.09483-1.19033,4.39256,4.39256,0,0,0-2.85682,1.19033,32.285,32.285,0,0,1-4.76131,4.28523c-.83325.59516-1.7855,1.19033-2.61874,1.66642a18.98849,18.98849,0,0,1-2.73775,1.19032,18.67974,18.67974,0,0,1-5.1184,1.07133H448.635a4.53761,4.53761,0,0,1-1.78549-.11908c-.59517-.23808-1.19033.11908-1.7855-.23808a12.08617,12.08617,0,0,1-2.97582-.71417,19.22911,19.22911,0,0,1-4.16616-2.02357q-.71412-.53562-1.42841-1.07125a11.70175,11.70175,0,0,0-1.78549-1.42841c-.119,0-.119-.11908-.23808-.23808a6.41691,6.41691,0,0,0-1.66642-1.9045c-.59516-.83325-1.19033-1.66649-1.66649-2.49974a30.82869,30.82869,0,0,1-1.66642-3.45191c-.35708-.83324-.47616-1.90457-.83324-2.85682a.75852.75852,0,0,1,0-.71417.11659.11659,0,0,1,.119-.11907l.11908-.119h58.08807a20.06625,20.06625,0,0,0,3.80907-.11907,4.52858,4.52858,0,0,0,2.02357-.95225,3.06731,3.06731,0,0,0,.95225-1.54742,4.93435,4.93435,0,0,0,.35708-1.90457A2.83529,2.83529,0,0,1,492.91543,260.64231ZM464.5856,248.50094a.4155.4155,0,0,1-.119.23808c-.11908.119-.11908.119-.23808.119H427.68539a.41637.41637,0,0,1-.35709-.59516c.119-.119.119-.238.119-.47609a14.2873,14.2873,0,0,1,1.7855-6.18973,17.04072,17.04072,0,0,1,3.69006-4.9994,24.62452,24.62452,0,0,1,5.71357-3.69c1.07125-.35708,2.02358-.71424,3.09483-1.07132.35708-.119.83324.11907,1.30941-.238.95224.119,1.90449-.35716,2.97582-.23808a14.34933,14.34933,0,0,0,2.26158,0,19.457,19.457,0,0,1,2.61874.23808c.95225.238,2.02358.59516,2.97582.83317a20.27759,20.27759,0,0,1,4.16616,2.26166,22.84164,22.84164,0,0,1,1.78549,1.66641,14.688,14.688,0,0,1,2.61874,3.452,14.22351,14.22351,0,0,1,1.30941,3.09483q.1785.89274.35708,1.78549c.119.47616.119.95232.23808,1.42841a5.973,5.973,0,0,0,.23808,1.42841C464.5856,248.14385,464.5856,248.38193,464.5856,248.50094Z"/><path class="cls-1" d="M185.69133,214.81463a5.36337,5.36337,0,0,0-1.66641-1.19033,5.56019,5.56019,0,0,0-2.02358-.35716H164.86057a5.79262,5.79262,0,0,0-1.42834.11908,4.4093,4.4093,0,0,0-2.14265.95225,5.60422,5.60422,0,0,0-1.54742,1.78549,5.03267,5.03267,0,0,0-.83324,3.21391v36.186c-.119,3.09483.11908,6.07065-.238,9.04648a19.53941,19.53941,0,0,1-.23808,2.73774,5.97193,5.97193,0,0,1-.23808,1.42841,13.00619,13.00619,0,0,0-.59516,2.02358c-.23808.59516-.47616,1.30933-.71417,1.90449a17.53243,17.53243,0,0,1-1.19033,2.61874,11.3203,11.3203,0,0,1-1.7855,2.38066,15.3273,15.3273,0,0,1-3.571,2.61874,7.404,7.404,0,0,1-3.09491,1.07125c-.23808.47617-.83324.23808-1.07125.35716-.23808.23808-.59516.119-.95232.119a3.4763,3.4763,0,0,1-1.07125.23808h-4.28523c-.238,0-.47609.119-.59517,0-.238-.35709-.59516-.23808-.83317-.23808a1.69237,1.69237,0,0,0-.71424-.23809,7.646,7.646,0,0,1-3.571-1.30933,10.74049,10.74049,0,0,1-3.33291-3.2139,19.34373,19.34373,0,0,1-2.49973-5.23741,6.969,6.969,0,0,0-.238-1.54749c-.23808-.47608.119-1.07125-.35716-1.42833a6.78509,6.78509,0,0,0-.119-1.54749c0-1.42834-.23808-2.73774-.23808-4.16615v-43.685a6.74021,6.74021,0,0,0-.35709-2.14265,5.15764,5.15764,0,0,0-2.38066-3.09483,6.58029,6.58029,0,0,0-2.97582-.83324H101.89211a2.7323,2.7323,0,0,0-1.66642.47616,1.89945,1.89945,0,0,0-1.07133.83317,2.40022,2.40022,0,0,0-.35708,1.30941v2.61874a5.56772,5.56772,0,0,0,1.07132,3.3329,6.65237,6.65237,0,0,1,.59517.95225c.59516.83325,1.19033,1.66649,1.66642,2.49974.59516,1.19033,1.3094,2.38066,1.90457,3.33291.47609.95225.95225,2.02357,1.42833,3.09483.71425,1.54741,1.30941,3.0949,1.90458,4.64231.23808.95225.59516,1.78549.83324,2.73774a26.98143,26.98143,0,0,1,.71417,2.97583,9.544,9.544,0,0,1,.59516,2.49973,5.97244,5.97244,0,0,0,.23808,1.42834,4.93436,4.93436,0,0,1,.35709,1.90457,8.09838,8.09838,0,0,1,.23808,2.38066,2.04885,2.04885,0,0,1,.23808,1.42841c.119.47609.119.95225.238,1.42834a26.86036,26.86036,0,0,0,.11907,4.40423,6.48817,6.48817,0,0,1-.11907,2.61874,7.97065,7.97065,0,0,0,0,2.38066,2.43354,2.43354,0,0,1,0,1.30933,5.79677,5.79677,0,0,0-.119,1.42841,8.19511,8.19511,0,0,0-.23808,1.54742,4.2777,4.2777,0,0,1-.23808,1.3094c-.238.47609,0,.95225-.238,1.42841a5.97244,5.97244,0,0,0-.23808,1.42834c-.119.83324-.35708,1.78549-.47616,2.61874a34.06773,34.06773,0,0,1-.83317,3.33291,47.10052,47.10052,0,0,1-1.78549,5.35648,22.15306,22.15306,0,0,0-1.19033,2.97582c-.35716.95233-.95232,2.02358-1.42841,2.97583a7.22557,7.22557,0,0,0-.59517,2.14265,4.96392,4.96392,0,0,0,.71417,3.21383c.11908.23808.35709.47616.47616.71424a15.11672,15.11672,0,0,0,2.49966,3.45191,19.07,19.07,0,0,0,3.21391,2.97583c1.07132.59516,2.02357,1.42841,3.0949,2.02357a30.08792,30.08792,0,0,0,4.40416,2.14258,26.8951,26.8951,0,0,0,4.40423,1.30941,5.0641,5.0641,0,0,0,1.30941.23808c.59517,0,.95225.238,1.42834.238.47616.11907.83324.11907,1.3094.23808,1.30934.119,2.61874.23808,3.92808.23808h2.97582a17.92825,17.92825,0,0,0,3.571-.11908,23.83913,23.83913,0,0,1,2.85682-.47609,29.81914,29.81914,0,0,0,3.09483-.83324q.89274-.35712,1.78549-.71417a12.96038,12.96038,0,0,0,2.97583-1.19033,21.56726,21.56726,0,0,0,3.92807-2.38066c.95232-.71424,1.90457-1.42841,2.73781-2.14265a24.57238,24.57238,0,0,0,3.33291-3.69c.59517-.95225,1.30934-1.7855,1.9045-2.73775l.35716-.35716h.119a.11663.11663,0,0,0,.11908.11908v7.142a5.7068,5.7068,0,0,0,.59516,2.02357,6.18256,6.18256,0,0,0,2.0235,2.26159,5.61342,5.61342,0,0,0,1.7855.71424,25.067,25.067,0,0,0,2.97582.238h10.594a18.19054,18.19054,0,0,0,4.40424-.119,5.89158,5.89158,0,0,0,1.54741-.47616,5.58847,5.58847,0,0,0,2.38066-2.0235,5.5073,5.5073,0,0,0,.95225-2.97583V259.33291c0-13.56971,0-27.02042.119-40.82829a4.74525,4.74525,0,0,0-.83324-2.85682A5.50018,5.50018,0,0,0,185.69133,214.81463Z"/><path class="cls-1" d="M258.1825,211.24364h-1.66641c-.47616.119-.95225-.23808-1.54742-.23808h-3.2139c-1.19033,0-2.26166.35708-3.33291.23808-.23808,0-.35716.23808-.71424.23808h-1.07125a12.5645,12.5645,0,0,1-2.26166.59516,22.147,22.147,0,0,0-3.69,1.19033,26.25127,26.25127,0,0,0-7.142,4.88033c-.83324.71416-1.42841,1.54741-2.14258,2.26165-.83324,1.07125-1.66649,2.14258-2.49973,3.33291a34.57385,34.57385,0,0,0-2.38066,3.92807c-.119.119-.119.23808-.23808.23808,0,.119-.119.119-.23808.119a.11656.11656,0,0,1-.119-.119v-10.594a3.80146,3.80146,0,0,0-.35708-1.66642,4.45862,4.45862,0,0,0-1.42841-1.54748,3.9126,3.9126,0,0,0-2.02358-.47609H201.52277a3.49288,3.49288,0,0,0-1.90449.47609,5.0755,5.0755,0,0,0-1.30941,1.42841,5.4186,5.4186,0,0,0-.59516,2.38066v41.42345h-.71432v41.66153q.17862.71424.35716,1.42841a2.46939,2.46939,0,0,0,.71417,1.19033,2.42108,2.42108,0,0,0,1.07132.71424,4.53493,4.53493,0,0,0,1.19033.35709c.47609,0,.83325.23808,1.30934.23808h19.16435a4.6316,4.6316,0,0,0,2.73774-.83325,3.45776,3.45776,0,0,0,1.30933-1.3094,3.35923,3.35923,0,0,0,.47616-1.7855V271.47428c.119-3.2139-.119-6.4278.23808-9.64164a33.61946,33.61946,0,0,1,.23808-3.452c.23808-.83325,0-1.54741.23808-2.38066a14.65531,14.65531,0,0,0,.23808-2.38066v-.23808a4.9894,4.9894,0,0,0,.47609-1.78549c.119-.35709.23808-.83318.35709-1.19033.47616-1.30934.83324-2.38066,1.3094-3.571.47616-.95225.95225-1.7855,1.42841-2.61867a14.36053,14.36053,0,0,1,2.49967-2.85682,15.99145,15.99145,0,0,1,3.69006-2.61874,20.48488,20.48488,0,0,1,5.35648-1.9045,5.9725,5.9725,0,0,0,1.42841-.23808c.47609-.35708.95225-.119,1.30934-.23808a2.56369,2.56369,0,0,1,1.3094-.238c.59517-.11907,1.07126.119,1.54742-.23808h5.35648a1.29834,1.29834,0,0,0,1.42841.23808c.59516-.11907.95225.238,1.42841.238a5.56843,5.56843,0,0,1,2.02357.23808c.71417.35709,1.30934-.23808,2.02358-.119a4.15609,4.15609,0,0,0,1.78549-1.42841,3.42216,3.42216,0,0,0,.83325-2.14258V215.05271a3.86612,3.86612,0,0,0-3.69007-3.80907Z"/><path class="cls-1" d="M388.76181,175.77176h-20.2356a3.0998,3.0998,0,0,0-1.78549.47616,4.84576,4.84576,0,0,0-1.42841,1.66642,4.3585,4.3585,0,0,0-.47616,2.14265V210.6484a30.56058,30.56058,0,0,0,.11907,5.71364,14.04044,14.04044,0,0,0,.47609,2.38066A17.50378,17.50378,0,0,0,367.693,223.504q.89274,1.24986,1.78549,2.49966a20.71531,20.71531,0,0,1,1.30933,2.14258,19.25176,19.25176,0,0,1,1.19033,2.14265q.53564,1.07126,1.07133,2.14258l1.54741,3.571c.71417,1.54741.95225,3.33291,1.7855,4.9994.238,1.66641.95225,3.33291,1.07125,5.1184a16.3458,16.3458,0,0,1,.59516,3.33291c.23809.59516,0,1.19033.23809,1.78549v1.54742a6.02988,6.02988,0,0,1,.23808,1.54748v4.04708a15.4364,15.4364,0,0,1-.23808,4.04715c.119,1.19033-.35709,2.38066-.23809,3.571v.35708c-.35708.23808-.119.59517-.23808.95225a3.47627,3.47627,0,0,0-.23808,1.07133,8.03413,8.03413,0,0,1-.23808,1.66641c-.23808.47616-.119.83325-.23808,1.19033-.23808.71424-.35708,1.42841-.59516,2.14258-.23808.71424-.35709,1.42841-.59517,2.14265-.59516,1.7855-1.19033,3.45192-1.78549,5.11841-.47616,1.19033-.95225,2.26165-1.42841,3.3329a30.75021,30.75021,0,0,1-2.26158,4.40424c-.59517.95225-1.07133,1.9045-1.66649,2.73774a18.76368,18.76368,0,0,0-1.7855,2.85682,17.525,17.525,0,0,0-1.19033,2.61867,18.07061,18.07061,0,0,1-.71417,2.38066,165006.93031,165006.93031,0,0,1-.47616,2.61874v3.333a6.2752,6.2752,0,0,0,.35709,1.42833,3.28588,3.28588,0,0,0,1.42841,1.90458,4.55848,4.55848,0,0,0,2.26158.59516h19.99752a3.666,3.666,0,0,0,1.54742-.35708,3.28619,3.28619,0,0,0,1.90457-1.42841,4.55882,4.55882,0,0,0,.59516-2.26166V242.43029c0-20.83077,0-41.78061.35723-62.73046a5.63578,5.63578,0,0,0-1.19033-2.85674A5.13887,5.13887,0,0,0,388.76181,175.77176Z"/><path class="cls-1" d="M511.72262,220.52819c-2.02357-11.66521-21.30685-8.3323-18.80719,3.452C494.46292,236.35956,514.57944,232.90765,511.72262,220.52819ZM495.058,222.43277c.23808-9.76072,14.76011-9.52271,14.522.238C509.223,232.31249,495.17708,231.71732,495.058,222.43277Z"/><path class="cls-1" d="M504.22363,222.67077l.119-.119a2.57715,2.57715,0,0,0,1.78549-2.26166,3.16931,3.16931,0,0,0-.35708-1.42841,1.9,1.9,0,0,0-1.07126-.83324,2.4,2.4,0,0,0-1.3094-.35709,20.204,20.204,0,0,0-4.64224.11908c-.23809.119-.35709.119-.35709.35709v8.09422c0,.83325,0,.83325.83325.83325h1.30933l.11908-1.42841a10.89445,10.89445,0,0,1,.119-2.02358,3.39824,3.39824,0,0,1,1.54741,0,1.029,1.029,0,0,1,.71425.35716.71966.71966,0,0,1,.35708.71417c.119.71424.47609,1.42841.59516,2.02357.23808.83325,1.30934.35709,2.02358.47609.476,0,.476,0,.357-.59516C505.89005,225.17051,506.00913,223.26594,504.22363,222.67077Zm-.71424-1.30933a2.48907,2.48907,0,0,1-.71417.47609,2.31981,2.31981,0,0,1-.95225.11907l-1.19033-.11907a4.04845,4.04845,0,0,0-.11907-1.19033v-1.19033a.11659.11659,0,0,1,.11907-.119l.119-.11908h.23808C502.43807,219.09978,504.58072,219.695,503.50939,221.36144Z"/></svg>