<svg id="Layer_1" data-name="Layer 1" xmlns="http://www.w3.org/2000/svg" viewBox="0 0 512 512"><defs><style>.cls-1{fill:#383838;}</style></defs><path class="cls-1" d="M263.92266,305.3485h14.3599V204.3348h-14.3599Z"/><path class="cls-1" d="M46.54529,276.62871c7.42747-.495,15.35028-3.46591,19.80658-9.90329,5.942-9.90329,4.95165-24.26288-3.96125-31.69035-7.42747-6.93243-18.32115-7.92282-27.7291-7.92282H0v77.7409H14.85494V237.51089H26.24366c5.44669,0,10.89368-.49535,15.84533.99039,4.4563.99009,8.9129,3.46591,11.38872,7.42747a12.80271,12.80271,0,0,1-.99038,13.86455,18.51235,18.51235,0,0,1-9.9033,5.942c-7.42747,1.98048-15.35,1.48543-22.77745,1.48543,6.43708,7.92252,13.36951,15.35,19.80659,22.77745,4.95164,5.447,9.40794,10.89369,14.35959,15.35029H75.26508C65.85683,295.94025,55.95354,286.532,46.54529,276.62871Z"/><path class="cls-1" d="M200.54166,242.46254c6.93212-2.47583,14.85493-2.47583,21.292.99038,4.45661,2.47583,7.42747,6.93213,9.9033,11.38873h15.84532c-3.46621-13.86455-15.35028-24.26319-29.21483-26.739a41.83971,41.83971,0,0,0-27.72909,4.95165c-7.42747,4.4566-13.36951,11.88407-16.83572,20.30193a41.36361,41.36361,0,0,0,4.4566,37.13734,39.20721,39.20721,0,0,0,19.80658,14.85494,43.99991,43.99991,0,0,0,28.71949-1.98078c9.408-4.4563,17.33076-12.87416,20.30163-23.2728H231.24162c-1.98048,2.97117-3.46591,5.942-5.94173,7.92282-8.41786,8.41755-23.2728,7.92251-31.69066,0-7.92251-7.42747-10.39833-19.80659-6.93242-30.20522C189.15263,251.37544,193.60923,244.93836,200.54166,242.46254Z"/><path class="cls-1" d="M467.93053,261.77407c-3.96125-1.98077-8.41786-2.47582-12.87446-3.96155-2.47582-.99009-5.44669-1.98048-7.42747-3.96126-2.97086-2.97087-2.97086-7.92251,0-10.39834,3.46622-3.46621,9.40825-3.96125,13.86485-2.47582,3.46591,1.48544,5.44669,4.95165,6.43708,8.41786h15.84533c.495-3.46621-.99039-7.42777-2.97117-10.39864a26.87975,26.87975,0,0,0-13.86455-9.40825,34.29921,34.29921,0,0,0-22.2824.49535,22.01708,22.01708,0,0,0-13.36951,12.37912c-3.46621,7.42746-1.98047,16.83571,3.96126,21.78736,6.43738,5.44669,14.85494,6.93212,22.28241,9.40794,3.96155,1.48574,8.9132,2.97117,11.389,6.43739,2.97087,4.4563.99009,10.89337-3.96156,13.3692-5.942,2.97117-13.86454,2.47582-18.81619-1.48544-2.97087-2.47582-3.96126-6.43708-4.95165-10.39833H425.3462a24.87978,24.87978,0,0,0,2.97117,11.88377,27.21959,27.21959,0,0,0,11.38872,9.90329,38.6251,38.6251,0,0,0,27.7291,2.97117c5.942-1.48574,11.88407-4.95165,15.35028-9.90329,4.4563-6.93243,4.95165-16.83572.495-23.76815C479.8143,267.22076,473.87227,263.75455,467.93053,261.77407Z"/><path class="cls-1" d="M393.1605,271.67737c0,5.94173-1.48543,12.87416-5.94173,17.33076-4.45661,4.4563-11.389,5.94173-17.33076,4.95164-4.45661-.99039-8.91321-3.46621-11.389-7.42747-3.96126-6.43738-3.46591-13.86485-3.46591-21.29231V229.58807h-14.3599v44.56512c.495,8.41756,1.98078,17.8258,8.41786,24.26288,8.41786,8.41786,21.292,10.89368,32.68074,7.92282a20.53814,20.53814,0,0,0,12.87447-8.41786v7.92251h12.87415V230.08342H393.1605Z"/><path class="cls-1" d="M139.63647,269.20124c0,5.942-.99039,12.87446-4.95164,17.82611a20.186,20.186,0,0,1-13.36951,6.43708c-4.95164.495-11.38872-.495-14.85493-4.95165-3.96126-4.95164-4.95165-11.38872-4.95165-17.8258V229.58807H86.6538v42.58434c.495,9.40795,1.98048,18.81619,8.41786,25.74862,8.41756,8.41756,21.292,10.89338,32.68074,7.92251a20.53547,20.53547,0,0,0,12.87416-8.41786v7.92282h13.36951V229.093h-14.3596Z"/><path class="cls-1" d="M329.77949,229.58807h-17.8258c-8.41786,12.37912-17.33076,24.26319-25.74862,36.6423,9.40825,12.37912,19.31154,24.75823,28.71949,37.63239a4.209,4.209,0,0,0,2.47582,1.48574H334.2361c-10.39864-13.36951-21.29232-26.739-31.69066-40.10851C311.45834,253.35622,320.86659,241.47215,329.77949,229.58807Z"/><path class="cls-1" d="M497.14506,237.01554h-5.942c-.495.49535-.495.49535-.495.99039.99039,0,1.98048.49535,2.97087.49535v7.92251h1.48543v-7.92251a6.279,6.279,0,0,0,2.97117-.49535C497.64041,237.51089,497.14506,237.51089,497.14506,237.01554Z"/><path class="cls-1" d="M509.52418,236.02546c-1.48544,2.47582-2.47583,4.95164-3.96126,7.42746-1.48543-2.47582-2.47582-4.95164-3.96126-7.42746a103.60285,103.60285,0,0,0-2.47582,10.39833h1.48543c.49535-1.98078.99039-3.96125,1.48574-5.44669a36.91555,36.91555,0,0,0,3.46591,5.94174,36.94028,36.94028,0,0,1,3.46621-5.94174,21.05258,21.05258,0,0,0,.99039,5.44669H512C511.00991,242.95758,510.51457,239.49137,509.52418,236.02546Z"/></svg>