<svg id="Layer_1" data-name="Layer 1" xmlns="http://www.w3.org/2000/svg" viewBox="0 0 512 512"><defs><style>.cls-1{fill:#383838;}</style></defs><path class="cls-1" d="M48.978,247.87328H35.40219c-6.09282,0-8.12281-.25094-10.65985-1.39516-3.0489-1.39531-4.823-4.43906-4.823-8.25093,0-4.43906,2.15812-7.73891,5.70875-8.62469,2.66249-.63484,3.29734-.63484,11.29218-.76031H74.73406V213.74344H32.86266c-9.89953,0-14.33844.37625-18.14516,1.77406C5.96219,218.56391,0,227.95391,0,238.73922a24.68659,24.68659,0,0,0,7.99234,18.65219c4.43907,3.80672,11.03875,5.58328,21.18657,5.58328H44.78719c4.06015,0,7.36515.50953,9.13922,1.52328a9.7714,9.7714,0,0,1,5.45531,9.01375,8.83363,8.83363,0,0,1-4.18813,7.73625c-2.15812,1.39531-5.83937,2.03016-12.56187,2.03016H4.05766V298.377H46.56891c12.567,0,17.89453-.76031,22.08-3.42281,6.59718-4.06266,10.78531-12.43391,10.78531-21.4425,0-7.36266-2.53953-14.85313-6.34625-18.65735C68.137,249.778,61.41438,247.87328,48.978,247.87328Z"/><path class="cls-1" d="M169.39516,252.45828l-.16891-2.31937-.22781-2.27594-.297-2.21938-.3686-2.15047-.42234-2.08125-.48906-2.01468-.26625-.98313-.28407-.96-.297-.94968-.30969-.91391-.32-.91141-.34313-.88328-.35828-.855-.37391-.84984-.37625-.80907-.39687-.79875-.412-.77562-.425-.745-.44547-.72953-.448-.70906-.46859-.67594-.48126-.65016c-6.47671-8.39422-18.53953-13.09437-33.64093-13.09437-11.927,0-22.33344,2.92093-28.93047,8.25078-8.37375,6.59969-12.81281,18.91078-12.81281,35.15391,0,11.28968,2.40375,20.55937,7.35734,27.53546,6.59719,9.52063,19.41766,14.853,35.65828,14.853,11.42016,0,21.06625-2.798,27.4125-7.87187,8.37375-6.72,13.07641-18.91328,13.07641-33.76141l-.03828-2.42172Zm-41.4975,32.2125c-15.22438,0-22.08-9.01375-22.08-28.80515l.01015-.83454.01032-.82437.01281-.80891.03328-.79875.03578-.78078.03578-.77578.04609-.75516.05641-.745.06656-.73468.06907-.70907.07937-.69375.08969-.68609.092-.67578.1025-.66563.11516-.64.11515-.64.128-.61437.13828-.59406.13828-.59391.1511-.57344.15859-.56312.15875-.55047.16906-.52469.18422-.51469.19453-.50171.19469-.49157.20735-.46844.21749-.46843.21516-.44547.22781-.425.24063-.41469.24062-.39672c3.42782-5.46312,9.89953-8.51968,18.14532-8.51968,15.1014,0,21.82656,8.89078,21.82656,28.68218C149.72422,275.662,142.87109,284.67078,127.89766,284.67078Z"/><path class="cls-1" d="M221.41953,213.74344H179.17438V298.382h18.007V268.80391h28.94343c9.64344,0,14.19766-1.25954,19.14875-5.44782,5.83688-4.94578,9.39266-13.19422,9.39266-22.08a28.821,28.821,0,0,0-7.61094-19.7989C241.47453,215.25891,236.265,213.74344,221.41953,213.74344Zm9.77406,37.56031-.18171.15859-.18438.15625-.19453.1511-.192.15093-.20735.13579-.20484.128-.2175.12547-.22781.11766-.23047.11016-.24063.11515-.24062.09469-.25094.09984-.26625.09219-.26359.07422-.27391.08187-.28672.07938-.29453.06406-.29687.05375-.30985.05625-.32.05641-.33015.04609-.33282.0461-.35578.03578-.35594.04609-.36609.02563-.38906.023-.38906.02562-.39938.02313-.41484.00765-.42485.01281h-.43531l-.448.01016H197.17625V228.84484h24.87563a21.19027,21.19027,0,0,1,6.59968.75766c3.93719,1.39531,6.22328,5.45547,6.22328,11.03625C234.87484,245.33641,233.47453,249.39906,231.19359,251.30375Z"/><polygon class="cls-1" points="313.669 248.383 281.06 248.383 281.06 213.743 263.04 213.743 263.04 298.372 281.06 298.372 281.06 263.482 313.669 263.482 313.669 298.372 331.689 298.372 331.689 213.743 313.669 213.743 313.669 248.383"/><path class="cls-1" d="M425.833,252.45828l-.16891-2.31937-.23047-2.27594-.29953-2.21938-.36609-2.15047-.425-2.08125-.48125-2.01468-.27391-.98313-.2739-.96-.29438-.94968-.32-.91391-.32-.91141-.34562-.88328-.35578-.855-.3661-.84984-.38922-.80907-.39937-.79875-.40953-.77562-.425-.745-.44547-.72953-.44532-.70906-.47625-.67594-.48124-.65016c-6.46657-8.39422-18.51126-13.09437-33.61532-13.09437-11.92453,0-22.33094,2.92093-28.93062,8.25078-8.37375,6.59969-12.82547,18.91078-12.82547,35.15391,0,11.28968,2.41406,20.55937,7.37015,27.53546,6.58954,9.52063,19.41,14.853,35.65563,14.853,11.42531,0,21.06125-2.798,27.39969-7.87187,8.37375-6.72,13.0739-18.91328,13.0739-33.76141l-.03578-2.42172Zm-41.477,32.2125c-15.22438,0-22.08-9.01375-22.08-28.80515v-.83454l.01015-.82437.02563-.80891.02047-.79875.03578-.78078.05125-.77578.04609-.75516.05375-.745.05375-.73468.06906-.70907.08969-.69375.07938-.68609.08953-.67578.105-.66563.11016-.64.12031-.64.12531-.61437.13578-.59406.14078-.59391.15094-.57344.15875-.56312.15875-.55047.17922-.52469.17922-.51469.18437-.50171.19453-.49157.20485-.46844.22015-.46843.215-.44547.23032-.425.24062-.41469.25609-.39672c3.42016-5.46312,9.89438-8.51968,18.14532-8.51968,15.09375,0,21.8239,8.89078,21.8239,28.68218C406.17984,275.662,399.32422,284.67078,384.35594,284.67078Z"/><path class="cls-1" d="M505.66391,254.85437c-4.9561-5.0764-11.68125-6.98109-24.11516-6.98109H467.97313c-6.09532,0-8.12547-.25094-10.65469-1.39516-3.05157-1.39515-4.83078-4.43906-4.83078-8.25093,0-4.43906,2.15812-7.73891,5.7139-8.62469,2.65985-.63484,3.29469-.63484,11.28969-.76031H507.305V213.74344H465.43109c-9.89437,0-14.34125.37625-18.14531,1.77406-8.76031,3.04641-14.72,12.43641-14.72,23.22172a24.698,24.698,0,0,0,7.99485,18.65219c4.43906,3.80672,11.03874,5.58328,21.18921,5.58328h15.61078c4.06016,0,7.35485.50953,9.13407,1.52328a9.767,9.767,0,0,1,5.45547,9.01375,8.84255,8.84255,0,0,1-4.18563,7.73625c-2.16062,1.39531-5.83937,2.03016-12.55937,2.03016H436.62844v15.09624h42.50625c12.56453,0,17.89453-.76031,22.08-3.42265C507.81437,290.88891,512,282.51781,512,273.50906,512,266.14656,509.46563,258.65859,505.66391,254.85437Z"/></svg>