<svg id="Layer_1" data-name="Layer 1" xmlns="http://www.w3.org/2000/svg" viewBox="0 0 512 512"><defs><style>.cls-1{fill:#383838;}</style></defs><path class="cls-1" d="M85.68925,201.60428h25.34944L65.77632,269.44852l-2.64548,39.60159H40.59867l2.396-42.2083L0,201.60428H25.34944l30.1704,45.77791Zm79.33062,73.56308H102.53738c.9776,10.28471,6.90042,17.87244,20.65652,17.87244,8.6693,0,15.03191-3.70062,19.018-9.42263H162.2036c-6.45685,15.61824-21.87885,26.77855-39.40951,26.77855-22.46718,0-39.81236-18.29573-38.74649-40.86568,1.06687-22.57015,20.14217-40.86571,42.60913-40.86571,22.46636,0,39.81253,18.29556,38.74547,40.86571ZM146.2921,260.753c-2.457-9.36716-10.236-16.08606-19.92366-16.08606-9.87873,0-18.53054,6.04808-22.1574,16.08606Zm117.50827-30.04038-5.557,78.33752H235.71021l.6903-9.73518c-4.84144,7.65573-12.99024,11.08079-27.0901,11.08079-20.85275,0-36.95232-18.29573-35.9632-40.86568.99131-22.57015,20.684-40.86571,41.5365-40.86571,13.63879,0,21.7023,3.38214,25.67769,12.01546l.7066-9.9672ZM236.3715,269.35031c.87757-12.63774-8.38979-22.88249-20.69947-22.88249-12.31069,0-22.1574,8.93035-23.8748,22.88249A20.59952,20.59952,0,0,0,212.49748,292.238C227.35861,292.238,235.4967,281.992,236.3715,269.35031Zm66.00038-67.746H279.83971l-7.62253,107.44583h22.53217Zm35.2886,18.71206,1.32791-18.71206H316.45622l-1.32791,18.71206Zm-23.27,10.39625-5.557,78.33752h22.53237l5.55679-78.33752Zm86.31534-1.26966c-9.9002,0-20.0702,4.69472-27.92972,12.0049l.76108-10.73524H351.005l-5.55679,78.33752H367.9804l3.4676-48.89121c4.29668-6.89468,10.76228-11.57962,17.0724-11.57962,6.68688,0,11.54861,6.25087,12.63018,13.80957l-3.51233,46.66126h23.52626s2.693-43.76546,3.50063-56.90223C425.47292,239.0111,414.71641,229.44293,400.70583,229.44293ZM512,230.71259H486.83686l-26.31053,39.64553,4.87544-68.72282H442.8696l-7.62273,107.44583H457.779l2.621-36.93384,26.43678,36.90282H512l-26.9883-37.67165Z"/></svg>