<svg id="Layer_1" data-name="Layer 1" xmlns="http://www.w3.org/2000/svg" viewBox="0 0 512 512"><defs><style>.cls-1{fill:#383838;}</style></defs><path class="cls-1" d="M288.13243,270.691h0a49.68247,49.68247,0,1,1-99.34326,2.07523q-.0216-1.03751,0-2.07523v-43.025a32.30157,32.30157,0,0,1,23.78541,31.13187v11.89313a25.93991,25.93991,0,1,0,51.769,0V246.20526c1.04861-20.98773,18.88853-27.63392,23.43692-30.08233h.35021v54.568ZM160.45682,220.32029a46.08006,46.08006,0,0,1,18.5386,3.498V250.4029a28.60736,28.60736,0,0,0-18.5386-6.64619,27.84911,27.84911,0,0,0-28.33035,27.35957q-.00237.13716-.00345.27432v50.02068H108.33761V229.76506a34.02649,34.02649,0,0,1,16.09118,4.89706,50.75,50.75,0,0,1,36.02831-14.3415M46.42351,298.67488a27.99217,27.99217,0,1,1,28.68386-27.98362,28.4463,28.4463,0,0,1-28.68386,27.98362m0-78.35426A50.37548,50.37548,0,1,0,77.90515,310.568c5.24709,8.74489,20.28749,10.49384,20.28749,10.49384V270.69122a51.14546,51.14546,0,0,0-51.769-50.3706M460.231,298.67488a27.99217,27.99217,0,1,1,28.684-27.98362,28.44637,28.44637,0,0,1-28.684,27.98362m0-78.35426a50.37548,50.37548,0,1,0,31.48164,90.2474C496.95974,319.31291,512,321.06186,512,321.06186V270.69122a51.14547,51.14547,0,0,0-51.769-50.3706M350.3956,298.67488a28.00416,28.00416,0,1,1,.66614.00825q-.33307-.00017-.66614-.00825m0-78.35426a53.98,53.98,0,0,0-28.684,8.39515v-8.04523c-1.04861-20.98773-18.19013-27.63392-22.7368-30.08233h-.3502V321.41179s15.39075-1.749,21.338-10.14415a54.33915,54.33915,0,0,0,30.43275,9.79444,50.3895,50.3895,0,0,0,2.75818-100.74125q-1.37895-.03774-2.75818,0"/></svg>