<svg id="Layer_1" data-name="Layer 1" xmlns="http://www.w3.org/2000/svg" viewBox="0 0 512 512"><defs><style>.cls-1{fill:#383838;}</style></defs><path class="cls-1" d="M345.71312,182.817H294.72751V233.5311l-70.33136,55.31034L210.9105,278.24956l70.26862-55.3-28.44368-22.29122-70.25808,55.20594-13.50649-10.57129L239.25,190.05587l-28.402-22.354L134.16544,227.995A73.54139,73.54139,0,0,0,65.6101,182.817H0V328.97418H65.60986a74.08469,74.08469,0,0,0,68.57642-45.03191l76.66148,60.35583,83.87975-66.04854v50.90229H396.57375V286.31356H345.71312ZM60.126,286.97157H49.06378V224.84022H60.44969c18.60392,0,31.74476,11.24989,31.74476,31.05514C92.19445,277.57048,77.42414,286.97157,60.126,286.97157Z"/><polygon class="cls-1" points="461.159 286.353 461.159 182.833 410.122 182.833 410.122 329.167 512 329.167 512 286.353 461.159 286.353"/></svg>