<svg id="Layer_1" data-name="Layer 1" xmlns="http://www.w3.org/2000/svg" viewBox="0 0 512 512"><defs><style>.cls-1{fill:#383838;}</style></defs><path class="cls-1" d="M118.90476,296.07981c-.88288,4.439-8.64514,21.42247-11.64939,23.66636H54.28175V271.6531H95.61827a59.55682,59.55682,0,0,1,10.52114,18.038c1.116,3.38442,3.06321,2.28074,3.00425-1.50811-.19623-10.16554-.37956-34.93558.36789-48.44868.03685-.76005-2.25618-2.63605-3.37214.35591-3.1022,8.28923-7.89677,16.54192-10.91329,17.67016H54.28175V215.67584h48.85342a62.764,62.764,0,0,1,12.76535,20.29423c.44128,2.23192,3.38472,2.62438,3.00424.3682V201.78256L2.06847,201.403l.00031-.00092c-1.49613.38018-2.33019,3.16362-.76035,3.75231,15.05807,5.65288,20.6744,4.89284,20.6744,24.42671v71.75944c0,26.29074-2.26846,21.42247-20.6744,30.05533-1.82687.87059-1.88829,4.75772.76035,4.51235a300.64358,300.64358,0,0,1,37.19175-1.50811l83.02865,1.12824v-39.8281C122.28918,294.20381,119.28555,294.20381,118.90476,296.07981Z"/><path class="cls-1" d="M353.33677,332.52472c-3.0414-.51468-21.39821-8.26466-22.90632-11.64908l-10.889-104.43883c1.86372-2.63635,19.90177-10.153,21.40988-10.90132,1.50872-.74807,1.14114-4.51205-.74745-4.13249-1.86372.38018-13.52539,1.50842-16.52964,1.50842H286.85l-43.21252,84.52447L201.9331,201.78318,147.46365,200.643l-.00061-.00062c-2.63635,0-1.43441,3.752-.36789,4.14447,7.16129,2.62437,22.90631,4.13248,21.79036,16.52963l-9.025,75.14416c-3.37213,34.18751-8.20355,29.90793-22.91829,34.5554-5.2116,1.65551-1.12824,4.51266,1.14022,4.14477a573.09733,573.09733,0,0,1,57.84189-.37956c1.49613.15938,1.49613-2.63605-.36789-3.38442-1.876-.74807-17.65757-3.76459-21.042-10.52115l8.26466-87.9092L230.12379,335.529h8.63287l51.846-104.8187,7.51691,90.91344c-2.62407,4.51235-14.65333,8.65712-20.66212,10.52084-5.1253,1.60668-.37956,3.45321.74837,3.38442,11.33033-.74838,63.88693-.74838,75.51175,0C354.9066,335.60267,355.60523,332.90459,353.33677,332.52472Z"/><path class="cls-1" d="M462.41079,295.70117c-1.116,1.50811-6.89136,23.53155-12.39715,26.30271a40.79644,40.79644,0,0,1-54.78851-18.08134q-.63982-1.26951-1.18935-2.58077a77.72227,77.72227,0,0,1,4.1202-72.50751,37.37,37.37,0,0,1,46.229-16.52963c6.37637,3.75231,10.30035,12.07839,13.14521,22.5504,1.12824,4.12021,3.76459,3.37214,4.13249.355l.0003.00061,1.12824-34.56768c-15.42595-1.864-53.43947-8.11757-84.91693,15.0335-32.64255,24.022-41.55732,85.44451.76035,113.09595,28.16674,18.406,79.64423,5.62862,83.40883,3.75262,1.49582-.74776,3.37213-1.87631,3.37213-3.38442,0-1.50841.37956-32.3112.37956-33.80733S463.539,294.205,462.41079,295.70117Z"/><path class="cls-1" d="M510.50387,211.544c-1.21392,1.82718-4.51236,8.26436-6.38867,8.64515h-18.038s11.64939-9.013,17.30227-14.65363c11.46544-11.46545,8.25269-22.17054,3.35985-27.05078-4.86827-4.88056-18.78611-10.141-34.54311,4.51266l-.00031.00061c-1.14022,3.00394,1.116,4.88025,4.50038,3.00394,21.17741-11.77161,22.15825,8.265,16.14976,15.78187a141.707,141.707,0,0,1-22.15794,22.9183v6.37637c4.88055,0,36.05122,0,41.312.37957V212.30432C512,210.7956,511.26422,210.428,510.50387,211.544Z"/></svg>