<svg id="Layer_1" data-name="Layer 1" xmlns="http://www.w3.org/2000/svg" viewBox="0 0 512 512"><defs><style>.cls-1{fill:#383838;}</style></defs><polygon class="cls-1" points="293.332 230.923 293.332 284.77 293.332 284.791 307.364 284.791 307.364 227.309 293.332 227.309 293.332 230.923"/><polygon class="cls-1" points="233.735 240.074 246.983 240.074 246.983 284.77 246.993 284.77 261.025 284.77 261.025 240.074 286.426 240.074 286.426 227.291 233.735 227.291 233.735 240.074"/><path class="cls-1" d="M206.05482,227.30534H162.24948v57.46174h14.03335V262.16426h28.8826a15.83619,15.83619,0,0,1,5.58636.48733,2.88244,2.88244,0,0,1,1.4741,2.50251v19.62707h13.61369V268.32661a10.31208,10.31208,0,0,0-1.95684-7.3999,5.11452,5.11452,0,0,0-1.648-1.24735l-.52469-.26013a13.59587,13.59587,0,0,0,4.75392-10.1783v-4.093c-.02-4.90259-.48871-9.61365-4.02376-13.21469C218.84312,228.44108,213.61977,227.32861,206.05482,227.30534Zm6.37317,19.50733a3.03639,3.03639,0,0,1-1.45756,2.5068,17.96637,17.96637,0,0,1-6.30673.49974v-.00138H176.283v-9.75864H203.6232c4.4024.00444,6.256-.107,7.35075.48748a2.98083,2.98083,0,0,1,1.45756,2.5068Z"/><polygon class="cls-1" points="0.005 227.288 0.005 230.906 0.005 284.755 14.04 284.755 14.04 262.171 56.556 262.171 56.556 249.822 14.04 249.822 14.04 240.057 63.459 240.057 63.459 227.276 0 227.276 0.005 227.288"/><polygon class="cls-1" points="508.176 227.291 455.485 227.291 455.485 240.074 468.732 240.074 468.732 284.77 468.742 284.77 482.777 284.77 482.777 240.074 508.176 240.074 508.176 227.291"/><path class="cls-1" d="M376.79217,232.2087a20.335,20.335,0,0,0-13.57786-4.9055l-45.32491-.03767V284.7804h14.09291l-.00444-.02052-.02971-44.72994H363.5859a4.48812,4.48812,0,0,1,3.389,1.47854c1.32191,1.361,1.148,5.23912,1.148,5.23912v38.02392H382.18V247.70589C382.18,236.70816,376.79217,232.2087,376.79217,232.2087Z"/><polygon class="cls-1" points="405.983 262.202 435.543 262.202 435.543 249.857 405.983 249.857 405.983 240.087 448.532 240.089 448.532 227.309 391.975 227.309 391.975 230.923 391.975 284.77 391.943 284.791 448.795 284.791 448.795 272.005 405.983 272.005 405.983 262.202"/><path class="cls-1" d="M505.06523,270.81779h-.01546a6.9425,6.9425,0,1,0,.01546,0Zm.01118,13.09511h-.02664a6.14456,6.14456,0,0,1-.02358-12.289h.00352a6.14455,6.14455,0,1,1,.0467,12.289Z"/><path class="cls-1" d="M507.30042,277.60756a1.91205,1.91205,0,0,0,1.0082-1.91612c-.09875-1.7304-1.24766-1.95332-2.43683-1.95332h-3.42221l-.00092-.00138v7.65758h.98707v-3.2832h2.51905c1.58954,0,1.14721,1.40827,1.30889,2.31664l.16092.9661h1.16819c-.42486-.66448-.28416-.8257-.36286-1.83344C508.11,278.231,508.08907,278.11112,507.30042,277.60756Zm-1.40689-.36332h-2.45688v-2.63893h2.45688c.60247,0,1.54851.16137,1.40781,1.47027C507.20243,277.06235,506.55816,277.24424,505.89353,277.24424Z"/><path class="cls-1" d="M69.65782,270.037v1.89116c.84637,6.60666,4.39367,11.866,8.96571,13.41541H92.96126V270.03511H69.658Z"/><path class="cls-1" d="M92.9611,226.66352H79.22141v-.00245c-4.85268,1.27614-8.6745,6.70633-9.56374,13.6042V241.979H92.961Z"/><path class="cls-1" d="M151.91639,240.24062c-.89628-6.88838-4.70754-12.31582-9.56726-13.591H128.54391v15.3153h23.37248Z"/><path class="cls-1" d="M128.54038,285.34337h14.41045l.00245-.00123c4.55887-1.549,8.1071-6.79865,8.95959-13.39918v-1.90785H128.54038Z"/><rect class="cls-1" x="99.3404" y="226.6479" width="22.86356" height="15.31515"/><rect class="cls-1" x="69.67788" y="248.3324" width="23.30343" height="15.31515"/><rect class="cls-1" x="128.56059" y="248.35199" width="23.37248" height="15.3153"/><rect class="cls-1" x="99.3404" y="270.04307" width="22.86356" height="15.30902"/></svg>