<svg id="Layer_1" data-name="Layer 1" xmlns="http://www.w3.org/2000/svg" viewBox="0 0 512 512"><defs><style>.cls-1{fill:#383838;}</style></defs><path class="cls-1" d="M0,221.21459v.21425a10.18943,10.18943,0,0,1,8.56905,10.296v89.88341A10.22292,10.22292,0,0,1,0,331.91757v.20982H36.68989v-.20982a10.24839,10.24839,0,0,1-8.60417-10.3093l.01771-43.67156H54.02926a9.50638,9.50638,0,0,1,9.75391,8.34624h.23609V266.73559H28.10343l-.01771-34.31133H62.73819a9.5209,9.5209,0,0,1,9.78873,8.32h.22724l-.03483-19.56035Z"/><path class="cls-1" d="M174.29787,221.18272l-36.71616.03482v.20982a10.20017,10.20017,0,0,1,8.59532,10.296v70.44169c.0003.05224.00059.10447.00059.15671a21.49951,21.49951,0,0,1-42.999-.02125l-.01711-70.57715a10.24775,10.24775,0,0,1,8.5779-10.296v-.24464H75.07577v.24464a10.21614,10.21614,0,0,1,8.57791,10.296l-.0484,68.448c0,22.0304,18.46314,34.86671,41.15812,34.86671,22.65544,0,40.92175-12.836,40.92175-34.86671v-68.448a10.22248,10.22248,0,0,1,8.61272-10.296Z"/><path class="cls-1" d="M394.02143,274.79735l-22.95734-12.16288c-11.53754-5.97653-9.95931-14.738-9.95931-14.738s-1.08422-17.466,21.87754-17.466c0,0,14.03829-1.19372,20.18981,8.71749h.2358V222.26783c-2.93338-2.86373-21.33956-3.3359-21.33956-3.3359-41.005,0-40.441,30.96686-40.441,30.96686s-2.73241,17.11627,21.12117,29.82568l22.84815,12.15845c10.19539,5.50465,9.02381,13.10309,9.02381,13.10309s-.17942,17.6454-26.22329,18.78658c0,0-20.51355-1.46462-27.57431-11.61634h-.22723l6.52307,20.38636a71.27454,71.27454,0,0,0,21.09048,2.43966c46.3476,0,45.3463-31.47829,45.3463-31.47829S416.18315,286.6542,394.02143,274.79735Z"/><path class="cls-1" d="M241.9865,198.05038a30.97074,30.97074,0,1,0-1.77566-61.916,32.34793,32.34793,0,0,0-25.18718,12.79677l-.02626,16.23743c7.82567-21.6326,25.21314-20.0281,25.21314-20.0281q.62991-.0177,1.26011,0a21.95652,21.95652,0,0,1-1.26011,43.895,22.76709,22.76709,0,0,1-15.93583-6.42244L213.30584,170.6378a25.95221,25.95221,0,0,0-18.2182-7.345q-.73128-.02124-1.46314,0a25.0798,25.0798,0,1,0,1.46314,50.13826,26.11034,26.11034,0,0,0,19.93632-9.12444l-.02627-13.00216c-7.70792,14.70287-19.91005,13.11135-19.91005,13.11135q-.4617.01327-.9231,0a16.06051,16.06051,0,0,1,.9231-32.10775,16.69784,16.69784,0,0,1,11.66444,4.691l10.95618,11.9749a32.04323,32.04323,0,0,0,22.50258,9.07634Q241.09837,198.07606,241.9865,198.05038Z"/><path class="cls-1" d="M249.62685,321.567V231.49084a10.00052,10.00052,0,0,1,8.56905-10.06437v-.20982H221.563v.20982a9.95053,9.95053,0,0,1,8.58233,10.06437l.0003,90.07611a10.25926,10.25926,0,0,1-8.58233,10.32672v.20539H258.1959v-.20539A10.27566,10.27566,0,0,1,249.62685,321.567Z"/><path class="cls-1" d="M179.02934,221.42913a10.18235,10.18235,0,0,1,8.57348,10.296l.03069,112.60938A42.6594,42.6594,0,0,1,171.20366,375.66l.03925.21868c3.16091-.51585,35.92439-6.56232,35.92439-38.21147l-.026-105.942a10.19735,10.19735,0,0,1,8.5779-10.296v-.21425H179.02934Z"/><path class="cls-1" d="M264.176,221.18094l-6.11641,19.98885h.21867a15.98776,15.98776,0,0,1,12.6262-8.74405h19.862l.01328,89.1843a10.22429,10.22429,0,0,1-8.58676,10.283v.20539h36.738v-.20539a10.26037,10.26037,0,0,1-8.639-10.283l.02626-89.1843,16.60042-.03925a9.08145,9.08145,0,0,1,9.177,8.7833h.201l6.099-19.98885Z"/><path class="cls-1" d="M475.31011,221.21754v.20982a10.20455,10.20455,0,0,1,8.5779,10.296v70.44169c.0003.0363.0003.0726.0003.1086a21.49951,21.49951,0,1,1-42.999.02686l-.026-70.57715a10.25,10.25,0,0,1,8.6083-10.296v-.24464H412.77318v.24464a10.20762,10.20762,0,0,1,8.59531,10.296l-.02626,68.448c0,22.0304,18.46727,34.86671,41.11858,34.86671,22.69085,0,40.96571-12.836,40.96571-34.86671v-68.448A10.22017,10.22017,0,0,1,512,221.42736v-.24464Z"/></svg>