<svg id="Layer_1" data-name="Layer 1" xmlns="http://www.w3.org/2000/svg" viewBox="0 0 512 512"><defs><style>.cls-1{fill:#383838;}</style></defs><rect class="cls-1" y="344.39153" width="99.55136" height="14.25232"/><rect class="cls-1" y="317.05918" width="99.55136" height="14.29907"/><rect class="cls-1" x="28.39719" y="289.7733" width="42.70082" height="14.30363"/><rect class="cls-1" x="28.39719" y="262.49225" width="42.70082" height="14.29907"/><rect class="cls-1" x="28.39719" y="235.20637" width="42.70082" height="14.30363"/><rect class="cls-1" x="28.39719" y="207.87402" width="42.70082" height="14.29878"/><rect class="cls-1" y="180.58956" width="99.54908" height="14.30135"/><rect class="cls-1" y="153.30624" width="99.54908" height="14.30106"/><path class="cls-1" d="M113.749,331.35911H266.85114a50.804,50.804,0,0,0,5.68-14.30107H113.749Z"/><path class="cls-1" d="M254.934,262.4914H142.19917v14.30106H266.85171A57.23539,57.23539,0,0,0,254.934,262.4914Z"/><path class="cls-1" d="M142.19917,235.20751v14.30106H254.934a53.21479,53.21479,0,0,0,11.9177-14.30106Z"/><path class="cls-1" d="M266.85171,180.58956H113.749v14.30135H272.53109A61.89716,61.89716,0,0,0,266.85171,180.58956Z"/><path class="cls-1" d="M219.79,153.30624H113.749v14.30135H256.35371A53.83631,53.83631,0,0,0,219.79,153.30624Z"/><rect class="cls-1" x="142.19917" y="207.87345" width="42.64923" height="14.30106"/><path class="cls-1" d="M227.54865,222.17452H272.176a53.47331,53.47331,0,0,0,1.927-14.30107H227.54865Z"/><rect class="cls-1" x="142.20088" y="289.7733" width="42.64952" height="14.30363"/><path class="cls-1" d="M227.54865,289.77472v14.30106H274.103a53.486,53.486,0,0,0-1.927-14.30106Z"/><path class="cls-1" d="M113.749,358.54153l106.04078.1522a53.86884,53.86884,0,0,0,36.61471-14.30106H113.749Z"/><rect class="cls-1" x="284.4485" y="344.39153" width="71.09802" height="14.25232"/><rect class="cls-1" x="284.4485" y="317.05918" width="71.09802" height="14.29907"/><rect class="cls-1" x="312.84569" y="289.7733" width="42.70082" height="14.30363"/><rect class="cls-1" x="312.84569" y="262.49225" width="42.70082" height="14.29907"/><polygon class="cls-1" points="375.328 180.588 284.448 180.588 284.448 194.892 380.245 194.892 375.328 180.588"/><polygon class="cls-1" points="365.895 153.307 284.448 153.307 284.448 167.606 370.812 167.606 365.895 153.307"/><rect class="cls-1" x="440.84583" y="344.39153" width="71.15417" height="14.25232"/><rect class="cls-1" x="440.84583" y="317.05918" width="71.15417" height="14.29907"/><rect class="cls-1" x="440.84583" y="289.7733" width="42.70082" height="14.30363"/><rect class="cls-1" x="440.84583" y="262.49225" width="42.70082" height="14.29907"/><polygon class="cls-1" points="440.846 249.51 483.547 249.51 483.547 235.206 440.846 235.206 402.203 235.206 398.196 246.769 394.189 235.206 355.547 235.206 312.846 235.206 312.846 249.51 355.547 249.51 355.547 236.374 360.062 249.51 436.335 249.51 440.846 236.374 440.846 249.51"/><polygon class="cls-1" points="483.547 207.874 411.636 207.874 406.719 222.173 483.547 222.173 483.547 207.874"/><polygon class="cls-1" points="430.553 153.307 425.631 167.606 512 167.606 512 153.307 430.553 153.307"/><polygon class="cls-1" points="398.196 358.541 403.118 344.392 393.279 344.392 398.196 358.541"/><polygon class="cls-1" points="388.763 331.358 407.629 331.358 412.701 317.059 383.743 317.059 388.763 331.358"/><polygon class="cls-1" points="379.181 304.077 417.217 304.077 422.236 289.773 374.161 289.773 379.181 304.077"/><polygon class="cls-1" points="369.645 276.791 426.799 276.791 431.669 262.492 364.727 262.492 369.645 276.791"/><polygon class="cls-1" points="312.846 222.173 389.678 222.173 384.761 207.874 312.846 207.874 312.846 222.173"/><polygon class="cls-1" points="416.203 194.892 512 194.892 512 180.588 421.069 180.588 416.203 194.892"/></svg>