<svg id="Layer_1" data-name="Layer 1" xmlns="http://www.w3.org/2000/svg" viewBox="0 0 512 512"><defs><style>.cls-1{fill:#383838;}</style></defs><path class="cls-1" d="M129.93646,256.4933c0,18.15171.71734,32.708-30.72978,32.708-31.6253,0-31.44707-14.55606-31.44707-31.8079V197.373h-9.165v59.842c0,23.36051,2.33469,40.434,40.61208,40.434,38.09477,0,39.71658-17.07345,39.71658-41.1557V197.373h-8.9868Z"/><path class="cls-1" d="M322.32785,197.55768h-45.932v98.11481H285.191V261.57891h37.012c23.03507,0,33.22932-12.315,33.22932-32.57422C355.43239,208.87924,345.10449,197.55768,322.32785,197.55768Zm.13364,55.19938-37.27045.00027V206.36186h36.87839c15.63886,0,24.14894,7.41834,24.14894,23.035C346.21837,245.02218,338.33207,252.75706,322.46149,252.75706Z"/><rect class="cls-1" x="251.12946" y="197.53429" width="8.79521" height="98.11512"/><path class="cls-1" d="M193.83938,195.39925c-38.09476,0-39.71211,17.06908-39.71211,41.15133v59.12028h8.98234V236.55058c0-18.15167-.72178-32.708,30.72977-32.708,31.62531,0,31.44708,14.55606,31.44708,31.80786v60.02042h9.165V235.82857C234.4515,212.46833,232.11677,195.39925,193.83938,195.39925Z"/><path class="cls-1" d="M502.9508,195.39979c-38.0992,0-39.71658,17.06911-39.71658,41.15133V295.6714h8.98238V236.55112c0-18.15167-.71731-32.708,30.7342-32.708a77.38421,77.38421,0,0,1,9.0492.49467v-8.55917C509.22419,195.53361,506.23005,195.39979,502.9508,195.39979Z"/><path class="cls-1" d="M410.96338,195.0384c-37.0209,0-45.29036,22.28657-45.29036,51.21623H365.673c0,28.92963,7.1912,51.39437,46.00327,51.39437,17.6127,0,28.21239-5.2129,37.19476-11.86055l-5.02587-6.64768c-8.08677,5.92594-15.63442,10.42142-32.16889,10.42142-31.09062,0-37.0165-17.79082-37.19469-41.69468H450.3146C450.4928,220.73353,449.23634,195.0384,410.96338,195.0384Zm-36.30359,44.56422c1.07827-21.38184,8.62592-36.29906,36.1165-36.29906,28.57334,0,29.8342,16.71259,30.72977,36.29906Z"/><path class="cls-1" d="M34.14713,275.81027c0,18.14735.71734,32.708-30.72974,32.708-1.18964,0-2.31688-.03128-3.41739-.07589v8.47433c1.105.02664,2.24113.04458,3.41739.04458l0,.00027c38.09473,0,39.71654-17.06907,39.71654-41.15133V197.37518H34.14713Z"/><path class="cls-1" d="M491.8882,283.69119a6.20222,6.20222,0,1,0,6.19763,6.20224A6.21325,6.21325,0,0,0,491.8882,283.69119Zm0,11.60223a5.4,5.4,0,1,1,5.39562-5.4A5.40874,5.40874,0,0,1,491.8882,295.29342Z"/><path class="cls-1" d="M495.02229,288.48366c0-1.40784-.69511-2.14753-2.49958-2.14753h-3.17238v7.12438h.949v-2.74009h1.98721l1.59507,2.74009h1.02922l-1.60841-2.807A1.95109,1.95109,0,0,0,495.02229,288.48366Zm-2.513,1.34559h-2.20995V287.2406h2.17874c1.02035,0,1.56386.23605,1.56386,1.26536C494.042,289.54858,493.48063,289.82925,492.5093,289.82925Z"/></svg>