<svg id="Layer_1" data-name="Layer 1" xmlns="http://www.w3.org/2000/svg" viewBox="0 0 512 512"><defs><style>.cls-1{fill:#383838;fill-rule:evenodd;}</style></defs><polygon class="cls-1" points="104.973 233.943 50.616 308.018 35.225 233.943 21.498 233.943 0 316.459 9.155 316.459 27.871 240.647 28.148 240.647 44.093 316.459 53.526 316.459 108.298 241.809 108.575 241.809 88.197 316.459 97.491 316.459 118.701 233.943 104.973 233.943"/><polygon class="cls-1" points="127.611 256.826 112.21 316.459 120.95 316.459 136.34 256.826 127.611 256.826"/><polygon class="cls-1" points="203.988 256.826 192.338 256.826 150.462 285.944 150.185 285.72 157.646 256.815 148.895 256.815 133.686 316.459 142.415 316.459 147.968 294.844 163.22 284.218 182.224 316.459 191.784 316.459 170.159 279.826 203.988 256.826"/><path class="cls-1" d="M242.44276,263.42345l1.93981-7.27959c-1.52412-.11722-3.19747-.11722-4.711-.11722-12.78988-.11723-20.3892,6.01126-25.93143,14.55911H213.463l3.60248-13.74908-7.92972-.01066-15.39049,59.6328h8.761l8.047-31.19666c2.90974-11.21247,11.23381-21.72147,26.90142-21.95592C239.1174,263.30623,240.78008,263.42345,242.44276,263.42345Z"/><path class="cls-1" d="M276.68766,255.09938c-25.5158,0-39.93642,18.72651-39.93642,38.2524,0,14.92152,10.12532,24.84433,28.564,24.84433,26.48574,0,39.65929-19.64311,39.65929-39.75518C304.97457,263.76452,293.32514,255.09938,276.68766,255.09938Zm-9.7097,56.96824c-14.55911,0-21.49763-7.85511-21.49763-19.40865,0-13.98359,10.541-31.43111,29.67254-31.43111,14.00493,0,21.08194,7.63133,21.08194,18.71585C296.23481,293.7994,286.1095,312.06762,266.978,312.06762Z"/><polygon class="cls-1" points="394.493 233.932 309.067 233.932 303.418 256.815 330.821 256.815 330.821 256.826 361.378 256.826 361.378 256.815 388.812 256.783 394.493 233.932"/><polygon class="cls-1" points="328.114 267.751 316.006 316.437 346.51 316.437 358.649 267.761 358.649 267.74 328.114 267.74 328.114 267.751"/><polygon class="cls-1" points="393.715 267.751 381.661 316.437 409.116 316.437 421.171 267.751 393.715 267.751"/><polygon class="cls-1" points="429.633 233.932 402.178 233.932 396.433 256.815 423.931 256.783 429.633 233.932"/><polygon class="cls-1" points="512 256.464 479.141 256.464 458.89 274.028 458.613 274.028 468.461 233.932 441.006 233.932 420.478 316.437 447.933 316.437 452.229 299.342 458.474 294.716 468.184 316.437 497.995 316.437 479.684 280.615 512 256.464"/><path class="cls-1" d="M180.75293,232.408c-25.48386-1.16177-37.98594-15.30526-41.34331-38.60414C131.99153,220.00184,156.73991,241.59542,180.75293,232.408Z"/><path class="cls-1" d="M176.97988,245.74149c-15.72089.27706-26.86936-5.958-35.17216-13.66386-8.30274-7.70594-14.56978-18.9717-15.37982-33.82921-.02127-.21318-.05327-.405-.34107-.34107h-.0106C116.60105,229.29578,147.54185,257.46554,176.97988,245.74149Z"/></svg>