<svg id="Layer_1" data-name="Layer 1" xmlns="http://www.w3.org/2000/svg" viewBox="0 0 512 512"><defs><style>.cls-1{fill:#383838;}</style></defs><path class="cls-1" d="M245.67975,244.28644A30.64522,30.64522,0,0,0,232.943,242.144a51.98459,51.98459,0,0,0-12.55814,1.41335,27.50583,27.50583,0,0,0-10.14754,4.806,29.21085,29.21085,0,0,0-7.62579,8.99492,50.04189,50.04189,0,0,0-4.99207,14.05332,42.69968,42.69968,0,0,0-1.20517,14.06854,16.27574,16.27574,0,0,0,3.80127,8.98717,16.64862,16.64862,0,0,0,8.25063,4.806,47.28656,47.28656,0,0,0,12.29024,1.42109c2.28426,0,4.63514-.037,6.84475-.08183,2.29891-.04451,4.24807-.20072,6.2271-.34228,2.068-.14875,4.00256-.46088,5.62408-.70668,1.76338-.28284,2.18-.39425,3.40759-.64723l1.65168-7.81187a33.09951,33.09951,0,0,1-9.93189,1.5552c-3.87621.20818-7.28351.29-10.83238.29a30.751,30.751,0,0,1-9.19535-1.31686,11.44859,11.44859,0,0,1-5.56493-3.29589,9.74838,9.74838,0,0,1-2.22482-5.58733,37.31038,37.31038,0,0,1,1.06417-9.29959l43.567-1.10839c.43877-1.31686.84824-2.55935,1.21263-3.70507.37186-1.15319.6323-2.10537.80344-2.87177a37.87544,37.87544,0,0,0,.84824-8.31007,15.14265,15.14265,0,0,0-2.02382-7.633A14.31876,14.31876,0,0,0,245.67975,244.28644Zm-2.35806,21.57545-34.044.90021a29.734,29.734,0,0,1,2.33566-6.43556,18.51333,18.51333,0,0,1,4.10679-5.86242,16.825,16.825,0,0,1,6.294-3.65281,29.67842,29.67842,0,0,1,9.32916-1.25743,19.43786,19.43786,0,0,1,7.99794,1.3094,7.80348,7.80348,0,0,1,3.90579,3.55633,10.1937,10.1937,0,0,1,.945,5.22265A40.84088,40.84088,0,0,1,243.32169,265.86189Z"/><path class="cls-1" d="M295.07241,242.13656a33.64483,33.64483,0,0,0-18.138,4.22567,17.24049,17.24049,0,0,0-8.15415,11.16691,20.51579,20.51579,0,0,0-.51313,6.21245,8.04833,8.04833,0,0,0,1.867,4.52316,12.69727,12.69727,0,0,0,4.73938,3.266,43.0644,43.0644,0,0,0,8.24316,2.41807q4.40759.94845,7.00814,1.793a11.60272,11.60272,0,0,1,3.89833,1.94917,4.027,4.027,0,0,1,1.48053,2.73767,13.4853,13.4853,0,0,1-.36467,4.16623,9.11278,9.11278,0,0,1-5.22266,6.89673,28.81985,28.81985,0,0,1-11.46439,1.83775q-2.13165,0-4.64261-.15621c-1.67379-.1117-3.318-.26044-4.92517-.47638-1.6066-.21565-3.154-.45369-4.63486-.73653-1.48025-.27509-2.775-.57286-3.82367-.85571l-1.652,7.81187c.82584.20847,1.9417.43905,3.34786.68456s2.96107.43905,4.67219.58033c1.71112.141,3.43716.26044,5.19308.36439,1.75591.1117,3.41476.16368,4.99207.16368a38.73061,38.73061,0,0,0,18.90412-3.9503,17.86943,17.86943,0,0,0,8.91279-12.47659,19.30109,19.30109,0,0,0,.43934-6.95588,8.55855,8.55855,0,0,0-2.40314-4.79136,15.19841,15.19841,0,0,0-5.50579-3.266,69.41836,69.41836,0,0,0-8.76376-2.47752q-3.62669-.73611-5.84749-1.41334a8.57722,8.57722,0,0,1-3.30364-1.689,4.13411,4.13411,0,0,1-1.324-2.36581,9.75954,9.75954,0,0,1,.238-3.58591,8.59659,8.59659,0,0,1,4.79135-6.52487,26.12814,26.12814,0,0,1,10.48235-1.68872,52.81465,52.81465,0,0,1,8.38473.6323,34.86347,34.86347,0,0,1,6.04849,1.4656l1.67379-7.91581a35.74361,35.74361,0,0,0-5.57211-1.02684A77.19913,77.19913,0,0,0,295.07241,242.13656Z"/><polygon class="cls-1" points="314.387 300.697 324.639 300.697 336.974 242.143 326.728 242.143 314.387 300.697"/><polygon class="cls-1" points="342.469 216.074 332.218 216.074 329.4 229.45 339.651 229.45 342.469 216.074"/><path class="cls-1" d="M394.98048,250.91525a19.39265,19.39265,0,0,0-16.93314-8.77123h-1.87479a33.91556,33.91556,0,0,0-13.66653,2.46976,28.50169,28.50169,0,0,0-9.53792,6.65869,32.65313,32.65313,0,0,0-6.24921,9.80553,67.52237,67.52237,0,0,0-3.668,11.87359,39.616,39.616,0,0,0-1.16783,9.86526,19.66228,19.66228,0,0,0,2.06058,9.69384,14.60193,14.60193,0,0,0,6.76263,6.2716,30.072,30.072,0,0,0,12.69224,1.91212,30.3797,30.3797,0,0,0,14.60436-2.89416c.39425-.21565.77357-.49849,1.16036-.73625l1.71859-8.17655a19.56044,19.56044,0,0,1-4.41922,2.29891,28.7559,28.7559,0,0,1-9.91724,1.51011,17.4857,17.4857,0,0,1-8.69714-1.53251,9.18765,9.18765,0,0,1-4.099-4.8729,16.87339,16.87339,0,0,1-.75894-7.22408,33.92514,33.92514,0,0,1,.95994-6.11539,83.078,83.078,0,0,1,2.29862-8.51108,23.77786,23.77786,0,0,1,3.80931-7.28352,18.09841,18.09841,0,0,1,6.23428-5.03686,21.3366,21.3366,0,0,1,9.58242-1.90466,21.967,21.967,0,0,1,9.23986,1.6221,10.84021,10.84021,0,0,1,5.06644,4.53809,14.32946,14.32946,0,0,1,1.5997,7.16464,47.90471,47.90471,0,0,1-1.34643,9.03168l-.00747.03732-.04479.17861-.02211.141c-.09706.41665-.164.80344-.26045,1.21291l-4.1289,19.63319-1.00416,4.76236a23.83973,23.83973,0,0,1-8.5039,14.85734,27.86891,27.86891,0,0,1-16.76917,4.47865,115.78064,115.78064,0,0,1-20.3031-3.12446l-1.75563,8.176a105.13917,105.13917,0,0,0,11.97093,2.78993,74.759,74.759,0,0,0,8.19061.44652,40.126,40.126,0,0,0,25.25814-7.0604,32.72389,32.72389,0,0,0,11.82936-19.6039l12.14924-57.3527H396.83258Z"/><path class="cls-1" d="M461.39471,243.6616a28.7103,28.7103,0,0,0-10.09584-1.51758,42.09741,42.09741,0,0,0-6.08554.49849,30.81191,30.81191,0,0,0-6.06342,1.52505c-.42412.16367-.84077.33481-1.2646.52088a29.27614,29.27614,0,0,0-8.98717,5.65424l7.2169-34.26741H425.90749L408.07473,300.6947h10.207l7.8268-37.169a27.01692,27.01692,0,0,1,4.99207-6.85194,20.8257,20.8257,0,0,1,5.40126-3.67521,20.24636,20.24636,0,0,1,5.81044-1.69647,46.64083,46.64083,0,0,1,6.06343-.394,14.60768,14.60768,0,0,1,5.99651,1.01134,6.46193,6.46193,0,0,1,3.17673,2.89417,9.24219,9.24219,0,0,1,.84794,4.64232,39.43663,39.43663,0,0,1-1.02655,6.27161l-7.37253,34.9669h10.1995l8.13147-38.61971a30.0253,30.0253,0,0,0,.85541-8.00512,12.15954,12.15954,0,0,0-2.0979-6.27907A11.93122,11.93122,0,0,0,461.39471,243.6616Z"/><path class="cls-1" d="M496.146,242.15149l5.49027-26.07622H491.48871l-13.77105,65.29837a38.82925,38.82925,0,0,0-1.07882,9.77568,9.589,9.589,0,0,0,2.0534,5.92961,9.25316,9.25316,0,0,0,5.30449,2.87924,43.23273,43.23273,0,0,0,8.77869.73653c1.33955,0,2.57458-.05944,3.70536-.17114,1.13051-.11141,1.99368-.20072,3.28871-.34975l1.7407-8.25063a28.87312,28.87312,0,0,1-2.99841.46145,37.358,37.358,0,0,1-3.76422.17114,16.67623,16.67623,0,0,1-4.62768-.50624,3.92928,3.92928,0,0,1-2.39539-1.8076,6.46227,6.46227,0,0,1-.60273-3.5638,40.17532,40.17532,0,0,1,.89246-5.87735l5.98158-28.53134h15.86179l.6099-2.85683L512,242.159V242.144Z"/><polygon class="cls-1" points="0 300.697 18.428 300.697 32.876 232.24 18.978 210.636 0 300.697"/><polygon class="cls-1" points="119.437 239.979 106.654 300.702 125.11 300.711 142.55 217.862 119.437 239.979"/><path class="cls-1" d="M139.45556,185.76562,77.70577,244.86676a3.54856,3.54856,0,0,1-5.43113-.63976L49.40529,208.70245a5.04984,5.04984,0,0,0-4.24835-2.31384H22.19771l.49849.77357,45.53109,70.80388a2.48045,2.48045,0,0,0,3.80931.44651l96.798-92.64695Z"/><polygon class="cls-1" points="141.271 300.697 151.584 300.697 163.924 242.143 153.611 242.143 141.271 300.697"/><polygon class="cls-1" points="159.101 216.074 156.293 229.45 166.601 229.45 169.414 216.074 159.101 216.074"/><polygon class="cls-1" points="167.542 300.688 177.92 300.688 195.751 216.074 185.381 216.074 167.542 300.688"/></svg>