<svg id="Layer_1" data-name="Layer 1" xmlns="http://www.w3.org/2000/svg" viewBox="0 0 512 512"><defs><style>.cls-1{fill:#383838;}</style></defs><path class="cls-1" d="M221.50449,265.98766h33.76923l-17.83747-28.80581-32.79431,52.02763H189.72941l39.88494-62.42a9.50591,9.50591,0,0,1,15.51082-.11064L285.121,289.20958H270.20844l-7.02416-11.63312H229.01615L221.571,265.98765m154.95314,11.58881v-54.2214H363.84954V282.9166a6.11594,6.11594,0,0,0,1.88353,4.43167A6.40371,6.40371,0,0,0,370.342,289.276h57.61164l7.51166-11.63311H376.45754m-209.48467-9.74959a22.26914,22.26914,0,0,0,0-44.53828H111.5771v65.85453h12.65237V235.01033H166.1974a10.65816,10.65816,0,0,1,0,21.31631H130.50027l37.802,32.88294h18.36927l-25.39343-21.31632h5.6947M33.757,289.20958H72.02442a32.92727,32.92727,0,0,0,0-65.83237H33.75705a32.92727,32.92727,0,0,0-1.70826,65.83237q.854.02213,1.70826,0m37.40323-11.58881H34.59909a21.31632,21.31632,0,0,1,0-42.61045H71.16028a21.31631,21.31631,0,0,1,1.37431,42.61045q-.687.02215-1.37431,0m240.39553,11.58881h39.0651l7.40088-11.58881H312.42012a21.31631,21.31631,0,1,1-1.41789-42.609l.04357-.00141q.68712-.02213,1.37432,0h37.11517l7.48955-11.63311h-45.469a32.92727,32.92727,0,0,0-1.70826,65.83236q.85389.02212,1.70826,0M466.376,277.62076a21.31631,21.31631,0,0,1-20.51865-15.51082h54.11061l7.44517-11.611H445.85717a21.29417,21.29417,0,0,1,20.51864-15.51082h37.13737l7.42306-11.63312H465.51183a32.92727,32.92727,0,0,0,0,65.83237h39.0651L512,277.5986H466.35387"/></svg>