<svg id="Layer_1" data-name="Layer 1" xmlns="http://www.w3.org/2000/svg" viewBox="0 0 512 512"><defs><style>.cls-1{fill:#383838;}</style></defs><path class="cls-1" d="M512,251.57372V232.755H491.379V208.90038l-22.5295,4.877v18.97781H453.88744v18.81848h14.90907V284.0426c0,15.75731,9.47565,23.41707,26.757,23.41707a69.036,69.036,0,0,0,15.75731-2.22633V286.95812a32.9269,32.9269,0,0,1-10.178,1.53742c-7.1165,0-9.75383-2.22661-9.75383-8.919V251.57372Z"/><polygon class="cls-1" points="347.124 246.42 306.982 246.42 306.982 208.926 283.007 208.926 282.918 306.53 306.888 306.53 306.888 268.298 347.031 268.298 347.031 306.493 371.071 306.493 371.071 208.926 347.124 208.926 347.124 246.42"/><path class="cls-1" d="M415.77278,231.40337a82.26929,82.26929,0,0,0-34.45664,8.08416l8.08415,16.59186a60.18505,60.18505,0,0,1,22.30405-5.85783c9.277,0,14.07452,3.61839,14.07452,11.01307v3.61782a65.63483,65.63483,0,0,0-16.725-2.09351c-18.96412,0-30.3882,7.95134-30.3882,22.17151,0,12.96065,10.31106,22.8473,26.7567,22.8473l.02651-.0399a34.49971,34.49971,0,0,0,20.35647-5.7119v4.46634H448.096V259.23347C448.096,241.26323,435.983,231.40337,415.77278,231.40337Zm8.44215,56.95935a28.5058,28.5058,0,0,1-14.08735,3.48557c-7.23592,0-11.56944-2.78327-11.56944-7.38157,0-4.87706,4.88989-7.24932,12.27146-7.24932a57.14712,57.14712,0,0,1,13.38533,1.67Z"/><path class="cls-1" d="M226.69845,236.66464a37.99326,37.99326,0,1,0-20.17377,70.79275q.33306.00428.66611.00256a33.292,33.292,0,0,0,19.78613-6.40108l-.0533,5.48644H249.228V204.05011l-22.5295,4.87677Zm-.07923,45.708a21.68058,21.68058,0,0,1-15.58487,5.91056,18.75664,18.75664,0,0,1-19.36516-18.12729q-.009-.27277-.01-.54525v-.0533A18.67206,18.67206,0,0,1,210.30383,250.858q.36553-.00044.73052.01311a22.82081,22.82081,0,0,1,15.58487,5.72529Z"/><path class="cls-1" d="M125.03809,231.5094a37.862,37.862,0,0,0-38.429,37.28637v.00057q-.00813.44678-.00342.89384l-.02651.03933a38.70647,38.70647,0,0,0,39.18977,38.21726q.46986-.006.93944-.02308A44.28132,44.28132,0,0,0,157.52066,296.765L142.5979,283.51245a19.93582,19.93582,0,0,1-14.76371,5.57936,19.06937,19.06937,0,0,1-18.129-11.70226H162.2515v-5.60587C162.2515,248.36662,146.507,231.5094,125.03809,231.5094Zm-15.74391,30.04332a15.39342,15.39342,0,0,1,15.27989-11.702,16.3094,16.3094,0,0,1,15.46573,11.702Z"/><path class="cls-1" d="M84.3927,240.00428c0-17.55981-13.79605-31.0774-34.45664-31.0774H0v97.5657H23.97372V270.94913H42.22329l18.40718,35.54345H87.467l-21.46864-39.029A29.51408,29.51408,0,0,0,84.3927,240.00428ZM50.334,251.44118a11.07437,11.07437,0,0,1-2.62451,0H24.00108V229.41532H47.70944A11.09084,11.09084,0,1,1,50.334,251.44118Z"/></svg>