<svg id="Layer_1" data-name="Layer 1" xmlns="http://www.w3.org/2000/svg" viewBox="0 0 512 512"><defs><style>.cls-1{fill:#383838;}</style></defs><path class="cls-1" d="M20.4612,252.29243a22.34122,22.34122,0,0,1-9.99333-5.23406,8.19082,8.19082,0,0,1,1.90334-10.94429,13.20772,13.20772,0,0,1,17.13094,2.85524,73.39214,73.39214,0,0,0,6.18479-5.71024,16.22883,16.22883,0,0,0-8.56431-5.23405A25.15889,25.15889,0,0,0,8.56454,229.9286l.47642.95166a14.67954,14.67954,0,0,0-7.13739,10.94429,17.24995,17.24995,0,0,0,2.85406,10.94429,22.3186,22.3186,0,0,0,11.42071,7.13739A22.72885,22.72885,0,0,1,27.1224,264.6648,7.66321,7.66321,0,0,1,25.921,275.43532q-.11123.0891-.2257.17354a13.90368,13.90368,0,0,1-19.40382-3.18267q-.053-.07334-.10477-.14782A60.025,60.025,0,0,0,0,277.51242,19.67884,19.67884,0,0,0,14.75119,285.126a23.4227,23.4227,0,0,0,13.79836-2.85594,14.83381,14.83381,0,0,0,7.6138-11.41977,14.68407,14.68407,0,0,0-3.33048-12.37214A21.95989,21.95989,0,0,0,20.4612,252.29243Z"/><path class="cls-1" d="M263.1375,259.906h11.8969v15.22644a33.14654,33.14654,0,0,1-16.65453,2.37975,21.05877,21.05877,0,0,1-13.80023-9.04095,23.11268,23.11268,0,0,1,3.33049-29.02574,21.193,21.193,0,0,1,28.55118.47549c1.90357-1.90357,3.33049-3.80691,5.23406-5.71048a22.35347,22.35347,0,0,0-13.324-6.6619,30.48186,30.48186,0,0,0-20.46119,2.37975l.47618.47525a26.66248,26.66248,0,0,0-14.751,19.986,30.194,30.194,0,0,0,4.75951,22.83931,25.68536,25.68536,0,0,0,19.985,11.42047,45.48,45.48,0,0,0,22.36476-3.8069c.95074-.47525,1.90147-.95167,1.90147-1.90333V252.76838H263.1375Z"/><path class="cls-1" d="M83.27053,275.60886c-.47455-5.71047,0-11.42071,0-17.13095h25.69525v-7.13739H83.27053v-16.1781h28.075V228.025H75.65883v54.72121h36.6393v-7.13738H89.45719A26.935,26.935,0,0,1,83.27053,275.60886Z"/><polygon class="cls-1" points="395.421 235.162 413.026 235.162 413.026 282.746 420.639 282.746 420.639 235.162 438.247 235.162 438.247 228.025 395.421 228.025 395.421 235.162"/><polygon class="cls-1" points="482.974 275.609 482.974 258.478 509.146 258.478 509.146 251.341 482.974 251.341 482.974 235.162 510.573 235.162 510.573 228.025 475.361 228.025 475.361 282.746 512 282.746 512 275.609 482.974 275.609"/><path class="cls-1" d="M169.87342,228.025c-7.61358,18.08168-16.17811,36.63954-23.79168,54.72121h8.5643c1.90333-4.28238,3.33048-9.041,5.23569-13.3231H185.577c1.90169,4.28215,3.80526,9.04072,5.70836,13.3231a51.45663,51.45663,0,0,0,8.56641,0c-7.6138-18.55809-15.70379-36.63953-23.31737-54.72121Zm-7.13739,34.7362c3.33048-8.08929,6.6612-16.65452,10.46787-24.74358,3.33048,8.08906,6.66307,16.65429,9.99356,24.74358Z"/><path class="cls-1" d="M343.07755,228.025c-8.08812,18.08168-16.17834,36.63954-24.26646,54.72121a51.43132,51.43132,0,0,0,8.5643,0c1.90357-4.28238,3.33049-9.041,5.23405-13.3231h25.69525c1.90334,4.28215,3.33049,9.04072,5.71024,13.3231a51.43132,51.43132,0,0,0,8.5643,0c-7.6117-18.55809-15.70169-36.63953-23.31549-54.72121Zm-7.61193,34.7362c3.33048-8.08929,6.661-16.65452,10.46787-24.74358,3.33048,8.08906,6.661,16.65429,9.99145,24.74358Z"/></svg>