<svg id="Layer_1" data-name="Layer 1" xmlns="http://www.w3.org/2000/svg" viewBox="0 0 512 512"><defs><style>.cls-1{fill:#383838;}</style></defs><path class="cls-1" d="M486.64535,272.10909v-84.9209h-.111c-2.89605,0-12.30326.68056-12.30326,9.51343v76.8217l11.0049,0A1.41422,1.41422,0,0,0,486.64535,272.10909Z"/><path class="cls-1" d="M277.36946,264.29468a7.02575,7.02575,0,0,0-5.31419-2.09479H257.52692c7.81925-7.62618,12.1343-18.63588,12.1343-31.166,0-20.92855-9.79819-43.67195-37.27175-43.67195-27.47839,0-37.26693,22.74338-37.26693,43.67195,0,20.92372,9.7789,43.28581,37.21383,43.30512l.07722-.00966a58.89865,58.89865,0,0,0,6.516-.67573c1.32735-.14963,2.74639-.40062,4.11236-.63713l2.16718-.38613,34.86323.00482C280.07239,271.32235,279.86967,266.93489,277.36946,264.29468Zm-44.98-.80124v-.00482c-21.1168,0-24.26863-20.33005-24.26863-32.4547,0-9.75958,2.35542-32.836,24.26863-32.836,21.112,0,24.26863,20.71619,24.26863,32.836C256.65808,240.79349,254.28816,263.49344,232.38945,263.49344Z"/><path class="cls-1" d="M166.39885,196.90916l.01447,76.90859,11.01936-.00483a1.41423,1.41423,0,0,0,1.40939-1.41422V187.40056h-.111C175.83987,187.40056,166.39885,188.086,166.39885,196.90916Z"/><path class="cls-1" d="M375.43824,196.914l.00964,76.60932,11.01937,0a1.41422,1.41422,0,0,0,1.4094-1.41422V187.40058h-.111C384.87444,187.40058,375.43824,188.08114,375.43824,196.914Z"/><path class="cls-1" d="M67.34539,187.40056c-2.8912,0-12.33223.68541-12.33223,9.5086l-.1834,45.3806c-.3234,13.47614-8.04611,21.19886-21.20367,21.19886-13.14309,0-20.8658-7.71306-21.1892-21.1892l.17376-45.39025c0-8.8232-9.43619-9.50859-12.32739-9.50859H.17708L.00814,239.55786c-.1834,11.1738,2.73192,19.886,8.65427,25.90006,5.792,5.89822,14.19051,8.88112,24.9685,8.88112v0c10.76352,0,19.17163-2.98774,24.96849-8.8763,5.92235-6.01888,8.84251-14.73107,8.66393-25.89522l.19306-52.16693Z"/><path class="cls-1" d="M354.26841,239.56749l.01447-52.16693h-.1062c-2.896,0-12.337.68541-12.337,9.5086v45.3806c-.32339,13.47614-8.05092,21.19886-21.194,21.19886-13.14792,0-20.87545-7.71306-21.20367-21.1892l-.00482-45.39025c0-8.8232-9.4362-9.50859-12.32257-9.50859h-.111l.00483,52.15728c-.17378,11.1738,2.74638,19.886,8.66873,25.90006,5.792,5.89822,14.19528,8.88112,24.96848,8.88112l.00007,0c10.76351,0,19.16195-2.98774,24.96367-8.8763C351.53649,259.44383,354.45184,250.73164,354.26841,239.56749Z"/><path class="cls-1" d="M504.05523,187.54538A7.92065,7.92065,0,1,0,512,195.42254,7.89578,7.89578,0,0,0,504.05523,187.54538Zm0,14.678a6.7624,6.7624,0,1,1,6.50157-6.80564A6.5466,6.5466,0,0,1,504.05523,202.22336Z"/><polygon class="cls-1" points="17.722 317.673 17.655 317.673 6.288 299.332 1.693 299.332 1.693 324.223 5.834 324.223 5.834 305.92 5.94 305.92 17.268 324.223 21.873 324.223 21.873 299.332 17.722 299.332 17.722 317.673"/><path class="cls-1" d="M147.78228,250.85232c0-7.84338-3.68278-18.72757-14.06018-21.81184l-.00481.00965-1.06188-.32338,1.01843-.44406a19.62759,19.62759,0,0,0,11.60337-17.936c0-13.92985-9.86093-22.55032-27.03916-22.55032H88.36564V273.5185h29.86761c.835.01448,1.67.02413,2.51954.02413,3.44143,0,7.89649-.19307,11.77712-1.65556C141.942,268.42149,147.78228,259.97478,147.78228,250.85232Zm-46.98789-52.22h17.65122c9.914.38614,13.83332,4.44055,13.83332,12.51079l.00483.00483c0,4.56122-1.39975,8.32122-4.28128,10.17468-2.04652,1.337-4.90392,2.06583-8.85215,2.28785H100.79439Zm20.6293,64.01646.00484-.00481H101.63907V234.48017h18.47178c5.79685,0,15.51781,2.38922,15.51781,14.10361C135.62866,259.44866,127.264,262.36881,121.42369,262.64876Z"/><polygon class="cls-1" points="73.051 313.17 85.6 313.17 85.6 309.617 73.051 309.617 73.051 303.096 86.614 303.096 86.614 299.332 68.692 299.332 68.692 324.223 86.855 324.223 86.855 320.453 73.051 320.453 73.051 313.17"/><polygon class="cls-1" points="217.181 318.368 217.113 318.368 212.228 299.332 207.768 299.332 202.749 318.368 202.681 318.368 198.183 299.332 193.757 299.332 200.311 324.223 204.8 324.223 209.897 305.186 209.965 305.186 214.951 324.223 219.381 324.223 226.25 299.332 221.814 299.332 217.181 318.368"/><path class="cls-1" d="M357.97523,317.67311a6.94224,6.94224,0,0,0-.36681-2.44231,5.00239,5.00239,0,0,0-.91709-1.588,3.65757,3.65757,0,0,0-1.20667-.88812,4.39675,4.39675,0,0,0-1.20668-.34752v-.06757a10.28085,10.28085,0,0,0,.99431-.42475,4.67232,4.67232,0,0,0,1.38045-1.02808,6.47028,6.47028,0,0,0,1.21633-1.88242,7.19717,7.19717,0,0,0,.52129-2.94428,6.2245,6.2245,0,0,0-2.04654-4.94736q-2.07063-1.78106-6.17816-1.78105h-11.893v24.89126H342.636V313.97585h6.41466a6.66088,6.66088,0,0,1,2.452.38614,3.18922,3.18922,0,0,1,1.52042,1.197,5.18962,5.18962,0,0,1,.76743,2.061,17.79351,17.79351,0,0,1,.21236,2.94428q-.002.94275.08687,1.88241a3.99672,3.99672,0,0,0,.56953,1.77139h4.67709A5.11176,5.11176,0,0,1,358.3131,321.66,21.03836,21.03836,0,0,1,357.97523,317.67311Zm-3.93856-10.98073a3.86866,3.86866,0,0,1-1.07635,2.97807,4.53146,4.53146,0,0,1-3.176.9943H342.636v-7.771h7.076a8.93423,8.93423,0,0,1,1.62176.13514,3.456,3.456,0,0,1,1.39492.5599,2.82363,2.82363,0,0,1,.96051,1.16806A4.61451,4.61451,0,0,1,354.03667,306.69238Z"/><polygon class="cls-1" points="425.419 299.332 420.051 299.332 408.96 310.66 408.96 299.332 404.606 299.332 404.606 324.223 408.96 324.223 408.96 315.853 412.517 312.335 420.674 324.223 426.114 324.223 415.476 309.265 425.419 299.332"/><path class="cls-1" d="M486.96383,313.2229a6.73922,6.73922,0,0,0-1.51559-1.51559,7.27174,7.27174,0,0,0-2.13342-1.04738q-.47787-.13756-1.62178-.43441l-2.31681-.613L477.238,309.043c-.64194-.18341-1.004-.27512-1.10048-.29925a5.27725,5.27725,0,0,1-2.13824-1.13428,2.66217,2.66217,0,0,1-.83018-2.07548,2.77042,2.77042,0,0,1,.43438-1.56868,3.3548,3.3548,0,0,1,1.11016-.9943,5.02965,5.02965,0,0,1,1.45768-.52127,8.42349,8.42349,0,0,1,1.56866-.15445,6.51462,6.51462,0,0,1,3.73105.99428,4.20247,4.20247,0,0,1,1.64106,3.398h4.3585a7.33671,7.33671,0,0,0-.76742-3.43178,7.47453,7.47453,0,0,0-2.07066-2.4954,9.05751,9.05751,0,0,0-3.036-1.51558,13.22716,13.22716,0,0,0-6.98905-.0724A9.246,9.246,0,0,0,471.668,300.519a6.4534,6.4534,0,0,0-2.84772,5.541,7.14045,7.14045,0,0,0,.26064,1.9162,5.34051,5.34051,0,0,0,.88812,1.77623,6.45847,6.45847,0,0,0,1.69416,1.52041,9.38754,9.38754,0,0,0,2.65952,1.09082c1.728.473,3.1663.85433,4.34885,1.14393a28.94131,28.94131,0,0,1,3.07944.91707,3.6201,3.6201,0,0,1,1.41422.96052,2.9654,2.9654,0,0,1,.642,2.10927,3.69048,3.69048,0,0,1-.27512,1.38526,3.13639,3.13639,0,0,1-.90744,1.1922,4.99289,4.99289,0,0,1-1.641.85431,7.8283,7.8283,0,0,1-2.4423.33787,9.86207,9.86207,0,0,1-2.452-.29926,5.62248,5.62248,0,0,1-2.00791-.94119,4.40222,4.40222,0,0,1-1.36594-1.65556,5.66324,5.66324,0,0,1-.48266-2.44231l-4.35863-.00483a9.32193,9.32193,0,0,0,.87364,3.99651,7.853,7.853,0,0,0,2.22992,2.77535,9.29646,9.29646,0,0,0,3.28215,1.59281,14.58118,14.58118,0,0,0,4.00618.52611,15.17575,15.17575,0,0,0,3.62485-.4344,9.909,9.909,0,0,0,3.17112-1.37561,7.216,7.216,0,0,0,2.24926-2.423,6.99877,6.99877,0,0,0,.85434-3.57657,6.45713,6.45713,0,0,0-.29924-1.94516A5.96117,5.96117,0,0,0,486.96383,313.2229Z"/><polygon class="cls-1" points="130.416 303.096 138.298 303.096 138.298 324.223 142.656 324.223 142.656 303.096 150.572 303.096 150.572 299.332 130.416 299.332 130.416 303.096"/><path class="cls-1" d="M400.315,187.613h-.20272V198.4537h25.4222v75.07445h11.22688a1.40952,1.40952,0,0,0,1.39975-1.38044v-73.694H461.3293a1.42041,1.42041,0,0,0,1.40938-1.3756V187.613l-62.42366,0Z"/><path class="cls-1" d="M289.51341,302.609a11.19786,11.19786,0,0,0-3.75034-2.82362,11.53217,11.53217,0,0,0-5.00048-1.05222,11.22686,11.22686,0,0,0-8.75081,3.87583,12.67693,12.67693,0,0,0-2.3506,4.14613,15.88314,15.88314,0,0,0,0,10.07815,12.74987,12.74987,0,0,0,2.3506,4.15095,11.05288,11.05288,0,0,0,3.74552,2.79949,12.68666,12.68666,0,0,0,10.00577,0,11.01951,11.01951,0,0,0,3.75034-2.79949,12.42348,12.42348,0,0,0,2.3506-4.15095,15.26225,15.26225,0,0,0,.82053-5.05356A15.10316,15.10316,0,0,0,291.864,306.76,12.39772,12.39772,0,0,0,289.51341,302.609Zm-1.62662,12.65077a9.6617,9.6617,0,0,1-1.33217,3.05531,6.80487,6.80487,0,0,1-2.36025,2.143,7.74987,7.74987,0,0,1-6.86354,0,6.78964,6.78964,0,0,1-2.35543-2.143,9.66994,9.66994,0,0,1-1.337-3.05531,14.03574,14.03574,0,0,1,0-6.96492,9.66833,9.66833,0,0,1,1.337-3.0553,6.79107,6.79107,0,0,1,2.35543-2.14306,6.9503,6.9503,0,0,1,3.42694-.80122h.00482a6.971,6.971,0,0,1,3.427.80122,6.80562,6.80562,0,0,1,2.36507,2.14306,9.66371,9.66371,0,0,1,1.33217,3.06012,13.85779,13.85779,0,0,1,0,6.9601Z"/><path class="cls-1" d="M507.78141,193.47256c0-1.781-1.03288-2.64986-3.23388-2.64986h-3.5814v9.26243h1.43836v-3.98685h1.52524l2.51956,3.98685h1.54936l-2.64988-4.093A2.37831,2.37831,0,0,0,507.78141,193.47256Zm-3.87584,1.4625h-1.50592l.00484-2.94429H504.311c.97016,0,2.032.18823,2.032,1.419C506.34305,194.87231,505.17981,194.93506,503.90557,194.93506Z"/></svg>